<?xml version="1.0" encoding="UTF-8" standalone="no"?>
<svg
   xmlns:dc="http://purl.org/dc/elements/1.1/"
   xmlns:cc="http://creativecommons.org/ns#"
   xmlns:rdf="http://www.w3.org/1999/02/22-rdf-syntax-ns#"
   xmlns:svg="http://www.w3.org/2000/svg"
   xmlns="http://www.w3.org/2000/svg"
   xmlns:sodipodi="http://sodipodi.sourceforge.net/DTD/sodipodi-0.dtd"
   xmlns:inkscape="http://www.inkscape.org/namespaces/inkscape"
   width="182.62645pt"
   height="182.62645pt"
   version="1.1"
   viewBox="0 0 182.62645 182.62645"
   id="svg20"
   sodipodi:docname="createclaim.svg"
   inkscape:version="1.0.2 (e86c8708, 2021-01-15)">
  <metadata
     id="metadata26">
    <rdf:RDF>
      <cc:Work
         rdf:about="">
        <dc:format>image/svg+xml</dc:format>
        <dc:type
           rdf:resource="http://purl.org/dc/dcmitype/StillImage" />
        <dc:title />
      </cc:Work>
    </rdf:RDF>
  </metadata>
  <defs
     id="defs24">
    <inkscape:perspective
       sodipodi:type="inkscape:persp3d"
       inkscape:vp_x="0 : 8.7553366 : 1"
       inkscape:vp_y="0 : 999.99995 : 0"
       inkscape:vp_z="502.91514 : 8.7553366 : 1"
       inkscape:persp3d-origin="251.45757 : -49.201701 : 1"
       id="perspective327" />
    <symbol
       id="u"
       overflow="visible">
      <path
         d="m 18.766,-1.125 c -0.96875,0.5 -1.9805,0.875 -3.0312,1.125 -1.043,0.25781 -2.1367,0.39062 -3.2812,0.39062 -3.3984,0 -6.0898,-0.94531 -8.0781,-2.8438 -1.9922,-1.9062 -2.9844,-4.4844 -2.9844,-7.7344 0,-3.2578 0.99219,-5.8359 2.9844,-7.7344 1.9883,-1.9062 4.6797,-2.8594 8.0781,-2.8594 1.1445,0 2.2383,0.13281 3.2812,0.39062 1.0508,0.25 2.0625,0.625 3.0312,1.125 v 4.2188 c -0.98047,-0.65625 -1.9453,-1.1406 -2.8906,-1.4531 -0.94922,-0.3125 -1.9492,-0.46875 -3,-0.46875 -1.875,0 -3.3516,0.60547 -4.4219,1.8125 -1.0742,1.1992 -1.6094,2.8555 -1.6094,4.9688 0,2.1055 0.53516,3.7617 1.6094,4.9688 1.0703,1.1992 2.5469,1.7969 4.4219,1.7969 1.0508,0 2.0508,-0.14844 3,-0.45312 0.94531,-0.3125 1.9102,-0.80078 2.8906,-1.4688 z"
         id="path67" />
    </symbol>
    <symbol
       id="d"
       overflow="visible">
      <path
         d="m 13.734,-11.141 c -0.4375,-0.19531 -0.87109,-0.34375 -1.2969,-0.4375 -0.41797,-0.10156 -0.83984,-0.15625 -1.2656,-0.15625 -1.2617,0 -2.2305,0.40625 -2.9062,1.2188 -0.67969,0.80469 -1.0156,1.9531 -1.0156,3.4531 v 7.0625 H 2.3591 v -15.312 h 4.8906 v 2.5156 c 0.625,-1 1.3438,-1.7266 2.1562,-2.1875 0.82031,-0.46875 1.8008,-0.70312 2.9375,-0.70312 0.16406,0 0.34375,0.01172 0.53125,0.03125 0.19531,0.01172 0.47656,0.03906 0.84375,0.07813 z"
         id="path70" />
    </symbol>
    <symbol
       id="a"
       overflow="visible">
      <path
         d="m 17.641,-7.7031 v 1.4062 H 6.188 c 0.125,1.1484 0.53906,2.0078 1.25,2.5781 0.70703,0.57422 1.7031,0.85938 2.9844,0.85938 1.0312,0 2.082,-0.14844 3.1562,-0.45312 1.082,-0.3125 2.1914,-0.77344 3.3281,-1.3906 v 3.7656 c -1.1562,0.4375 -2.3125,0.76562 -3.4688,0.98438 -1.1562,0.22656 -2.3125,0.34375 -3.4688,0.34375 -2.7734,0 -4.9297,-0.70312 -6.4688,-2.1094 -1.5312,-1.4062 -2.2969,-3.3789 -2.2969,-5.9219 0,-2.5 0.75391,-4.4609 2.2656,-5.8906 1.5078,-1.4375 3.582,-2.1562 6.2188,-2.1562 2.4062,0 4.332,0.73047 5.7812,2.1875 1.4453,1.4492 2.1719,3.3828 2.1719,5.7969 z m -5.0312,-1.625 c 0,-0.92578 -0.27344,-1.6719 -0.8125,-2.2344 -0.54297,-0.57031 -1.25,-0.85938 -2.125,-0.85938 -0.94922,0 -1.7188,0.26562 -2.3125,0.79688 -0.5937,0.53126 -0.96484,1.2969 -1.1094,2.2969 z"
         id="path73" />
    </symbol>
    <symbol
       id="c"
       overflow="visible">
      <path
         d="m 9.2188,-6.8906 c -1.0234,0 -1.793,0.17188 -2.3125,0.51562 -0.51172,0.34375 -0.76562,0.85547 -0.76562,1.5312 0,0.625 0.20703,1.1172 0.625,1.4688 0.41406,0.34375 0.98828,0.51562 1.7188,0.51562 0.92578,0 1.7031,-0.32812 2.3281,-0.98438 0.63281,-0.66406 0.95312,-1.4922 0.95312,-2.4844 v -0.5625 z m 7.4688,-1.8438 V 0 h -4.9219 v -2.2656 c -0.65625,0.92969 -1.3984,1.6055 -2.2188,2.0312 -0.82422,0.41406 -1.8242,0.625 -3,0.625 -1.5859,0 -2.8711,-0.45703 -3.8594,-1.375 -0.99219,-0.92578 -1.4844,-2.1289 -1.4844,-3.6094 0,-1.7891 0.61328,-3.1016 1.8438,-3.9375 1.2383,-0.84375 3.1797,-1.2656 5.8281,-1.2656 h 2.8906 v -0.39062 c 0,-0.76953 -0.30859,-1.332 -0.92188,-1.6875 -0.61719,-0.36328 -1.5703,-0.54688 -2.8594,-0.54688 -1.0547,0 -2.0312,0.10547 -2.9375,0.3125 -0.89844,0.21094 -1.7305,0.52344 -2.5,0.9375 v -3.7344 c 1.0391,-0.25 2.0859,-0.44141 3.1406,-0.57812 1.0625,-0.13281 2.125,-0.20312 3.1875,-0.20312 2.7578,0 4.75,0.54688 5.9688,1.6406 1.2266,1.0859 1.8438,2.8555 1.8438,5.3125 z"
         id="path76" />
    </symbol>
    <symbol
       id="b"
       overflow="visible">
      <path
         d="m 7.7031,-19.656 v 4.3438 H 12.75 v 3.5 H 7.7031 v 6.5 c 0,0.71094 0.14062,1.1875 0.42188,1.4375 0.28126,0.25 0.83594,0.375 1.6719,0.375 h 2.5156 v 3.5 h -4.1875 c -1.9375,0 -3.3125,-0.39844 -4.125,-1.2031 -0.80469,-0.8125 -1.2031,-2.1797 -1.2031,-4.1094 v -6.5 h -2.4219 v -3.5 h 2.4219 v -4.3438 z"
         id="path79" />
    </symbol>
    <symbol
       id="f"
       overflow="visible">
      <path
         d="m 12.766,-13.078 v -8.2031 h 4.9219 V -1e-4 H 12.766 v -2.2188 c -0.66797,0.90625 -1.4062,1.5703 -2.2188,1.9844 -0.8126,0.4141 -1.7578,0.625 -2.8281,0.625 -1.8867,0 -3.4336,-0.75 -4.6406,-2.25 -1.2109,-1.5 -1.8125,-3.4258 -1.8125,-5.7812 0,-2.3633 0.60156,-4.2969 1.8125,-5.7969 1.207,-1.5 2.7539,-2.25 4.6406,-2.25 1.0625,0 2,0.21484 2.8125,0.64062 0.82031,0.42969 1.5664,1.0859 2.2344,1.9688 z m -3.2188,9.9219 c 1.0391,0 1.8359,-0.37891 2.3906,-1.1406 0.55078,-0.76953 0.82812,-1.8828 0.82812,-3.3438 0,-1.457 -0.27734,-2.5664 -0.82812,-3.3281 -0.55469,-0.76953 -1.3516,-1.1562 -2.3906,-1.1562 -1.043,0 -1.8398,0.38672 -2.3906,1.1562 -0.55469,0.76172 -0.82812,1.8711 -0.82812,3.3281 0,1.4609 0.27344,2.5742 0.82812,3.3438 0.55078,0.76172 1.3477,1.1406 2.3906,1.1406 z"
         id="path82" />
    </symbol>
    <symbol
       id="l"
       overflow="visible">
      <path
         d="m 10.5,-3.1562 c 1.0508,0 1.8516,-0.37891 2.4062,-1.1406 0.55078,-0.76953 0.82812,-1.8828 0.82812,-3.3438 0,-1.457 -0.27734,-2.5664 -0.82812,-3.3281 -0.55469,-0.76953 -1.3555,-1.1562 -2.4062,-1.1562 -1.0547,0 -1.8594,0.38672 -2.4219,1.1562 -0.55469,0.77344 -0.82812,1.8828 -0.82812,3.3281 0,1.4492 0.27344,2.5586 0.82812,3.3281 0.5625,0.77344 1.3672,1.1562 2.4219,1.1562 z m -3.25,-9.9219 c 0.67578,-0.88281 1.4219,-1.5391 2.2344,-1.9688 0.82031,-0.42578 1.7656,-0.64062 2.8281,-0.64062 1.8945,0 3.4453,0.75 4.6562,2.25 1.207,1.5 1.8125,3.4336 1.8125,5.7969 0,2.3555 -0.60547,4.2812 -1.8125,5.7812 -1.2109,1.5 -2.7617,2.25 -4.6562,2.25 -1.0625,0 -2.0078,-0.21094 -2.8281,-0.625 C 8.6719,-0.6602 7.9258,-1.32032 7.25,-2.21882 V -2e-5 H 2.3594 v -21.281 H 7.25 Z"
         id="path85" />
    </symbol>
    <symbol
       id="k"
       overflow="visible">
      <path
         d="m 0.34375,-15.312 h 4.8906 l 4.125,10.391 3.5,-10.391 h 4.8906 l -6.4375,16.766 c -0.64844,1.6953 -1.4023,2.8828 -2.2656,3.5625 -0.86719,0.6875 -2,1.0312 -3.4062,1.0312 H 2.79685 V 2.8289 h 1.5312 c 0.83203,0 1.4375,-0.13672 1.8125,-0.40625 C 6.52336,2.16093 6.82024,1.69218 7.03117,1.01645 L 7.17179,0.59457 Z"
         id="path88" />
    </symbol>
    <symbol
       id="j"
       overflow="visible">
      <path
         d="m 1.5781,-20.406 h 17.156 v 3.1719 l -10.953,13.25 h 11.266 V 3e-4 H 1.2661 v -3.1875 l 10.938,-13.25 H 1.5791 Z"
         id="path91" />
    </symbol>
    <symbol
       id="i"
       overflow="visible">
      <path
         d="M 2.3594,-15.312 H 7.25 v 15.031 c 0,2.0508 -0.49609,3.6172 -1.4844,4.7031 -0.98047,1.082 -2.4062,1.625 -4.2812,1.625 H -0.9375 V 2.8283 h 0.85938 c 0.92578,0 1.5625,-0.21094 1.9062,-0.625 0.35156,-0.41797 0.53125,-1.2461 0.53125,-2.4844 z m 0,-5.9688 H 7.25 v 4 H 2.3594 Z"
         id="path94" />
    </symbol>
    <symbol
       id="h"
       overflow="visible">
      <path
         d="m 2.5781,-20.406 h 5.875 l 7.4219,14 v -14 h 4.9844 V 0 h -5.875 L 7.5625,-14 V 0 H 2.5781 Z"
         id="path97" />
    </symbol>
    <symbol
       id="t"
       overflow="visible">
      <path
         d="M 2.3594,-21.281 H 7.25 v 11.594 l 5.625,-5.625 h 5.6875 L 11.0937,-8.2808 19.1562,4e-4 H 13.2187 L 7.2499,-6.3902 V 4e-4 H 2.3593 Z"
         id="path100" />
    </symbol>
    <symbol
       id="g"
       overflow="visible">
      <path
         d="M 17.75,-9.3281 V 0 h -4.9219 v -7.1094 c 0,-1.3438 -0.03125,-2.2656 -0.09375,-2.7656 -0.0625,-0.5 -0.16797,-0.86719 -0.3125,-1.1094 -0.1875,-0.3125 -0.44922,-0.55469 -0.78125,-0.73438 -0.32422,-0.17578 -0.69531,-0.26562 -1.1094,-0.26562 -1.0234,0 -1.8242,0.39844 -2.4062,1.1875 -0.58594,0.78125 -0.875,1.8711 -0.875,3.2656 V -1e-4 H 2.3594 v -21.281 H 7.25 v 8.2031 c 0.73828,-0.88281 1.5195,-1.5391 2.3438,-1.9688 0.83203,-0.42578 1.75,-0.64062 2.75,-0.64062 1.7695,0 3.1133,0.54688 4.0312,1.6406 0.91406,1.0859 1.375,2.6562 1.375,4.7188 z"
         id="path103" />
    </symbol>
    <symbol
       id="s"
       overflow="visible">
      <path
         d="M 2.3594,-15.312 H 7.25 V 0 H 2.3594 Z m 0,-5.9688 H 7.25 v 4 H 2.3594 Z"
         id="path106" />
    </symbol>
    <symbol
       id="r"
       overflow="visible">
      <path
         d="m 12.422,-21.281 v 3.2188 H 9.7189 c -0.6875,0 -1.1719,0.125 -1.4531,0.375 -0.27344,0.25 -0.40625,0.6875 -0.40625,1.3125 v 1.0625 h 4.1875 v 3.5 H 7.85955 V -2e-4 h -4.8906 v -11.812 h -2.4375 v -3.5 h 2.4375 v -1.0625 c 0,-1.6641 0.46094,-2.8984 1.3906,-3.7031 0.92578,-0.80078 2.3672,-1.2031 4.3281,-1.2031 z"
         id="path109" />
    </symbol>
    <symbol
       id="e"
       overflow="visible">
      <path
         d="m 9.6406,-12.188 c -1.0859,0 -1.9141,0.39062 -2.4844,1.1719 -0.57422,0.78125 -0.85938,1.9062 -0.85938,3.375 0,1.4688 0.28516,2.5938 0.85938,3.375 0.57031,0.77344 1.3984,1.1562 2.4844,1.1562 1.0625,0 1.875,-0.38281 2.4375,-1.1562 0.57031,-0.78125 0.85938,-1.9062 0.85938,-3.375 0,-1.4688 -0.28906,-2.5938 -0.85938,-3.375 -0.5625,-0.78125 -1.375,-1.1719 -2.4375,-1.1719 z m 0,-3.5 c 2.6328,0 4.6914,0.71484 6.1719,2.1406 1.4766,1.418 2.2188,3.3867 2.2188,5.9062 0,2.5117 -0.74219,4.4805 -2.2188,5.9062 C 14.332,-0.317 12.2734,0.39 9.6406,0.39 6.9922,0.39 4.9258,-0.31703 3.4375,-1.735 1.9453,-3.1608 1.2031,-5.1295 1.2031,-7.6412 c 0,-2.5195 0.74219,-4.4883 2.2344,-5.9062 1.4883,-1.4258 3.5547,-2.1406 6.2031,-2.1406 z"
         id="path112" />
    </symbol>
    <symbol
       id="q"
       overflow="visible">
      <path
         d="m 16.547,-12.766 c 0.61328,-0.94531 1.3477,-1.6719 2.2031,-2.1719 0.85156,-0.5 1.7891,-0.75 2.8125,-0.75 1.7578,0 3.0977,0.54688 4.0156,1.6406 0.92578,1.0859 1.3906,2.6562 1.3906,4.7188 V -4e-4 h -4.9219 v -7.9844 -0.35938 c 0.0078,-0.13281 0.01563,-0.32031 0.01563,-0.5625 0,-1.082 -0.16406,-1.8633 -0.48438,-2.3438 -0.3125,-0.48828 -0.82422,-0.73438 -1.5312,-0.73438 -0.92969,0 -1.6484,0.38672 -2.1562,1.1562 -0.51172,0.76172 -0.77344,1.8672 -0.78125,3.3125 v 7.5156 h -4.9219 v -7.9844 c 0,-1.6953 -0.14844,-2.7852 -0.4375,-3.2656 -0.29297,-0.48828 -0.8125,-0.73438 -1.5625,-0.73438 -0.9375,0 -1.6641,0.38672 -2.1719,1.1562 -0.51172,0.76172 -0.76562,1.8594 -0.76562,3.2969 v 7.5312 h -4.9219 v -15.312 h 4.9219 v 2.2344 c 0.60156,-0.86328 1.2891,-1.5156 2.0625,-1.9531 0.78125,-0.4375 1.6406,-0.65625 2.5781,-0.65625 1.0625,0 2,0.25781 2.8125,0.76562 0.8125,0.51172 1.4258,1.2305 1.8438,2.1562 z"
         id="path115" />
    </symbol>
    <symbol
       id="p"
       overflow="visible">
      <path
         d="m 2.1875,-5.9688 v -9.3438 h 4.9219 v 1.5312 c 0,0.83594 -0.00781,1.875 -0.015625,3.125 -0.011719,1.25 -0.015625,2.0859 -0.015625,2.5 0,1.2422 0.03125,2.1328 0.09375,2.6719 0.070313,0.54297 0.17969,0.93359 0.32812,1.1719 0.20703,0.32422 0.47266,0.57422 0.79688,0.75 0.32031,0.16797 0.69141,0.25 1.1094,0.25 1.0195,0 1.8203,-0.39062 2.4062,-1.1719 0.58203,-0.78125 0.875,-1.8672 0.875,-3.2656 v -7.5625 h 4.8906 V -6e-4 H 12.6875 V -2.2194 C 11.94531,-1.32096 11.1641,-0.6608 10.3437,-0.235 9.51948,0.17906 8.6093,0.39 7.6093,0.39 5.8476,0.39 4.5038,-0.14906 3.5781,-1.235 2.64841,-2.317 2.1875,-3.8952 2.1875,-5.9694 Z"
         id="path118" />
    </symbol>
    <symbol
       id="o"
       overflow="visible">
      <path
         d="M 17.75,-9.3281 V 0 h -4.9219 v -7.1406 c 0,-1.3203 -0.03125,-2.2344 -0.09375,-2.7344 -0.0625,-0.5 -0.16797,-0.86719 -0.3125,-1.1094 -0.1875,-0.3125 -0.44922,-0.55469 -0.78125,-0.73438 -0.32422,-0.17578 -0.69531,-0.26562 -1.1094,-0.26562 -1.0234,0 -1.8242,0.39844 -2.4062,1.1875 -0.58594,0.78125 -0.875,1.8711 -0.875,3.2656 V -1e-4 H 2.3594 v -15.312 H 7.25 v 2.2344 c 0.73828,-0.88281 1.5195,-1.5391 2.3438,-1.9688 0.83203,-0.42578 1.75,-0.64062 2.75,-0.64062 1.7695,0 3.1133,0.54688 4.0312,1.6406 0.91406,1.0859 1.375,2.6562 1.375,4.7188 z"
         id="path121" />
    </symbol>
    <symbol
       id="n"
       overflow="visible">
      <path
         d="m 2.5781,-20.406 h 8.7344 c 2.5938,0 4.582,0.57812 5.9688,1.7344 1.3945,1.1484 2.0938,2.7891 2.0938,4.9219 0,2.1367 -0.69922,3.7812 -2.0938,4.9375 -1.3867,1.1562 -3.375,1.7344 -5.9688,1.7344 H 7.8281 V 3e-4 h -5.25 z m 5.25,3.8125 v 5.7031 H 10.75 c 1.0195,0 1.8047,-0.25 2.3594,-0.75 0.5625,-0.5 0.84375,-1.2031 0.84375,-2.1094 0,-0.91406 -0.28125,-1.6172 -0.84375,-2.1094 -0.55469,-0.48828 -1.3398,-0.73438 -2.3594,-0.73438 z"
         id="path124" />
    </symbol>
    <symbol
       id="m"
       overflow="visible">
      <path
         d="m 14.719,-14.828 v 3.9844 c -0.65625,-0.45703 -1.3242,-0.79688 -2,-1.0156 -0.66797,-0.21875 -1.3594,-0.32812 -2.0781,-0.32812 -1.3672,0 -2.4336,0.40234 -3.2031,1.2031 -0.76172,0.79297 -1.1406,1.9062 -1.1406,3.3438 0,1.4297 0.37891,2.543 1.1406,3.3438 0.76953,0.79297 1.8359,1.1875 3.2031,1.1875 0.75781,0 1.4844,-0.10938 2.1719,-0.32812 0.6875,-0.22656 1.3203,-0.56641 1.9062,-1.0156 v 4 c -0.76172,0.28125 -1.5391,0.48828 -2.3281,0.625 -0.78125,0.14453 -1.5742,0.21875 -2.375,0.21875 -2.7617,0 -4.9219,-0.70703 -6.4844,-2.125 -1.5547,-1.4141 -2.3281,-3.3828 -2.3281,-5.9062 0,-2.5312 0.77344,-4.5039 2.3281,-5.9219 1.5625,-1.4141 3.7227,-2.125 6.4844,-2.125 0.80078,0 1.5938,0.07422 2.375,0.21875 0.78125,0.13672 1.5547,0.35156 2.3281,0.64062 z"
         id="path127" />
    </symbol>
    <symbol
       id="u-5"
       overflow="visible">
      <path
         d="M 2.2188,-0.125 C 2.10161,-0.070312 1.98442,-0.03125 1.85942,0 1.73442,0.03125 1.60161,0.046875 1.4688,0.046875 c -0.39844,0 -0.71484,-0.10938 -0.95312,-0.32812 -0.23047,-0.22656 -0.34375,-0.53516 -0.34375,-0.92188 0,-0.38281 0.11328,-0.6875 0.34375,-0.90625 0.23828,-0.22656 0.55469,-0.34375 0.95312,-0.34375 0.13281,0 0.26562,0.015625 0.39062,0.046875 0.125,0.023438 0.24219,0.0625 0.35938,0.125 v 0.5 C 2.10161,-1.851562 1.98833,-1.90625 1.87505,-1.9375 1.75786,-1.976562 1.64458,-2 1.5313,-2 c -0.23047,0 -0.40625,0.074219 -0.53125,0.21875 -0.125,0.13672 -0.1875,0.32812 -0.1875,0.57812 0,0.25 0.0625,0.44922 0.1875,0.59375 0.125,0.13672 0.30078,0.20312 0.53125,0.20312 0.11328,0 0.22656,-0.015625 0.34375,-0.046875 0.11328,-0.039063 0.22656,-0.097656 0.34375,-0.17188 z"
         id="path300" />
    </symbol>
    <symbol
       id="e-9"
       overflow="visible">
      <path
         d="M 1.625,-1.3125 C 1.570312,-1.34375 1.51953,-1.363281 1.46875,-1.375 1.414062,-1.382812 1.36719,-1.390625 1.32813,-1.390625 c -0.15625,0 -0.27734,0.054687 -0.35938,0.15625 -0.074219,0.09375 -0.10938,0.23047 -0.10938,0.40625 V -5e-6 H 0.28125 v -1.8125 h 0.57812 v 0.29688 c 0.070313,-0.11328 0.15625,-0.19531 0.25,-0.25 0.10156,-0.0625 0.21875,-0.09375 0.34375,-0.09375 0.019531,0 0.039063,0.00781 0.0625,0.015625 H 1.625 Z"
         id="path303" />
    </symbol>
    <symbol
       id="c-5"
       overflow="visible">
      <path
         d="M 2.0938,-0.90625 V -0.75 H 0.7344 c 0.007813,0.13672 0.054687,0.24219 0.14062,0.3125 0.082031,0.0625 0.20312,0.09375 0.35938,0.09375 0.125,0 0.25,-0.015625 0.375,-0.046875 0.125,-0.039063 0.25391,-0.097656 0.39062,-0.17188 v 0.45312 C 1.8633,-0.054697 1.72658,-0.019541 1.59377,-5e-6 1.45705,0.031245 1.31643,0.04687 1.17189,0.04687 c -0.32422,0 -0.57812,-0.082031 -0.76562,-0.25 -0.17969,-0.16406 -0.26562,-0.39844 -0.26562,-0.70312 0,-0.28906 0.085937,-0.51953 0.26562,-0.6875 0.17578,-0.17578 0.42188,-0.26562 0.73438,-0.26562 0.28906,0 0.51953,0.089844 0.6875,0.26562 0.17578,0.16797 0.26562,0.39844 0.26562,0.6875 z M 1.48442,-1.10937 c 0,-0.10156 -0.03125,-0.1875 -0.09375,-0.25 -0.0625,-0.070313 -0.14844,-0.10938 -0.25,-0.10938 -0.11719,0 -0.21094,0.03125 -0.28125,0.09375 -0.0625,0.0625 -0.10547,0.15234 -0.125,0.26562 z"
         id="path306" />
    </symbol>
    <symbol
       id="b-4"
       overflow="visible">
      <path
         d="m 1.0938,-0.8125 c -0.125,0 -0.21875,0.023438 -0.28125,0.0625 -0.0625,0.042969 -0.09375,0.10156 -0.09375,0.17188 0,0.074219 0.023438,0.13281 0.078125,0.17188 0.050781,0.042969 0.11719,0.0625 0.20312,0.0625 0.11328,0 0.20703,-0.035156 0.28125,-0.10938 0.070312,-0.082031 0.10938,-0.17969 0.10938,-0.29688 v -0.0625 z m 0.875,-0.21875 V -5e-5 H 1.39068 V -0.26567 C 1.316461,-0.1602 1.22662,-0.08208 1.12506,-0.03129 1.03131,0.019491 0.91412,0.046835 0.78131,0.046835 c -0.1875,0 -0.34375,-0.050781 -0.46875,-0.15625 -0.11719,-0.11328 -0.17188,-0.25781 -0.17188,-0.4375 0,-0.20703 0.070313,-0.35938 0.21875,-0.45312 0.14453,-0.10156 0.375,-0.15625 0.6875,-0.15625 H 1.39068 V -1.20316 c 0,-0.09375 -0.039063,-0.16016 -0.10938,-0.20312 -0.074219,-0.039062 -0.1875,-0.0625 -0.34375,-0.0625 -0.11719,0 -0.23047,0.015625 -0.34375,0.046875 -0.10547,0.023437 -0.20312,0.054687 -0.29688,0.09375 v -0.4375 c 0.125,-0.03125 0.25,-0.050781 0.375,-0.0625 0.125,-0.019531 0.25,-0.03125 0.375,-0.03125 0.33203,0 0.56641,0.070313 0.70312,0.20312 0.14453,0.125 0.21875,0.33594 0.21875,0.625 z"
         id="path309" />
    </symbol>
    <symbol
       id="a-9"
       overflow="visible">
      <path
         d="m 0.90625,-2.3281 v 0.51562 H 1.5 V -1.3906 H 0.90625 v 0.76562 c 0,0.085938 0.015625,0.14062 0.046875,0.17188 0.039063,0.023437 0.10938,0.03125 0.20312,0.03125 h 0.29688 V 3e-5 h -0.5 c -0.21875,0 -0.38281,-0.046875 -0.48438,-0.14062 -0.09375,-0.09375 -0.14062,-0.25391 -0.14062,-0.48438 v -0.76562 h -0.28125 v -0.42188 h 0.28125 v -0.51562 z"
         id="path312" />
    </symbol>
    <symbol
       id="l-1"
       overflow="visible">
      <path
         d="M 1.5156,-1.5469 V -2.51565 H 2.09372 V -5e-5 H 1.5156 V -0.26567 C 1.429663,-0.1602 1.34372,-0.08208 1.24998,-0.03129 1.15624,0.0195 1.03904,0.046835 0.90623,0.046835 c -0.21875,0 -0.40234,-0.085938 -0.54688,-0.26562 -0.13672,-0.17578 -0.20312,-0.40625 -0.20312,-0.6875 0,-0.28125 0.066406,-0.50781 0.20312,-0.6875 0.14453,-0.17578 0.32812,-0.26562 0.54688,-0.26562 0.125,0 0.23438,0.027344 0.32812,0.078125 0.10156,0.054688 0.19531,0.13281 0.28125,0.23438 z M 1.12498,-0.375 c 0.125,0 0.21875,-0.039062 0.28125,-0.125 0.070312,-0.09375 0.10938,-0.22656 0.10938,-0.40625 0,-0.16406 -0.039063,-0.29688 -0.10938,-0.39062 -0.0625,-0.09375 -0.15625,-0.14062 -0.28125,-0.14062 -0.125,0 -0.21875,0.046875 -0.28125,0.14062 -0.0625,0.093745 -0.09375,0.22656 -0.09375,0.39062 0,0.17969 0.03125,0.3125 0.09375,0.40625 0.0625,0.085938 0.15625,0.125 0.28125,0.125 z"
         id="path315" />
    </symbol>
    <symbol
       id="k-7"
       overflow="visible">
      <path
         d="m 1.25,-0.375 c 0.11328,0 0.20312,-0.039062 0.26562,-0.125 C 1.585933,-0.59375 1.625,-0.72656 1.625,-0.90625 1.625,-1.07031 1.585938,-1.20313 1.51562,-1.29687 1.45312,-1.39062 1.36328,-1.43749 1.25,-1.43749 c -0.125,0 -0.22656,0.046875 -0.29688,0.14062 -0.0625,0.09375 -0.09375,0.22656 -0.09375,0.39062 0,0.17969 0.03125,0.3125 0.09375,0.40625 C 1.023433,-0.414062 1.125,-0.375 1.25,-0.375 Z M 0.85938,-1.5469 c 0.082031,-0.10156 0.17188,-0.17969 0.26562,-0.23438 0.09375,-0.050781 0.20312,-0.078125 0.32812,-0.078125 0.22656,0 0.41016,0.089844 0.54688,0.26562 0.14453,0.17969 0.21875,0.40625 0.21875,0.6875 0,0.28125 -0.074219,0.51172 -0.21875,0.6875 -0.13672,0.17969 -0.32031,0.26562 -0.54688,0.26562 -0.125,0 -0.23438,-0.027344 -0.32812,-0.078125 C 1.03126,-0.082071 0.94141,-0.1602 0.85938,-0.26567 V -5e-5 H 0.28126 v -2.5156 h 0.57812 z"
         id="path318" />
    </symbol>
    <symbol
       id="j-5"
       overflow="visible">
      <path
         d="m 0.046875,-1.8125 h 0.57812 l 0.48438,1.2344 0.40625,-1.2344 h 0.57812 l -0.75,1.9844 c -0.085938,0.19531 -0.17969,0.33594 -0.28125,0.42188 -0.09375,0.082031 -0.22656,0.125 -0.39062,0.125 H 0.328125 V 0.32816 h 0.1875 c 0.09375,0 0.16016,-0.015625 0.20312,-0.046875 0.050781,-0.03125 0.085938,-0.085938 0.10938,-0.15625 l 0.015625,-0.0625 z"
         id="path321" />
    </symbol>
    <symbol
       id="h-5"
       overflow="visible">
      <path
         d="m 1.9531,-1.5156 c 0.070313,-0.10156 0.16016,-0.1875 0.26562,-0.25 0.10156,-0.0625 0.21094,-0.09375 0.32812,-0.09375 0.20703,0 0.36328,0.070313 0.46875,0.20312 0.11328,0.125 0.17188,0.30859 0.17188,0.54688 V 5e-5 H 2.60935 v -0.9375 -0.046875 -0.0625 c 0,-0.13281 -0.023437,-0.22656 -0.0625,-0.28125 -0.03125,-0.0625 -0.089844,-0.09375 -0.17188,-0.09375 -0.11719,0 -0.20312,0.046875 -0.26562,0.14062 -0.054687,0.09375 -0.085937,0.22656 -0.09375,0.39062 V 3.5e-5 H 1.43748 v -0.9375 c 0,-0.20703 -0.015625,-0.33594 -0.046875,-0.39062 -0.03125,-0.0625 -0.09375,-0.09375 -0.1875,-0.09375 -0.11719,0 -0.20312,0.046875 -0.26562,0.14062 -0.054688,0.09375 -0.078125,0.22656 -0.078125,0.39062 V 2.5e-5 H 0.28124 v -1.8125 h 0.57812 v 0.26562 c 0.070313,-0.10156 0.14844,-0.17969 0.23438,-0.23438 0.09375,-0.050781 0.19531,-0.078125 0.3125,-0.078125 0.125,0 0.23438,0.03125 0.32812,0.09375 0.09374,0.0625 0.16406,0.14844 0.21875,0.25 z"
         id="path324" />
    </symbol>
    <symbol
       id="g-4"
       overflow="visible">
      <path
         d="M 2.0938,-1.1094 V 0 H 1.51568 v -0.84375 c 0,-0.15625 -0.00781,-0.25781 -0.015625,-0.3125 0,-0.0625 -0.011719,-0.10938 -0.03125,-0.14062 -0.023438,-0.039063 -0.054688,-0.070313 -0.09375,-0.09375 -0.042969,-0.019531 -0.085938,-0.03125 -0.125,-0.03125 -0.125,0 -0.22656,0.046875 -0.29688,0.14062 -0.0625,0.09375 -0.09375,0.22656 -0.09375,0.39062 V -1e-5 h -0.57812 v -1.8125 h 0.57812 v 0.26562 c 0.082031,-0.10156 0.17188,-0.17969 0.26562,-0.23438 0.10156,-0.050781 0.21094,-0.078125 0.32812,-0.078125 0.21875,0 0.37891,0.070313 0.48438,0.20312 0.10156,0.125 0.15625,0.30859 0.15625,0.54688 z"
         id="path327" />
    </symbol>
    <symbol
       id="i-1"
       overflow="visible">
      <path
         d="M 0.85938,-0.26562 V 0.6875 H 0.28126 v -2.5 h 0.57812 v 0.26562 c 0.082031,-0.10156 0.17188,-0.17969 0.26562,-0.23438 0.09375,-0.050781 0.20312,-0.078125 0.32812,-0.078125 0.22656,0 0.41016,0.089844 0.54688,0.26562 0.14453,0.17969 0.21875,0.40625 0.21875,0.6875 0,0.28125 -0.074219,0.51172 -0.21875,0.6875 -0.13672,0.17969 -0.32031,0.26562 -0.54688,0.26562 -0.125,0 -0.23438,-0.027344 -0.32812,-0.078125 C 1.03126,-0.082051 0.94141,-0.16018 0.85938,-0.26565 Z M 1.25,-1.43752 c -0.125,0 -0.22656,0.046875 -0.29688,0.14062 -0.0625,0.09375 -0.09375,0.22656 -0.09375,0.39062 0,0.17969 0.03125,0.3125 0.09375,0.40625 0.070313,0.085938 0.17188,0.125 0.29688,0.125 0.11328,0 0.20312,-0.039062 0.26562,-0.125 C 1.585933,-0.59378 1.625,-0.72659 1.625,-0.90628 1.625,-1.07034 1.585938,-1.20316 1.51562,-1.2969 1.45312,-1.39065 1.36328,-1.43752 1.25,-1.43752 Z"
         id="path330" />
    </symbol>
    <symbol
       id="t-8"
       overflow="visible">
      <path
         d="M 0.28125,-1.8125 H 0.85937 V 0 H 0.28125 Z m 0,-0.70312 h 0.57812 v 0.46875 H 0.28125 Z"
         id="path333" />
    </symbol>
    <symbol
       id="d-8"
       overflow="visible">
      <path
         d="m 0.26562,-0.70312 v -1.1094 h 0.57812 v 0.1875 0.375 0.28125 0.32812 c 0.007812,0.0625 0.023438,0.10547 0.046875,0.125 0.019531,0.042969 0.046875,0.074219 0.078125,0.09375 0.039062,0.023437 0.085938,0.03125 0.14062,0.03125 0.125,0 0.21875,-0.046875 0.28125,-0.14062 0.070313,-0.09375 0.10938,-0.22266 0.10938,-0.39062 V -1.81251 H 2.07811 V -1e-5 H 1.49999 V -0.26563 C 1.414052,-0.16016 1.3203,-0.08204 1.21874,-0.03125 1.12499,0.019531 1.01952,0.046875 0.90624,0.046875 c -0.21094,0 -0.37109,-0.0625 -0.48438,-0.1875 -0.10547,-0.13281 -0.15625,-0.32031 -0.15625,-0.5625 z"
         id="path336" />
    </symbol>
    <symbol
       id="s-3"
       overflow="visible">
      <path
         d="M 0.28125,-2.5156 H 0.85937 V 0 H 0.28125 Z"
         id="path339" />
    </symbol>
    <symbol
       id="r-5"
       overflow="visible">
      <path
         d="m 1.4688,-2.5156 v 0.375 H 1.1563 c -0.085938,0 -0.14062,0.015625 -0.17188,0.046875 -0.03126,0.03125 -0.046875,0.085938 -0.046875,0.15625 v 0.125 h 0.48438 v 0.42188 H 0.937545 V 5e-6 h -0.59375 v -1.3906 h -0.28125 v -0.42188 h 0.28125 v -0.125 c 0,-0.19531 0.054688,-0.34375 0.17188,-0.4375 0.11328,-0.09375 0.28516,-0.14062 0.51562,-0.14062 z"
         id="path342" />
    </symbol>
    <symbol
       id="f-2"
       overflow="visible">
      <path
         d="m 1.1406,-1.4375 c -0.125,0 -0.22656,0.046875 -0.29688,0.14062 -0.0625,0.085937 -0.09375,0.21484 -0.09375,0.39062 0,0.17969 0.03125,0.3125 0.09375,0.40625 0.070312,0.09375 0.17188,0.14062 0.29688,0.14062 0.125,0 0.21875,-0.046875 0.28125,-0.14062 0.070313,-0.09375 0.10938,-0.22656 0.10938,-0.40625 0,-0.17578 -0.039062,-0.30469 -0.10938,-0.39062 C 1.35935,-1.39063 1.2656,-1.4375 1.1406,-1.4375 Z m 0,-0.42188 c 0.3125,0 0.55469,0.089844 0.73438,0.26562 0.17578,0.16797 0.26562,0.39844 0.26562,0.6875 0,0.30469 -0.089844,0.53906 -0.26562,0.70312 -0.17969,0.16797 -0.42188,0.25 -0.73438,0.25 -0.3125,0 -0.55859,-0.082031 -0.73438,-0.25 C 0.22653,-0.3672 0.1406,-0.60158 0.1406,-0.90626 c 0,-0.28906 0.085937,-0.51953 0.26562,-0.6875 C 0.582,-1.76954 0.8281,-1.85938 1.1406,-1.85938 Z"
         id="path345" />
    </symbol>
    <symbol
       id="q-2"
       overflow="visible">
      <path
         d="M 2.0938,-1.1094 V 0 H 1.51568 v -0.84375 c 0,-0.15625 -0.00781,-0.25781 -0.015625,-0.3125 0,-0.0625 -0.011719,-0.10938 -0.03125,-0.14062 -0.023438,-0.039063 -0.054688,-0.070313 -0.09375,-0.09375 -0.042969,-0.019531 -0.085938,-0.03125 -0.125,-0.03125 -0.125,0 -0.22656,0.046875 -0.29688,0.14062 -0.0625,0.09375 -0.09375,0.22656 -0.09375,0.39062 V -1e-5 h -0.57812 v -2.5156 h 0.57812 v 0.96875 c 0.082031,-0.10156 0.17188,-0.17969 0.26562,-0.23438 0.10156,-0.050781 0.21094,-0.078125 0.32812,-0.078125 0.21875,0 0.37891,0.070313 0.48438,0.20312 0.10156,0.125 0.15625,0.30859 0.15625,0.54688 z"
         id="path348" />
    </symbol>
    <symbol
       id="p-6"
       overflow="visible">
      <path
         d="M 0.29688,-2.4219 H 1 l 0.875,1.6562 V -2.4219 H 2.46875 V 0 H 1.76563 l -0.875,-1.6562 V 0 H 0.29688 Z"
         id="path351" />
    </symbol>
    <symbol
       id="o-6"
       overflow="visible">
      <path
         d="m 0.29688,-2.4219 h 1.0469 c 0.30078,0 0.53516,0.074219 0.70312,0.21875 0.16406,0.13672 0.25,0.32812 0.25,0.57812 0,0.25 -0.085937,0.44531 -0.25,0.57812 -0.16797,0.13672 -0.40234,0.20312 -0.70312,0.20312 H 0.9219 V -4e-5 h -0.625 z m 0.625,0.45312 v 0.67188 h 0.34375 c 0.125,0 0.21875,-0.023437 0.28125,-0.078125 0.070313,-0.0625 0.10938,-0.14453 0.10938,-0.25 0,-0.10156 -0.039062,-0.1875 -0.10938,-0.25 -0.0625,-0.0625 -0.15625,-0.09375 -0.28125,-0.09375 z"
         id="path354" />
    </symbol>
    <symbol
       id="n-7"
       overflow="visible">
      <path
         d="m 0.28125,-1.8125 h 0.57812 v 1.7812 c 0,0.23828 -0.058594,0.42188 -0.17188,0.54688 C 0.5703,0.64839 0.39843,0.7187 0.17187,0.7187 H -0.10938 V 0.32808 h 0.09375 c 0.11328,0 0.19141,-0.027344 0.23438,-0.078125 0.039062,-0.042969 0.0625,-0.13672 0.0625,-0.28125 z m 0,-0.70312 h 0.57812 v 0.46875 H 0.28125 Z"
         id="path357" />
    </symbol>
    <symbol
       id="m-8"
       overflow="visible">
      <path
         d="m 1.7344,-1.75 v 0.46875 C 1.660181,-1.332031 1.58206,-1.367188 1.50002,-1.39063 1.425801,-1.42188 1.34768,-1.437505 1.26564,-1.437505 c -0.16797,0 -0.29688,0.046875 -0.39062,0.14062 -0.085938,0.09375 -0.125,0.22656 -0.125,0.39062 0,0.16797 0.039062,0.30469 0.125,0.40625 0.09375,0.09375 0.22266,0.14062 0.39062,0.14062 0.082031,0 0.16406,-0.015625 0.25,-0.046875 0.082031,-0.03125 0.15625,-0.070312 0.21875,-0.125 v 0.48438 C 1.648453,-0.01564 1.56251,0.003891 1.46877,0.01561 1.37502,0.035141 1.28127,0.04686 1.18752,0.04686 0.8633,0.04686 0.6094,-0.035171 0.4219,-0.20314 0.2344,-0.3672 0.14065,-0.60158 0.14065,-0.90626 c 0,-0.30078 0.09375,-0.53516 0.28125,-0.70312 0.1875,-0.16406 0.44141,-0.25 0.76562,-0.25 0.09375,0 0.1875,0.011719 0.28125,0.03125 0.09375,0.011719 0.17969,0.039063 0.26562,0.078125 z"
         id="path360" />
    </symbol>
    <symbol
       id="h-8"
       overflow="visible">
      <path
         d="m 39.078,-2.3281 c -2.0117,1.043 -4.1094,1.8281 -6.2969,2.3594 -2.1875,0.5313 -4.4648,0.79688 -6.8281,0.79688 -7.0859,0 -12.699,-1.9766 -16.844,-5.9375 -4.1367,-3.957 -6.2031,-9.3281 -6.2031,-16.109 0,-6.7891 2.0664,-12.164 6.2031,-16.125 4.1445,-3.9688 9.7578,-5.9531 16.844,-5.9531 2.3633,0 4.6406,0.26562 6.8281,0.79688 2.1875,0.53126 4.2852,1.3242 6.2969,2.375 v 8.7969 c -2.0312,-1.3828 -4.0391,-2.3984 -6.0156,-3.0469 -1.9688,-0.64453 -4.0469,-0.96875 -6.2344,-0.96875 -3.9062,0 -6.9844,1.2578 -9.2344,3.7656 -2.2422,2.5 -3.3594,5.9531 -3.3594,10.359 0,4.3867 1.1172,7.8359 3.3594,10.344 2.25,2.5 5.3281,3.75 9.2344,3.75 2.1875,0 4.2656,-0.32031 6.2344,-0.96875 1.9766,-0.64453 3.9844,-1.6602 6.0156,-3.0469 z"
         id="path132-0" />
    </symbol>
    <symbol
       id="g-46"
       overflow="visible">
      <path
         d="m 16.031,-40.953 v 9.0625 h 10.516 v 7.2812 H 16.031 v 13.531 c 0,1.4805 0.28906,2.4805 0.875,3 0.59375,0.52344 1.7656,0.78125 3.5156,0.78125 h 5.2344 v 7.2969 h -8.7344 c -4.0312,0 -6.8867,-0.83594 -8.5625,-2.5156 -1.6797,-1.6875 -2.5156,-4.5391 -2.5156,-8.5625 v -13.531 H 0.7654 v -7.2812 h 5.0781 v -9.0625 z"
         id="path135" />
    </symbol>
    <symbol
       id="f-0"
       overflow="visible">
      <path
         d="M 26.594,-27.234 V -44.312 H 36.86 V 0 H 26.594 v -4.6094 c -1.3984,1.875 -2.9453,3.25 -4.6406,4.125 -1.6875,0.875 -3.6406,1.3125 -5.8594,1.3125 -3.9297,0 -7.1562,-1.5625 -9.6875,-4.6875 -2.5234,-3.125 -3.7812,-7.1445 -3.7812,-12.062 0,-4.9141 1.2578,-8.9375 3.7812,-12.062 2.5312,-3.125 5.7578,-4.6875 9.6875,-4.6875 2.1953,0 4.1445,0.44531 5.8438,1.3281 1.707,0.88672 3.2578,2.2578 4.6562,4.1094 z m -6.7188,20.656 c 2.1875,0 3.8516,-0.79688 5,-2.3906 1.1445,-1.5938 1.7188,-3.9102 1.7188,-6.9531 0,-3.0391 -0.57422,-5.3594 -1.7188,-6.9531 -1.1484,-1.5938 -2.8125,-2.3906 -5,-2.3906 -2.168,0 -3.8242,0.79688 -4.9688,2.3906 -1.1484,1.5938 -1.7188,3.9141 -1.7188,6.9531 0,3.043 0.57031,5.3594 1.7188,6.9531 1.1445,1.5938 2.8008,2.3906 4.9688,2.3906 z"
         id="path138" />
    </symbol>
    <symbol
       id="e-3"
       overflow="visible">
      <path
         d="m 21.875,-6.5781 c 2.1758,0 3.8359,-0.79688 4.9844,-2.3906 1.1562,-1.5938 1.7344,-3.9102 1.7344,-6.9531 0,-3.0391 -0.57812,-5.3594 -1.7344,-6.9531 -1.1484,-1.5938 -2.8086,-2.3906 -4.9844,-2.3906 -2.1875,0 -3.8672,0.80469 -5.0312,2.4062 -1.168,1.6055 -1.75,3.918 -1.75,6.9375 0,3.0234 0.58203,5.3359 1.75,6.9375 1.1641,1.6055 2.8438,2.4062 5.0312,2.4062 z m -6.7812,-20.656 c 1.4062,-1.8516 2.9609,-3.2227 4.6719,-4.1094 1.707,-0.88281 3.6719,-1.3281 5.8906,-1.3281 3.9375,0 7.1641,1.5625 9.6875,4.6875 2.5195,3.125 3.7812,7.1484 3.7812,12.062 0,4.918 -1.2617,8.9375 -3.7812,12.062 -2.5234,3.125 -5.75,4.6875 -9.6875,4.6875 -2.2188,0 -4.1836,-0.44531 -5.8906,-1.3281 -1.7109,-0.88281 -3.2656,-2.2539 -4.6719,-4.1094 V -7e-4 H 4.9058 v -44.312 h 10.188 z"
         id="path141" />
    </symbol>
    <symbol
       id="d-2"
       overflow="visible">
      <path
         d="m 5.3594,-42.516 h 10.953 v 16.203 h 16.188 v -16.203 h 10.969 V 0 H 32.5004 V -18.031 H 16.3124 V 0 H 5.3594 Z"
         id="path144" />
    </symbol>
    <symbol
       id="c-6"
       overflow="visible">
      <path
         d="m 4.9062,-44.312 h 10.188 v 24.125 l 11.734,-11.703 h 11.844 l -15.578,14.625 16.812,17.266 H 27.5472 L 15.0942,-13.296 V 0.001 H 4.9062 Z"
         id="path147" />
    </symbol>
    <symbol
       id="b-9"
       overflow="visible">
      <path
         d="m 4.9062,-31.891 h 10.188 V 0 H 4.9062 Z m 0,-12.422 h 10.188 v 8.3125 H 4.9062 Z"
         id="path150" />
    </symbol>
    <symbol
       id="a-4"
       overflow="visible">
      <path
         d="m 5.3594,-42.516 h 29.594 v 8.2812 h -18.641 v 7.9219 h 17.516 v 8.2812 H 16.3124 V -7e-4 H 5.3594 Z"
         id="path153" />
    </symbol>
    <symbol
       id="u-8"
       overflow="visible">
      <path
         d="m 18.766,-1.125 c -0.96875,0.5 -1.9805,0.875 -3.0312,1.125 -1.043,0.25781 -2.1367,0.39062 -3.2812,0.39062 -3.3984,0 -6.0898,-0.94531 -8.0781,-2.8438 -1.9922,-1.9062 -2.9844,-4.4844 -2.9844,-7.7344 0,-3.2578 0.99219,-5.8359 2.9844,-7.7344 1.9883,-1.9062 4.6797,-2.8594 8.0781,-2.8594 1.1445,0 2.2383,0.13281 3.2812,0.39062 1.0508,0.25 2.0625,0.625 3.0312,1.125 v 4.2188 c -0.98047,-0.65625 -1.9453,-1.1406 -2.8906,-1.4531 -0.94922,-0.3125 -1.9492,-0.46875 -3,-0.46875 -1.875,0 -3.3516,0.60547 -4.4219,1.8125 -1.0742,1.1992 -1.6094,2.8555 -1.6094,4.9688 0,2.1055 0.53516,3.7617 1.6094,4.9688 1.0703,1.1992 2.5469,1.7969 4.4219,1.7969 1.0508,0 2.0508,-0.14844 3,-0.45312 0.94531,-0.3125 1.9102,-0.80078 2.8906,-1.4688 z"
         id="path210" />
    </symbol>
    <symbol
       id="c-8"
       overflow="visible">
      <path
         d="m 13.734,-11.141 c -0.4375,-0.19531 -0.87109,-0.34375 -1.2969,-0.4375 -0.41797,-0.10156 -0.83984,-0.15625 -1.2656,-0.15625 -1.2617,0 -2.2305,0.40625 -2.9062,1.2188 -0.67969,0.80469 -1.0156,1.9531 -1.0156,3.4531 v 7.0625 H 2.3591 v -15.312 h 4.8906 v 2.5156 c 0.625,-1 1.3438,-1.7266 2.1562,-2.1875 0.82031,-0.46875 1.8008,-0.70312 2.9375,-0.70312 0.16406,0 0.34375,0.01172 0.53125,0.03125 0.19531,0.01172 0.47656,0.03906 0.84375,0.07813 z"
         id="path213" />
    </symbol>
    <symbol
       id="a-3"
       overflow="visible">
      <path
         d="m 17.641,-7.7031 v 1.4062 H 6.188 c 0.125,1.1484 0.53906,2.0078 1.25,2.5781 0.70703,0.57422 1.7031,0.85938 2.9844,0.85938 1.0312,0 2.082,-0.14844 3.1562,-0.45312 1.082,-0.3125 2.1914,-0.77344 3.3281,-1.3906 v 3.7656 c -1.1562,0.4375 -2.3125,0.76562 -3.4688,0.98438 -1.1562,0.22656 -2.3125,0.34375 -3.4688,0.34375 -2.7734,0 -4.9297,-0.70312 -6.4688,-2.1094 -1.5312,-1.4062 -2.2969,-3.3789 -2.2969,-5.9219 0,-2.5 0.75391,-4.4609 2.2656,-5.8906 1.5078,-1.4375 3.582,-2.1562 6.2188,-2.1562 2.4062,0 4.332,0.73047 5.7812,2.1875 1.4453,1.4492 2.1719,3.3828 2.1719,5.7969 z m -5.0312,-1.625 c 0,-0.92578 -0.27344,-1.6719 -0.8125,-2.2344 -0.54297,-0.57031 -1.25,-0.85938 -2.125,-0.85938 -0.94922,0 -1.7188,0.26562 -2.3125,0.79688 -0.5937,0.53126 -0.96484,1.2969 -1.1094,2.2969 z"
         id="path216" />
    </symbol>
    <symbol
       id="i-8"
       overflow="visible">
      <path
         d="m 9.2188,-6.8906 c -1.0234,0 -1.793,0.17188 -2.3125,0.51562 -0.51172,0.34375 -0.76562,0.85547 -0.76562,1.5312 0,0.625 0.20703,1.1172 0.625,1.4688 0.41406,0.34375 0.98828,0.51562 1.7188,0.51562 0.92578,0 1.7031,-0.32812 2.3281,-0.98438 0.63281,-0.66406 0.95312,-1.4922 0.95312,-2.4844 v -0.5625 z m 7.4688,-1.8438 V 0 h -4.9219 v -2.2656 c -0.65625,0.92969 -1.3984,1.6055 -2.2188,2.0312 -0.82422,0.41406 -1.8242,0.625 -3,0.625 -1.5859,0 -2.8711,-0.45703 -3.8594,-1.375 -0.99219,-0.92578 -1.4844,-2.1289 -1.4844,-3.6094 0,-1.7891 0.61328,-3.1016 1.8438,-3.9375 1.2383,-0.84375 3.1797,-1.2656 5.8281,-1.2656 h 2.8906 v -0.39062 c 0,-0.76953 -0.30859,-1.332 -0.92188,-1.6875 -0.61719,-0.36328 -1.5703,-0.54688 -2.8594,-0.54688 -1.0547,0 -2.0312,0.10547 -2.9375,0.3125 -0.89844,0.21094 -1.7305,0.52344 -2.5,0.9375 v -3.7344 c 1.0391,-0.25 2.0859,-0.44141 3.1406,-0.57812 1.0625,-0.13281 2.125,-0.20312 3.1875,-0.20312 2.7578,0 4.75,0.54688 5.9688,1.6406 1.2266,1.0859 1.8438,2.8555 1.8438,5.3125 z"
         id="path219" />
    </symbol>
    <symbol
       id="b-1"
       overflow="visible">
      <path
         d="m 7.7031,-19.656 v 4.3438 H 12.75 v 3.5 H 7.7031 v 6.5 c 0,0.71094 0.14062,1.1875 0.42188,1.4375 0.28126,0.25 0.83594,0.375 1.6719,0.375 h 2.5156 v 3.5 h -4.1875 c -1.9375,0 -3.3125,-0.39844 -4.125,-1.2031 -0.80469,-0.8125 -1.2031,-2.1797 -1.2031,-4.1094 v -6.5 h -2.4219 v -3.5 h 2.4219 v -4.3438 z"
         id="path222" />
    </symbol>
    <symbol
       id="h-53"
       overflow="visible">
      <path
         d="m 12.766,-13.078 v -8.2031 h 4.9219 V -1e-4 H 12.766 v -2.2188 c -0.66797,0.90625 -1.4062,1.5703 -2.2188,1.9844 -0.8126,0.4141 -1.7578,0.625 -2.8281,0.625 -1.8867,0 -3.4336,-0.75 -4.6406,-2.25 -1.2109,-1.5 -1.8125,-3.4258 -1.8125,-5.7812 0,-2.3633 0.60156,-4.2969 1.8125,-5.7969 1.207,-1.5 2.7539,-2.25 4.6406,-2.25 1.0625,0 2,0.21484 2.8125,0.64062 0.82031,0.42969 1.5664,1.0859 2.2344,1.9688 z m -3.2188,9.9219 c 1.0391,0 1.8359,-0.37891 2.3906,-1.1406 0.55078,-0.76953 0.82812,-1.8828 0.82812,-3.3438 0,-1.457 -0.27734,-2.5664 -0.82812,-3.3281 -0.55469,-0.76953 -1.3516,-1.1562 -2.3906,-1.1562 -1.043,0 -1.8398,0.38672 -2.3906,1.1562 -0.55469,0.76172 -0.82812,1.8711 -0.82812,3.3281 0,1.4609 0.27344,2.5742 0.82812,3.3438 0.55078,0.76172 1.3477,1.1406 2.3906,1.1406 z"
         id="path225" />
    </symbol>
    <symbol
       id="g-5"
       overflow="visible">
      <path
         d="m 10.5,-3.1562 c 1.0508,0 1.8516,-0.37891 2.4062,-1.1406 0.55078,-0.76953 0.82812,-1.8828 0.82812,-3.3438 0,-1.457 -0.27734,-2.5664 -0.82812,-3.3281 -0.55469,-0.76953 -1.3555,-1.1562 -2.4062,-1.1562 -1.0547,0 -1.8594,0.38672 -2.4219,1.1562 -0.55469,0.77344 -0.82812,1.8828 -0.82812,3.3281 0,1.4492 0.27344,2.5586 0.82812,3.3281 0.5625,0.77344 1.3672,1.1562 2.4219,1.1562 z m -3.25,-9.9219 c 0.67578,-0.88281 1.4219,-1.5391 2.2344,-1.9688 0.82031,-0.42578 1.7656,-0.64062 2.8281,-0.64062 1.8945,0 3.4453,0.75 4.6562,2.25 1.207,1.5 1.8125,3.4336 1.8125,5.7969 0,2.3555 -0.60547,4.2812 -1.8125,5.7812 -1.2109,1.5 -2.7617,2.25 -4.6562,2.25 -1.0625,0 -2.0078,-0.21094 -2.8281,-0.625 C 8.6719,-0.6602 7.9258,-1.32032 7.25,-2.21882 V -2e-5 H 2.3594 v -21.281 H 7.25 Z"
         id="path228" />
    </symbol>
    <symbol
       id="f-4"
       overflow="visible">
      <path
         d="m 0.34375,-15.312 h 4.8906 l 4.125,10.391 3.5,-10.391 h 4.8906 l -6.4375,16.766 c -0.64844,1.6953 -1.4023,2.8828 -2.2656,3.5625 -0.86719,0.6875 -2,1.0312 -3.4062,1.0312 H 2.79685 V 2.8289 h 1.5312 c 0.83203,0 1.4375,-0.13672 1.8125,-0.40625 C 6.52336,2.16093 6.82024,1.69218 7.03117,1.01645 L 7.17179,0.59457 Z"
         id="path231" />
    </symbol>
    <symbol
       id="e-36"
       overflow="visible">
      <path
         d="m 7.8281,-16.438 v 12.453 h 1.8906 c 2.1562,0 3.8008,-0.53125 4.9375,-1.5938 1.1328,-1.0625 1.7031,-2.6133 1.7031,-4.6562 0,-2.0195 -0.57031,-3.5547 -1.7031,-4.6094 -1.125,-1.0625 -2.7734,-1.5938 -4.9375,-1.5938 z m -5.25,-3.9688 H 8.125 c 3.0938,0 5.3984,0.21875 6.9219,0.65625 1.5195,0.4375 2.8203,1.1875 3.9062,2.25 0.95703,0.91797 1.6641,1.9805 2.125,3.1875 0.46875,1.1992 0.70312,2.5586 0.70312,4.0781 0,1.543 -0.23438,2.918 -0.70312,4.125 -0.46094,1.2109 -1.168,2.2773 -2.125,3.2031 -1.0938,1.0547 -2.4062,1.8047 -3.9375,2.25 C 13.4844,-0.21935 11.1875,-6e-4 8.125,-6e-4 H 2.5781 Z"
         id="path234" />
    </symbol>
    <symbol
       id="t-5"
       overflow="visible">
      <path
         d="M 7.25,-2.2188 V 5.8281 H 2.3594 v -21.141 H 7.25 v 2.2344 c 0.67578,-0.88281 1.4219,-1.5391 2.2344,-1.9688 0.82031,-0.42578 1.7656,-0.64062 2.8281,-0.64062 1.8945,0 3.4453,0.75 4.6562,2.25 1.207,1.5 1.8125,3.4336 1.8125,5.7969 0,2.3555 -0.60547,4.2812 -1.8125,5.7812 -1.2109,1.5 -2.7617,2.25 -4.6562,2.25 -1.0625,0 -2.0078,-0.21094 -2.8281,-0.625 C 8.6719,-0.6606 7.9258,-1.32072 7.25,-2.21922 Z m 3.25,-9.9062 c -1.0547,0 -1.8594,0.38672 -2.4219,1.1562 -0.55469,0.77344 -0.82812,1.8828 -0.82812,3.3281 0,1.4492 0.27344,2.5586 0.82812,3.3281 0.5625,0.77344 1.3672,1.1562 2.4219,1.1562 1.0508,0 1.8516,-0.37891 2.4062,-1.1406 0.55078,-0.76953 0.82812,-1.8828 0.82812,-3.3438 0,-1.457 -0.27734,-2.5664 -0.82812,-3.3281 -0.55469,-0.76953 -1.3555,-1.1562 -2.4062,-1.1562 z"
         id="path237" />
    </symbol>
    <symbol
       id="s-9"
       overflow="visible">
      <path
         d="m 1.5938,-15.312 h 13.359 v 3.4219 l -8.0625,8.3906 h 8.0625 v 3.5 H 1.2648 V -3.4214 L 9.3273,-11.812 H 1.5929 Z"
         id="path240" />
    </symbol>
    <symbol
       id="r-54"
       overflow="visible">
      <path
         d="m 12.422,-21.281 v 3.2188 H 9.7189 c -0.6875,0 -1.1719,0.125 -1.4531,0.375 -0.27344,0.25 -0.40625,0.6875 -0.40625,1.3125 v 1.0625 h 4.1875 v 3.5 H 7.85955 V -2e-4 h -4.8906 v -11.812 h -2.4375 v -3.5 h 2.4375 v -1.0625 c 0,-1.6641 0.46094,-2.8984 1.3906,-3.7031 0.92578,-0.80078 2.3672,-1.2031 4.3281,-1.2031 z"
         id="path243" />
    </symbol>
    <symbol
       id="d-9"
       overflow="visible">
      <path
         d="m 9.6406,-12.188 c -1.0859,0 -1.9141,0.39062 -2.4844,1.1719 -0.57422,0.78125 -0.85938,1.9062 -0.85938,3.375 0,1.4688 0.28516,2.5938 0.85938,3.375 0.57031,0.77344 1.3984,1.1562 2.4844,1.1562 1.0625,0 1.875,-0.38281 2.4375,-1.1562 0.57031,-0.78125 0.85938,-1.9062 0.85938,-3.375 0,-1.4688 -0.28906,-2.5938 -0.85938,-3.375 -0.5625,-0.78125 -1.375,-1.1719 -2.4375,-1.1719 z m 0,-3.5 c 2.6328,0 4.6914,0.71484 6.1719,2.1406 1.4766,1.418 2.2188,3.3867 2.2188,5.9062 0,2.5117 -0.74219,4.4805 -2.2188,5.9062 C 14.332,-0.317 12.2734,0.39 9.6406,0.39 6.9922,0.39 4.9258,-0.31703 3.4375,-1.735 1.9453,-3.1608 1.2031,-5.1295 1.2031,-7.6412 c 0,-2.5195 0.74219,-4.4883 2.2344,-5.9062 1.4883,-1.4258 3.5547,-2.1406 6.2031,-2.1406 z"
         id="path246" />
    </symbol>
    <symbol
       id="q-1"
       overflow="visible">
      <path
         d="m 16.547,-12.766 c 0.61328,-0.94531 1.3477,-1.6719 2.2031,-2.1719 0.85156,-0.5 1.7891,-0.75 2.8125,-0.75 1.7578,0 3.0977,0.54688 4.0156,1.6406 0.92578,1.0859 1.3906,2.6562 1.3906,4.7188 V -4e-4 h -4.9219 v -7.9844 -0.35938 c 0.0078,-0.13281 0.01563,-0.32031 0.01563,-0.5625 0,-1.082 -0.16406,-1.8633 -0.48438,-2.3438 -0.3125,-0.48828 -0.82422,-0.73438 -1.5312,-0.73438 -0.92969,0 -1.6484,0.38672 -2.1562,1.1562 -0.51172,0.76172 -0.77344,1.8672 -0.78125,3.3125 v 7.5156 h -4.9219 v -7.9844 c 0,-1.6953 -0.14844,-2.7852 -0.4375,-3.2656 -0.29297,-0.48828 -0.8125,-0.73438 -1.5625,-0.73438 -0.9375,0 -1.6641,0.38672 -2.1719,1.1562 -0.51172,0.76172 -0.76562,1.8594 -0.76562,3.2969 v 7.5312 h -4.9219 v -15.312 h 4.9219 v 2.2344 c 0.60156,-0.86328 1.2891,-1.5156 2.0625,-1.9531 0.78125,-0.4375 1.6406,-0.65625 2.5781,-0.65625 1.0625,0 2,0.25781 2.8125,0.76562 0.8125,0.51172 1.4258,1.2305 1.8438,2.1562 z"
         id="path249" />
    </symbol>
    <symbol
       id="p-7"
       overflow="visible">
      <path
         d="M 17.75,-9.3281 V 0 h -4.9219 v -7.1094 c 0,-1.3438 -0.03125,-2.2656 -0.09375,-2.7656 -0.0625,-0.5 -0.16797,-0.86719 -0.3125,-1.1094 -0.1875,-0.3125 -0.44922,-0.55469 -0.78125,-0.73438 -0.32422,-0.17578 -0.69531,-0.26562 -1.1094,-0.26562 -1.0234,0 -1.8242,0.39844 -2.4062,1.1875 -0.58594,0.78125 -0.875,1.8711 -0.875,3.2656 V -1e-4 H 2.3594 v -21.281 H 7.25 v 8.2031 c 0.73828,-0.88281 1.5195,-1.5391 2.3438,-1.9688 0.83203,-0.42578 1.75,-0.64062 2.75,-0.64062 1.7695,0 3.1133,0.54688 4.0312,1.6406 0.91406,1.0859 1.375,2.6562 1.375,4.7188 z"
         id="path252" />
    </symbol>
    <symbol
       id="o-5"
       overflow="visible">
      <path
         d="m 2.5781,-20.406 h 5.875 l 7.4219,14 v -14 h 4.9844 V 0 h -5.875 L 7.5625,-14 V 0 H 2.5781 Z"
         id="path255" />
    </symbol>
    <symbol
       id="n-5"
       overflow="visible">
      <path
         d="m 2.1875,-5.9688 v -9.3438 h 4.9219 v 1.5312 c 0,0.83594 -0.00781,1.875 -0.015625,3.125 -0.011719,1.25 -0.015625,2.0859 -0.015625,2.5 0,1.2422 0.03125,2.1328 0.09375,2.6719 0.070313,0.54297 0.17969,0.93359 0.32812,1.1719 0.20703,0.32422 0.47266,0.57422 0.79688,0.75 0.32031,0.16797 0.69141,0.25 1.1094,0.25 1.0195,0 1.8203,-0.39062 2.4062,-1.1719 0.58203,-0.78125 0.875,-1.8672 0.875,-3.2656 v -7.5625 h 4.8906 V -6e-4 H 12.6875 V -2.2194 C 11.94531,-1.32096 11.1641,-0.6608 10.3437,-0.235 9.51948,0.17906 8.6093,0.39 7.6093,0.39 5.8476,0.39 4.5038,-0.14906 3.5781,-1.235 2.64841,-2.317 2.1875,-3.8952 2.1875,-5.9694 Z"
         id="path258" />
    </symbol>
    <symbol
       id="m-4"
       overflow="visible">
      <path
         d="M 17.75,-9.3281 V 0 h -4.9219 v -7.1406 c 0,-1.3203 -0.03125,-2.2344 -0.09375,-2.7344 -0.0625,-0.5 -0.16797,-0.86719 -0.3125,-1.1094 -0.1875,-0.3125 -0.44922,-0.55469 -0.78125,-0.73438 -0.32422,-0.17578 -0.69531,-0.26562 -1.1094,-0.26562 -1.0234,0 -1.8242,0.39844 -2.4062,1.1875 -0.58594,0.78125 -0.875,1.8711 -0.875,3.2656 V -1e-4 H 2.3594 v -15.312 H 7.25 v 2.2344 c 0.73828,-0.88281 1.5195,-1.5391 2.3438,-1.9688 0.83203,-0.42578 1.75,-0.64062 2.75,-0.64062 1.7695,0 3.1133,0.54688 4.0312,1.6406 0.91406,1.0859 1.375,2.6562 1.375,4.7188 z"
         id="path261" />
    </symbol>
    <symbol
       id="l-18"
       overflow="visible">
      <path
         d="m 2.5781,-20.406 h 8.7344 c 2.5938,0 4.582,0.57812 5.9688,1.7344 1.3945,1.1484 2.0938,2.7891 2.0938,4.9219 0,2.1367 -0.69922,3.7812 -2.0938,4.9375 -1.3867,1.1562 -3.375,1.7344 -5.9688,1.7344 H 7.8281 V 3e-4 h -5.25 z m 5.25,3.8125 v 5.7031 H 10.75 c 1.0195,0 1.8047,-0.25 2.3594,-0.75 0.5625,-0.5 0.84375,-1.2031 0.84375,-2.1094 0,-0.91406 -0.28125,-1.6172 -0.84375,-2.1094 -0.55469,-0.48828 -1.3398,-0.73438 -2.3594,-0.73438 z"
         id="path264" />
    </symbol>
    <symbol
       id="k-8"
       overflow="visible">
      <path
         d="M 2.3594,-15.312 H 7.25 v 15.031 c 0,2.0508 -0.49609,3.6172 -1.4844,4.7031 -0.98047,1.082 -2.4062,1.625 -4.2812,1.625 H -0.9375 V 2.8283 h 0.85938 c 0.92578,0 1.5625,-0.21094 1.9062,-0.625 0.35156,-0.41797 0.53125,-1.2461 0.53125,-2.4844 z m 0,-5.9688 H 7.25 v 4 H 2.3594 Z"
         id="path267" />
    </symbol>
    <symbol
       id="j-3"
       overflow="visible">
      <path
         d="m 14.719,-14.828 v 3.9844 c -0.65625,-0.45703 -1.3242,-0.79688 -2,-1.0156 -0.66797,-0.21875 -1.3594,-0.32812 -2.0781,-0.32812 -1.3672,0 -2.4336,0.40234 -3.2031,1.2031 -0.76172,0.79297 -1.1406,1.9062 -1.1406,3.3438 0,1.4297 0.37891,2.543 1.1406,3.3438 0.76953,0.79297 1.8359,1.1875 3.2031,1.1875 0.75781,0 1.4844,-0.10938 2.1719,-0.32812 0.6875,-0.22656 1.3203,-0.56641 1.9062,-1.0156 v 4 c -0.76172,0.28125 -1.5391,0.48828 -2.3281,0.625 -0.78125,0.14453 -1.5742,0.21875 -2.375,0.21875 -2.7617,0 -4.9219,-0.70703 -6.4844,-2.125 -1.5547,-1.4141 -2.3281,-3.3828 -2.3281,-5.9062 0,-2.5312 0.77344,-4.5039 2.3281,-5.9219 1.5625,-1.4141 3.7227,-2.125 6.4844,-2.125 0.80078,0 1.5938,0.07422 2.375,0.21875 0.78125,0.13672 1.5547,0.35156 2.3281,0.64062 z"
         id="path270" />
    </symbol>
    <symbol
       id="v"
       overflow="visible">
      <path
         d="m 18.766,-1.125 c -0.96875,0.5 -1.9805,0.875 -3.0312,1.125 -1.043,0.25781 -2.1367,0.39062 -3.2812,0.39062 -3.3984,0 -6.0898,-0.94531 -8.0781,-2.8438 -1.9922,-1.9062 -2.9844,-4.4844 -2.9844,-7.7344 0,-3.2578 0.99219,-5.8359 2.9844,-7.7344 1.9883,-1.9062 4.6797,-2.8594 8.0781,-2.8594 1.1445,0 2.2383,0.13281 3.2812,0.39062 1.0508,0.25 2.0625,0.625 3.0312,1.125 v 4.2188 c -0.98047,-0.65625 -1.9453,-1.1406 -2.8906,-1.4531 -0.94922,-0.3125 -1.9492,-0.46875 -3,-0.46875 -1.875,0 -3.3516,0.60547 -4.4219,1.8125 -1.0742,1.1992 -1.6094,2.8555 -1.6094,4.9688 0,2.1055 0.53516,3.7617 1.6094,4.9688 1.0703,1.1992 2.5469,1.7969 4.4219,1.7969 1.0508,0 2.0508,-0.14844 3,-0.45312 0.94531,-0.3125 1.9102,-0.80078 2.8906,-1.4688 z"
         id="path333-2" />
    </symbol>
    <symbol
       id="d-3"
       overflow="visible">
      <path
         d="m 13.734,-11.141 c -0.4375,-0.19531 -0.87109,-0.34375 -1.2969,-0.4375 -0.41797,-0.10156 -0.83984,-0.15625 -1.2656,-0.15625 -1.2617,0 -2.2305,0.40625 -2.9062,1.2188 -0.67969,0.80469 -1.0156,1.9531 -1.0156,3.4531 v 7.0625 H 2.3591 v -15.312 h 4.8906 v 2.5156 c 0.625,-1 1.3438,-1.7266 2.1562,-2.1875 0.82031,-0.46875 1.8008,-0.70312 2.9375,-0.70312 0.16406,0 0.34375,0.01172 0.53125,0.03125 0.19531,0.01172 0.47656,0.03906 0.84375,0.07813 z"
         id="path336-7" />
    </symbol>
    <symbol
       id="a-1"
       overflow="visible">
      <path
         d="m 17.641,-7.7031 v 1.4062 H 6.188 c 0.125,1.1484 0.53906,2.0078 1.25,2.5781 0.70703,0.57422 1.7031,0.85938 2.9844,0.85938 1.0312,0 2.082,-0.14844 3.1562,-0.45312 1.082,-0.3125 2.1914,-0.77344 3.3281,-1.3906 v 3.7656 c -1.1562,0.4375 -2.3125,0.76562 -3.4688,0.98438 -1.1562,0.22656 -2.3125,0.34375 -3.4688,0.34375 -2.7734,0 -4.9297,-0.70312 -6.4688,-2.1094 -1.5312,-1.4062 -2.2969,-3.3789 -2.2969,-5.9219 0,-2.5 0.75391,-4.4609 2.2656,-5.8906 1.5078,-1.4375 3.582,-2.1562 6.2188,-2.1562 2.4062,0 4.332,0.73047 5.7812,2.1875 1.4453,1.4492 2.1719,3.3828 2.1719,5.7969 z m -5.0312,-1.625 c 0,-0.92578 -0.27344,-1.6719 -0.8125,-2.2344 -0.54297,-0.57031 -1.25,-0.85938 -2.125,-0.85938 -0.94922,0 -1.7188,0.26562 -2.3125,0.79688 -0.5937,0.53126 -0.96484,1.2969 -1.1094,2.2969 z"
         id="path339-8" />
    </symbol>
    <symbol
       id="m-9"
       overflow="visible">
      <path
         d="m 9.2188,-6.8906 c -1.0234,0 -1.793,0.17188 -2.3125,0.51562 -0.51172,0.34375 -0.76562,0.85547 -0.76562,1.5312 0,0.625 0.20703,1.1172 0.625,1.4688 0.41406,0.34375 0.98828,0.51562 1.7188,0.51562 0.92578,0 1.7031,-0.32812 2.3281,-0.98438 0.63281,-0.66406 0.95312,-1.4922 0.95312,-2.4844 v -0.5625 z m 7.4688,-1.8438 V 0 h -4.9219 v -2.2656 c -0.65625,0.92969 -1.3984,1.6055 -2.2188,2.0312 -0.82422,0.41406 -1.8242,0.625 -3,0.625 -1.5859,0 -2.8711,-0.45703 -3.8594,-1.375 -0.99219,-0.92578 -1.4844,-2.1289 -1.4844,-3.6094 0,-1.7891 0.61328,-3.1016 1.8438,-3.9375 1.2383,-0.84375 3.1797,-1.2656 5.8281,-1.2656 h 2.8906 v -0.39062 c 0,-0.76953 -0.30859,-1.332 -0.92188,-1.6875 -0.61719,-0.36328 -1.5703,-0.54688 -2.8594,-0.54688 -1.0547,0 -2.0312,0.10547 -2.9375,0.3125 -0.89844,0.21094 -1.7305,0.52344 -2.5,0.9375 v -3.7344 c 1.0391,-0.25 2.0859,-0.44141 3.1406,-0.57812 1.0625,-0.13281 2.125,-0.20312 3.1875,-0.20312 2.7578,0 4.75,0.54688 5.9688,1.6406 1.2266,1.0859 1.8438,2.8555 1.8438,5.3125 z"
         id="path342-3" />
    </symbol>
    <symbol
       id="c-7"
       overflow="visible">
      <path
         d="m 7.7031,-19.656 v 4.3438 H 12.75 v 3.5 H 7.7031 v 6.5 c 0,0.71094 0.14062,1.1875 0.42188,1.4375 0.28126,0.25 0.83594,0.375 1.6719,0.375 h 2.5156 v 3.5 h -4.1875 c -1.9375,0 -3.3125,-0.39844 -4.125,-1.2031 -0.80469,-0.8125 -1.2031,-2.1797 -1.2031,-4.1094 v -6.5 h -2.4219 v -3.5 h 2.4219 v -4.3438 z"
         id="path345-4" />
    </symbol>
    <symbol
       id="l-8"
       overflow="visible">
      <path
         d="m 12.766,-13.078 v -8.2031 h 4.9219 V -10e-5 H 12.766 v -2.2188 c -0.66797,0.90625 -1.4062,1.5703 -2.2188,1.9844 -0.8126,0.4141 -1.7578,0.625 -2.8281,0.625 -1.8867,0 -3.4336,-0.75 -4.6406,-2.25 -1.2109,-1.5 -1.8125,-3.4258 -1.8125,-5.7812 0,-2.3633 0.60156,-4.2969 1.8125,-5.7969 1.207,-1.5 2.7539,-2.25 4.6406,-2.25 1.0625,0 2,0.21484 2.8125,0.64062 0.82031,0.42969 1.5664,1.0859 2.2344,1.9688 z m -3.2188,9.9219 c 1.0391,0 1.8359,-0.37891 2.3906,-1.1406 0.55078,-0.76953 0.82812,-1.8828 0.82812,-3.3438 0,-1.457 -0.27734,-2.5664 -0.82812,-3.3281 -0.55469,-0.76953 -1.3516,-1.1562 -2.3906,-1.1562 -1.043,0 -1.8398,0.38672 -2.3906,1.1562 -0.55469,0.76172 -0.82812,1.8711 -0.82812,3.3281 0,1.4609 0.27344,2.5742 0.82812,3.3438 0.55078,0.76172 1.3477,1.1406 2.3906,1.1406 z"
         id="path348-0" />
    </symbol>
    <symbol
       id="k-4"
       overflow="visible">
      <path
         d="m 10.5,-3.1562 c 1.0508,0 1.8516,-0.37891 2.4062,-1.1406 0.55078,-0.76953 0.82812,-1.8828 0.82812,-3.3438 0,-1.457 -0.27734,-2.5664 -0.82812,-3.3281 -0.55469,-0.76953 -1.3555,-1.1562 -2.4062,-1.1562 -1.0547,0 -1.8594,0.38672 -2.4219,1.1562 -0.55469,0.77344 -0.82812,1.8828 -0.82812,3.3281 0,1.4492 0.27344,2.5586 0.82812,3.3281 0.5625,0.77344 1.3672,1.1562 2.4219,1.1562 z m -3.25,-9.9219 c 0.67578,-0.88281 1.4219,-1.5391 2.2344,-1.9688 0.82031,-0.42578 1.7656,-0.64062 2.8281,-0.64062 1.8945,0 3.4453,0.75 4.6562,2.25 1.207,1.5 1.8125,3.4336 1.8125,5.7969 0,2.3555 -0.60547,4.2812 -1.8125,5.7812 -1.2109,1.5 -2.7617,2.25 -4.6562,2.25 -1.0625,0 -2.0078,-0.21094 -2.8281,-0.625 C 8.6719,-0.6602 7.9258,-1.32032 7.25,-2.21882 V -2e-5 H 2.3594 v -21.281 H 7.25 Z"
         id="path351-0" />
    </symbol>
    <symbol
       id="j-57"
       overflow="visible">
      <path
         d="m 0.34375,-15.312 h 4.8906 l 4.125,10.391 3.5,-10.391 h 4.8906 l -6.4375,16.766 c -0.64844,1.6953 -1.4023,2.8828 -2.2656,3.5625 -0.86719,0.6875 -2,1.0312 -3.4062,1.0312 H 2.79685 V 2.8289 h 1.5312 c 0.83203,0 1.4375,-0.13672 1.8125,-0.40625 C 6.52336,2.16093 6.82024,1.69218 7.03117,1.01645 L 7.17179,0.59457 Z"
         id="path354-0" />
    </symbol>
    <symbol
       id="i-0"
       overflow="visible">
      <path
         d="m 20.922,-1.5156 c -1.3125,0.63672 -2.6797,1.1172 -4.0938,1.4375 -1.4062,0.3125 -2.8672,0.46875 -4.375,0.46875 -3.3984,0 -6.0898,-0.94531 -8.0781,-2.8438 -1.9922,-1.9062 -2.9844,-4.4844 -2.9844,-7.7344 0,-3.2891 1.0078,-5.8789 3.0312,-7.7656 2.0312,-1.8828 4.8047,-2.8281 8.3281,-2.8281 1.3516,0 2.6484,0.13281 3.8906,0.39062 1.25,0.25 2.4258,0.625 3.5312,1.125 v 4.2188 c -1.1484,-0.64453 -2.2812,-1.125 -3.4062,-1.4375 -1.125,-0.32031 -2.25,-0.48438 -3.375,-0.48438 -2.1055,0 -3.7266,0.58984 -4.8594,1.7656 -1.125,1.168 -1.6875,2.8398 -1.6875,5.0156 0,2.1562 0.54688,3.8242 1.6406,5 1.0938,1.1797 2.6445,1.7656 4.6562,1.7656 0.53906,0 1.0469,-0.03125 1.5156,-0.09375 0.47656,-0.070313 0.89844,-0.17969 1.2656,-0.32812 v -3.9688 h -3.2031 v -3.5156 h 8.2031 z"
         id="path357-5" />
    </symbol>
    <symbol
       id="e-6"
       overflow="visible">
      <path
         d="M 17.75,-9.3281 V 0 h -4.9219 v -7.1406 c 0,-1.3203 -0.03125,-2.2344 -0.09375,-2.7344 -0.0625,-0.5 -0.16797,-0.86719 -0.3125,-1.1094 -0.1875,-0.3125 -0.44922,-0.55469 -0.78125,-0.73438 -0.32422,-0.17578 -0.69531,-0.26562 -1.1094,-0.26562 -1.0234,0 -1.8242,0.39844 -2.4062,1.1875 -0.58594,0.78125 -0.875,1.8711 -0.875,3.2656 V -1e-4 H 2.3594 v -15.312 H 7.25 v 2.2344 c 0.73828,-0.88281 1.5195,-1.5391 2.3438,-1.9688 0.83203,-0.42578 1.75,-0.64062 2.75,-0.64062 1.7695,0 3.1133,0.54688 4.0312,1.6406 0.91406,1.0859 1.375,2.6562 1.375,4.7188 z"
         id="path360-7" />
    </symbol>
    <symbol
       id="u-80"
       overflow="visible">
      <path
         d="M 2.3594,-15.312 H 7.25 V 0 H 2.3594 Z m 0,-5.9688 H 7.25 v 4 H 2.3594 Z"
         id="path363" />
    </symbol>
    <symbol
       id="h-6"
       overflow="visible">
      <path
         d="m 2.1875,-5.9688 v -9.3438 h 4.9219 v 1.5312 c 0,0.83594 -0.00781,1.875 -0.015625,3.125 -0.011719,1.25 -0.015625,2.0859 -0.015625,2.5 0,1.2422 0.03125,2.1328 0.09375,2.6719 0.070313,0.54297 0.17969,0.93359 0.32812,1.1719 0.20703,0.32422 0.47266,0.57422 0.79688,0.75 0.32031,0.16797 0.69141,0.25 1.1094,0.25 1.0195,0 1.8203,-0.39062 2.4062,-1.1719 0.58203,-0.78125 0.875,-1.8672 0.875,-3.2656 v -7.5625 h 4.8906 V -6e-4 H 12.6875 V -2.2194 C 11.94531,-1.32096 11.1641,-0.6608 10.3437,-0.235 9.51948,0.17906 8.6093,0.39 7.6093,0.39 5.8476,0.39 4.5038,-0.14906 3.5781,-1.235 2.64841,-2.317 2.1875,-3.8952 2.1875,-5.9694 Z"
         id="path366" />
    </symbol>
    <symbol
       id="g-57"
       overflow="visible">
      <path
         d="m 14.312,-14.828 v 3.7188 c -1.043,-0.4375 -2.0547,-0.76562 -3.0312,-0.98438 -0.98047,-0.21875 -1.9023,-0.32812 -2.7656,-0.32812 -0.92969,0 -1.6211,0.11719 -2.0781,0.34375 -0.44922,0.23047 -0.67188,0.58984 -0.67188,1.0781 0,0.38672 0.17188,0.68359 0.51562,0.89062 0.34375,0.21094 0.95703,0.36719 1.8438,0.46875 l 0.85938,0.125 c 2.5078,0.32422 4.1953,0.85156 5.0625,1.5781 0.86328,0.73047 1.2969,1.8711 1.2969,3.4219 0,1.6367 -0.60547,2.8672 -1.8125,3.6875 -1.1992,0.8125 -2.9922,1.2188 -5.375,1.2188 -1.0234,0 -2.0742,-0.078125 -3.1562,-0.23438 -1.0742,-0.15625 -2.1797,-0.39453 -3.3125,-0.71875 v -3.7188 c 0.96875,0.48047 1.9609,0.83984 2.9844,1.0781 1.0312,0.23047 2.0781,0.34375 3.1406,0.34375 0.95703,0 1.6758,-0.12891 2.1562,-0.39062 0.47656,-0.26953 0.71875,-0.66406 0.71875,-1.1875 0,-0.4375 -0.16797,-0.75781 -0.5,-0.96875 -0.33594,-0.21875 -0.99609,-0.38281 -1.9844,-0.5 L 7.34339,-6.01551 c -2.1797,-0.26953 -3.7031,-0.77344 -4.5781,-1.5156 -0.875,-0.73828 -1.3125,-1.8594 -1.3125,-3.3594 0,-1.625 0.55078,-2.8281 1.6562,-3.6094 1.1133,-0.78906 2.8203,-1.1875 5.125,-1.1875 0.89453,0 1.8359,0.07422 2.8281,0.21875 1,0.13672 2.082,0.35156 3.25,0.64062 z"
         id="path369" />
    </symbol>
    <symbol
       id="t-3"
       overflow="visible">
      <path
         d="m 2.5781,-20.406 h 5.25 V 0 h -5.25 z"
         id="path372" />
    </symbol>
    <symbol
       id="f-43"
       overflow="visible">
      <path
         d="m 14.719,-14.828 v 3.9844 c -0.65625,-0.45703 -1.3242,-0.79688 -2,-1.0156 -0.66797,-0.21875 -1.3594,-0.32812 -2.0781,-0.32812 -1.3672,0 -2.4336,0.40234 -3.2031,1.2031 -0.76172,0.79297 -1.1406,1.9062 -1.1406,3.3438 0,1.4297 0.37891,2.543 1.1406,3.3438 0.76953,0.79297 1.8359,1.1875 3.2031,1.1875 0.75781,0 1.4844,-0.10938 2.1719,-0.32812 0.6875,-0.22656 1.3203,-0.56641 1.9062,-1.0156 v 4 c -0.76172,0.28125 -1.5391,0.48828 -2.3281,0.625 -0.78125,0.14453 -1.5742,0.21875 -2.375,0.21875 -2.7617,0 -4.9219,-0.70703 -6.4844,-2.125 -1.5547,-1.4141 -2.3281,-3.3828 -2.3281,-5.9062 0,-2.5312 0.77344,-4.5039 2.3281,-5.9219 1.5625,-1.4141 3.7227,-2.125 6.4844,-2.125 0.80078,0 1.5938,0.07422 2.375,0.21875 0.78125,0.13672 1.5547,0.35156 2.3281,0.64062 z"
         id="path375" />
    </symbol>
    <symbol
       id="b-0"
       overflow="visible">
      <path
         d="m 9.6406,-12.188 c -1.0859,0 -1.9141,0.39062 -2.4844,1.1719 -0.57422,0.78125 -0.85938,1.9062 -0.85938,3.375 0,1.4688 0.28516,2.5938 0.85938,3.375 0.57031,0.77344 1.3984,1.1562 2.4844,1.1562 1.0625,0 1.875,-0.38281 2.4375,-1.1562 0.57031,-0.78125 0.85938,-1.9062 0.85938,-3.375 0,-1.4688 -0.28906,-2.5938 -0.85938,-3.375 -0.5625,-0.78125 -1.375,-1.1719 -2.4375,-1.1719 z m 0,-3.5 c 2.6328,0 4.6914,0.71484 6.1719,2.1406 1.4766,1.418 2.2188,3.3867 2.2188,5.9062 0,2.5117 -0.74219,4.4805 -2.2188,5.9062 C 14.332,-0.317 12.2734,0.39 9.6406,0.39 6.9922,0.39 4.9258,-0.31703 3.4375,-1.735 1.9453,-3.1608 1.2031,-5.1295 1.2031,-7.6412 c 0,-2.5195 0.74219,-4.4883 2.2344,-5.9062 1.4883,-1.4258 3.5547,-2.1406 6.2031,-2.1406 z"
         id="path378" />
    </symbol>
    <symbol
       id="s-4"
       overflow="visible">
      <path
         d="m 12.422,-21.281 v 3.2188 H 9.7189 c -0.6875,0 -1.1719,0.125 -1.4531,0.375 -0.27344,0.25 -0.40625,0.6875 -0.40625,1.3125 v 1.0625 h 4.1875 v 3.5 H 7.85955 V -2e-4 h -4.8906 v -11.812 h -2.4375 v -3.5 h 2.4375 v -1.0625 c 0,-1.6641 0.46094,-2.8984 1.3906,-3.7031 0.92578,-0.80078 2.3672,-1.2031 4.3281,-1.2031 z"
         id="path381" />
    </symbol>
    <symbol
       id="r-8"
       overflow="visible">
      <path
         d="m 16.547,-12.766 c 0.61328,-0.94531 1.3477,-1.6719 2.2031,-2.1719 0.85156,-0.5 1.7891,-0.75 2.8125,-0.75 1.7578,0 3.0977,0.54688 4.0156,1.6406 0.92578,1.0859 1.3906,2.6562 1.3906,4.7188 V -4e-4 h -4.9219 v -7.9844 -0.35938 c 0.0078,-0.13281 0.01563,-0.32031 0.01563,-0.5625 0,-1.082 -0.16406,-1.8633 -0.48438,-2.3438 -0.3125,-0.48828 -0.82422,-0.73438 -1.5312,-0.73438 -0.92969,0 -1.6484,0.38672 -2.1562,1.1562 -0.51172,0.76172 -0.77344,1.8672 -0.78125,3.3125 v 7.5156 h -4.9219 v -7.9844 c 0,-1.6953 -0.14844,-2.7852 -0.4375,-3.2656 -0.29297,-0.48828 -0.8125,-0.73438 -1.5625,-0.73438 -0.9375,0 -1.6641,0.38672 -2.1719,1.1562 -0.51172,0.76172 -0.76562,1.8594 -0.76562,3.2969 v 7.5312 h -4.9219 v -15.312 h 4.9219 v 2.2344 c 0.60156,-0.86328 1.2891,-1.5156 2.0625,-1.9531 0.78125,-0.4375 1.6406,-0.65625 2.5781,-0.65625 1.0625,0 2,0.25781 2.8125,0.76562 0.8125,0.51172 1.4258,1.2305 1.8438,2.1562 z"
         id="path384" />
    </symbol>
    <symbol
       id="q-7"
       overflow="visible">
      <path
         d="M 17.75,-9.3281 V 0 h -4.9219 v -7.1094 c 0,-1.3438 -0.03125,-2.2656 -0.09375,-2.7656 -0.0625,-0.5 -0.16797,-0.86719 -0.3125,-1.1094 -0.1875,-0.3125 -0.44922,-0.55469 -0.78125,-0.73438 -0.32422,-0.17578 -0.69531,-0.26562 -1.1094,-0.26562 -1.0234,0 -1.8242,0.39844 -2.4062,1.1875 -0.58594,0.78125 -0.875,1.8711 -0.875,3.2656 V -1e-4 H 2.3594 v -21.281 H 7.25 v 8.2031 c 0.73828,-0.88281 1.5195,-1.5391 2.3438,-1.9688 0.83203,-0.42578 1.75,-0.64062 2.75,-0.64062 1.7695,0 3.1133,0.54688 4.0312,1.6406 0.91406,1.0859 1.375,2.6562 1.375,4.7188 z"
         id="path387" />
    </symbol>
    <symbol
       id="p-5"
       overflow="visible">
      <path
         d="m 2.5781,-20.406 h 5.875 l 7.4219,14 v -14 h 4.9844 V 0 h -5.875 L 7.5625,-14 V 0 H 2.5781 Z"
         id="path390" />
    </symbol>
    <symbol
       id="o-9"
       overflow="visible">
      <path
         d="m 2.5781,-20.406 h 8.7344 c 2.5938,0 4.582,0.57812 5.9688,1.7344 1.3945,1.1484 2.0938,2.7891 2.0938,4.9219 0,2.1367 -0.69922,3.7812 -2.0938,4.9375 -1.3867,1.1562 -3.375,1.7344 -5.9688,1.7344 H 7.8281 V 3e-4 h -5.25 z m 5.25,3.8125 v 5.7031 H 10.75 c 1.0195,0 1.8047,-0.25 2.3594,-0.75 0.5625,-0.5 0.84375,-1.2031 0.84375,-2.1094 0,-0.91406 -0.28125,-1.6172 -0.84375,-2.1094 -0.55469,-0.48828 -1.3398,-0.73438 -2.3594,-0.73438 z"
         id="path393" />
    </symbol>
    <symbol
       id="n-53"
       overflow="visible">
      <path
         d="M 2.3594,-15.312 H 7.25 v 15.031 c 0,2.0508 -0.49609,3.6172 -1.4844,4.7031 -0.98047,1.082 -2.4062,1.625 -4.2812,1.625 H -0.9375 V 2.8283 h 0.85938 c 0.92578,0 1.5625,-0.21094 1.9062,-0.625 0.35156,-0.41797 0.53125,-1.2461 0.53125,-2.4844 z m 0,-5.9688 H 7.25 v 4 H 2.3594 Z"
         id="path396" />
    </symbol>
  </defs>
  <sodipodi:namedview
     pagecolor="#ffffff"
     bordercolor="#666666"
     borderopacity="1"
     objecttolerance="10"
     gridtolerance="10"
     guidetolerance="10"
     inkscape:pageopacity="0"
     inkscape:pageshadow="2"
     inkscape:window-width="1280"
     inkscape:window-height="772"
     id="namedview22"
     showgrid="false"
     inkscape:zoom="0.54663589"
     inkscape:cx="56.760998"
     inkscape:cy="-131.56204"
     inkscape:window-x="0"
     inkscape:window-y="0"
     inkscape:window-maximized="0"
     inkscape:current-layer="g18"
     inkscape:document-rotation="0" />
  <g
     id="g18"
     transform="translate(-197.36354,-303.11821)">
    <text
       xml:space="preserve"
       style="font-size:120px;line-height:1.25;font-family:Poppins;-inkscape-font-specification:Poppins;stroke-width:0.75"
       x="-74.085991"
       y="345.31723"
       id="text325"><tspan
         sodipodi:role="line"
         id="tspan323"
         x="-74.085991"
         y="345.31723"
         style="font-size:120px;stroke-width:0.75" /></text>
    <g
       id="g481"
       transform="matrix(0.50625974,0,0,0.50625974,105.99775,255.42277)"
       style="fill:#ffffff">
      <path
         d="m 360.84051,454.94808 c 99.31971,0 180.36834,-81.04779 180.36834,-180.36834 0,-99.31971 -81.05114,-180.368336 -180.36834,-180.368336 -99.3172,0 -180.36834,81.051136 -180.36834,180.368336 0,99.3172 81.05114,180.36834 180.36834,180.36834 z m 0,-337.31222 c 86.6705,0 156.94388,70.27338 156.94388,156.94388 0,86.6705 -70.27338,156.94388 -156.94388,156.94388 -86.6705,0 -156.94388,-70.27338 -156.94388,-156.94388 0,-86.6705 70.27338,-156.94388 156.94388,-156.94388 z"
         id="path401"
         style="fill:#ffffff;stroke-width:0.836588" />
      <path
         d="m 281.19735,288.63442 h 65.58681 v 65.58681 c 0,6.55868 5.15355,11.71223 11.71223,11.71223 6.55868,0 11.71223,-5.15355 11.71223,-11.71223 V 288.63442 H 440.482 c 6.55868,0 11.71223,-5.15355 11.71223,-11.71223 0,-6.55868 -5.15355,-11.71223 -11.71223,-11.71223 h -70.27338 v -70.27338 c 0,-6.55868 -5.15355,-11.71223 -11.71223,-11.71223 -6.55868,0 -11.71223,5.15355 -11.71223,11.71223 v 70.27338 h -65.58681 c -6.55868,0 -11.71223,5.15355 -11.71223,11.71223 0,6.55868 5.15355,11.71223 11.71223,11.71223 z"
         id="path403"
         style="fill:#ffffff;stroke-width:0.836588" />
    </g>
  </g>
</svg>
