<?xml version="1.0" encoding="UTF-8" standalone="no"?>
<svg
   xmlns:dc="http://purl.org/dc/elements/1.1/"
   xmlns:cc="http://creativecommons.org/ns#"
   xmlns:rdf="http://www.w3.org/1999/02/22-rdf-syntax-ns#"
   xmlns:svg="http://www.w3.org/2000/svg"
   xmlns="http://www.w3.org/2000/svg"
   xmlns:sodipodi="http://sodipodi.sourceforge.net/DTD/sodipodi-0.dtd"
   xmlns:inkscape="http://www.inkscape.org/namespaces/inkscape"
   width="54.836494mm"
   height="20.690838mm"
   viewBox="0 0 54.836494 20.690838"
   version="1.1"
   id="svg8"
   inkscape:version="1.0.2 (e86c8708, 2021-01-15)"
   sodipodi:docname="logo.svg">
  <defs
     id="defs2">
    <symbol
       id="t"
       overflow="visible">
      <path
         d="m 18.766,-1.125 c -0.96875,0.5 -1.9805,0.875 -3.0312,1.125 -1.043,0.25781 -2.1367,0.39062 -3.2812,0.39062 -3.3984,0 -6.0898,-0.94531 -8.0781,-2.8438 -1.9922,-1.9062 -2.9844,-4.4844 -2.9844,-7.7344 0,-3.2578 0.99219,-5.8359 2.9844,-7.7344 1.9883,-1.9062 4.6797,-2.8594 8.0781,-2.8594 1.1445,0 2.2383,0.13281 3.2812,0.39062 1.0508,0.25 2.0625,0.625 3.0312,1.125 v 4.2188 c -0.98047,-0.65625 -1.9453,-1.1406 -2.8906,-1.4531 -0.94922,-0.3125 -1.9492,-0.46875 -3,-0.46875 -1.875,0 -3.3516,0.60547 -4.4219,1.8125 -1.0742,1.1992 -1.6094,2.8555 -1.6094,4.9688 0,2.1055 0.53516,3.7617 1.6094,4.9688 1.0703,1.1992 2.5469,1.7969 4.4219,1.7969 1.0508,0 2.0508,-0.14844 3,-0.45312 0.94531,-0.3125 1.9102,-0.80078 2.8906,-1.4688 z"
         id="path24" />
    </symbol>
    <symbol
       id="d"
       overflow="visible">
      <path
         d="m 13.734,-11.141 c -0.4375,-0.19531 -0.87109,-0.34375 -1.2969,-0.4375 -0.41797,-0.10156 -0.83984,-0.15625 -1.2656,-0.15625 -1.2617,0 -2.2305,0.40625 -2.9062,1.2188 -0.67969,0.80469 -1.0156,1.9531 -1.0156,3.4531 v 7.0625 H 2.3591 v -15.312 h 4.8906 v 2.5156 c 0.625,-1 1.3438,-1.7266 2.1562,-2.1875 0.82031,-0.46875 1.8008,-0.70312 2.9375,-0.70312 0.16406,0 0.34375,0.01172 0.53125,0.03125 0.19531,0.01172 0.47656,0.03906 0.84375,0.07813 z"
         id="path27" />
    </symbol>
    <symbol
       id="c"
       overflow="visible">
      <path
         d="m 17.641,-7.7031 v 1.4062 H 6.188 c 0.125,1.1484 0.53906,2.0078 1.25,2.5781 0.70703,0.57422 1.7031,0.85938 2.9844,0.85938 1.0312,0 2.082,-0.14844 3.1562,-0.45312 1.082,-0.3125 2.1914,-0.77344 3.3281,-1.3906 v 3.7656 c -1.1562,0.4375 -2.3125,0.76562 -3.4688,0.98438 -1.1562,0.22656 -2.3125,0.34375 -3.4688,0.34375 -2.7734,0 -4.9297,-0.70312 -6.4688,-2.1094 -1.5312,-1.4062 -2.2969,-3.3789 -2.2969,-5.9219 0,-2.5 0.75391,-4.4609 2.2656,-5.8906 1.5078,-1.4375 3.582,-2.1562 6.2188,-2.1562 2.4062,0 4.332,0.73047 5.7812,2.1875 1.4453,1.4492 2.1719,3.3828 2.1719,5.7969 z m -5.0312,-1.625 c 0,-0.92578 -0.27344,-1.6719 -0.8125,-2.2344 -0.54297,-0.57031 -1.25,-0.85938 -2.125,-0.85938 -0.94922,0 -1.7188,0.26562 -2.3125,0.79688 -0.5937,0.53126 -0.96484,1.2969 -1.1094,2.2969 z"
         id="path30" />
    </symbol>
    <symbol
       id="g"
       overflow="visible">
      <path
         d="m 9.2188,-6.8906 c -1.0234,0 -1.793,0.17188 -2.3125,0.51562 -0.51172,0.34375 -0.76562,0.85547 -0.76562,1.5312 0,0.625 0.20703,1.1172 0.625,1.4688 0.41406,0.34375 0.98828,0.51562 1.7188,0.51562 0.92578,0 1.7031,-0.32812 2.3281,-0.98438 0.63281,-0.66406 0.95312,-1.4922 0.95312,-2.4844 v -0.5625 z m 7.4688,-1.8438 V 0 h -4.9219 v -2.2656 c -0.65625,0.92969 -1.3984,1.6055 -2.2188,2.0312 -0.82422,0.41406 -1.8242,0.625 -3,0.625 -1.5859,0 -2.8711,-0.45703 -3.8594,-1.375 -0.99219,-0.92578 -1.4844,-2.1289 -1.4844,-3.6094 0,-1.7891 0.61328,-3.1016 1.8438,-3.9375 1.2383,-0.84375 3.1797,-1.2656 5.8281,-1.2656 h 2.8906 v -0.39062 c 0,-0.76953 -0.30859,-1.332 -0.92188,-1.6875 -0.61719,-0.36328 -1.5703,-0.54688 -2.8594,-0.54688 -1.0547,0 -2.0312,0.10547 -2.9375,0.3125 -0.89844,0.21094 -1.7305,0.52344 -2.5,0.9375 v -3.7344 c 1.0391,-0.25 2.0859,-0.44141 3.1406,-0.57812 1.0625,-0.13281 2.125,-0.20312 3.1875,-0.20312 2.7578,0 4.75,0.54688 5.9688,1.6406 1.2266,1.0859 1.8438,2.8555 1.8438,5.3125 z"
         id="path33" />
    </symbol>
    <symbol
       id="e"
       overflow="visible">
      <path
         d="m 7.7031,-19.656 v 4.3438 H 12.75 v 3.5 H 7.7031 v 6.5 c 0,0.71094 0.14062,1.1875 0.42188,1.4375 0.28126,0.25 0.83594,0.375 1.6719,0.375 h 2.5156 v 3.5 h -4.1875 c -1.9375,0 -3.3125,-0.39844 -4.125,-1.2031 -0.80469,-0.8125 -1.2031,-2.1797 -1.2031,-4.1094 v -6.5 h -2.4219 v -3.5 h 2.4219 v -4.3438 z"
         id="path36" />
    </symbol>
    <symbol
       id="b"
       overflow="visible">
      <path
         d="m 12.766,-13.078 v -8.2031 h 4.9219 V -10e-5 H 12.766 v -2.2188 c -0.66797,0.90625 -1.4062,1.5703 -2.2188,1.9844 -0.8126,0.4141 -1.7578,0.625 -2.8281,0.625 -1.8867,0 -3.4336,-0.75 -4.6406,-2.25 -1.2109,-1.5 -1.8125,-3.4258 -1.8125,-5.7812 0,-2.3633 0.60156,-4.2969 1.8125,-5.7969 1.207,-1.5 2.7539,-2.25 4.6406,-2.25 1.0625,0 2,0.21484 2.8125,0.64062 0.82031,0.42969 1.5664,1.0859 2.2344,1.9688 z m -3.2188,9.9219 c 1.0391,0 1.8359,-0.37891 2.3906,-1.1406 0.55078,-0.76953 0.82812,-1.8828 0.82812,-3.3438 0,-1.457 -0.27734,-2.5664 -0.82812,-3.3281 -0.55469,-0.76953 -1.3516,-1.1562 -2.3906,-1.1562 -1.043,0 -1.8398,0.38672 -2.3906,1.1562 -0.55469,0.76172 -0.82812,1.8711 -0.82812,3.3281 0,1.4609 0.27344,2.5742 0.82812,3.3438 0.55078,0.76172 1.3477,1.1406 2.3906,1.1406 z"
         id="path39" />
    </symbol>
    <symbol
       id="j"
       overflow="visible">
      <path
         d="m 10.5,-3.1562 c 1.0508,0 1.8516,-0.37891 2.4062,-1.1406 0.55078,-0.76953 0.82812,-1.8828 0.82812,-3.3438 0,-1.457 -0.27734,-2.5664 -0.82812,-3.3281 -0.55469,-0.76953 -1.3555,-1.1562 -2.4062,-1.1562 -1.0547,0 -1.8594,0.38672 -2.4219,1.1562 -0.55469,0.77344 -0.82812,1.8828 -0.82812,3.3281 0,1.4492 0.27344,2.5586 0.82812,3.3281 0.5625,0.77344 1.3672,1.1562 2.4219,1.1562 z m -3.25,-9.9219 c 0.67578,-0.88281 1.4219,-1.5391 2.2344,-1.9688 0.82031,-0.42578 1.7656,-0.64062 2.8281,-0.64062 1.8945,0 3.4453,0.75 4.6562,2.25 1.207,1.5 1.8125,3.4336 1.8125,5.7969 0,2.3555 -0.60547,4.2812 -1.8125,5.7812 -1.2109,1.5 -2.7617,2.25 -4.6562,2.25 -1.0625,0 -2.0078,-0.21094 -2.8281,-0.625 C 8.6719,-0.6602 7.9258,-1.32032 7.25,-2.21882 V -2e-5 H 2.3594 v -21.281 H 7.25 Z"
         id="path42" />
    </symbol>
    <symbol
       id="i"
       overflow="visible">
      <path
         d="m 0.34375,-15.312 h 4.8906 l 4.125,10.391 3.5,-10.391 h 4.8906 l -6.4375,16.766 c -0.64844,1.6953 -1.4023,2.8828 -2.2656,3.5625 -0.86719,0.6875 -2,1.0312 -3.4062,1.0312 H 2.79685 V 2.8289 h 1.5312 c 0.83203,0 1.4375,-0.13672 1.8125,-0.40625 C 6.52336,2.16093 6.82024,1.69218 7.03117,1.01645 L 7.17179,0.59457 Z"
         id="path45" />
    </symbol>
    <symbol
       id="f"
       overflow="visible">
      <path
         d="M 17.75,-9.3281 V 0 h -4.9219 v -7.1406 c 0,-1.3203 -0.03125,-2.2344 -0.09375,-2.7344 -0.0625,-0.5 -0.16797,-0.86719 -0.3125,-1.1094 -0.1875,-0.3125 -0.44922,-0.55469 -0.78125,-0.73438 -0.32422,-0.17578 -0.69531,-0.26562 -1.1094,-0.26562 -1.0234,0 -1.8242,0.39844 -2.4062,1.1875 -0.58594,0.78125 -0.875,1.8711 -0.875,3.2656 V -1e-4 H 2.3594 v -15.312 H 7.25 v 2.2344 c 0.73828,-0.88281 1.5195,-1.5391 2.3438,-1.9688 0.83203,-0.42578 1.75,-0.64062 2.75,-0.64062 1.7695,0 3.1133,0.54688 4.0312,1.6406 0.91406,1.0859 1.375,2.6562 1.375,4.7188 z"
         id="path48" />
    </symbol>
    <symbol
       id="h"
       overflow="visible">
      <path
         d="M 2.3594,-15.312 H 7.25 V 0 H 2.3594 Z m 0,-5.9688 H 7.25 v 4 H 2.3594 Z"
         id="path51" />
    </symbol>
    <symbol
       id="s"
       overflow="visible">
      <path
         d="m 0.98438,-15.312 h 4.7656 l 2.5625,10.547 2.5781,-10.547 h 4.0938 l 2.5781,10.438 2.5781,-10.438 h 4.75 L 20.85938,0 h -5.3438 L 12.93748,-10.531 10.35938,0 h -5.3438 z"
         id="path54" />
    </symbol>
    <symbol
       id="a"
       overflow="visible">
      <path
         d="m 9.6406,-12.188 c -1.0859,0 -1.9141,0.39062 -2.4844,1.1719 -0.57422,0.78125 -0.85938,1.9062 -0.85938,3.375 0,1.4688 0.28516,2.5938 0.85938,3.375 0.57031,0.77344 1.3984,1.1562 2.4844,1.1562 1.0625,0 1.875,-0.38281 2.4375,-1.1562 0.57031,-0.78125 0.85938,-1.9062 0.85938,-3.375 0,-1.4688 -0.28906,-2.5938 -0.85938,-3.375 -0.5625,-0.78125 -1.375,-1.1719 -2.4375,-1.1719 z m 0,-3.5 c 2.6328,0 4.6914,0.71484 6.1719,2.1406 1.4766,1.418 2.2188,3.3867 2.2188,5.9062 0,2.5117 -0.74219,4.4805 -2.2188,5.9062 C 14.332,-0.317 12.2734,0.39 9.6406,0.39 6.9922,0.39 4.9258,-0.31703 3.4375,-1.735 1.9453,-3.1608 1.2031,-5.1295 1.2031,-7.6412 c 0,-2.5195 0.74219,-4.4883 2.2344,-5.9062 1.4883,-1.4258 3.5547,-2.1406 6.2031,-2.1406 z"
         id="path57" />
    </symbol>
    <symbol
       id="r"
       overflow="visible">
      <path
         d="m 12.422,-21.281 v 3.2188 H 9.7189 c -0.6875,0 -1.1719,0.125 -1.4531,0.375 -0.27344,0.25 -0.40625,0.6875 -0.40625,1.3125 v 1.0625 h 4.1875 v 3.5 H 7.85955 V -2e-4 h -4.8906 v -11.812 h -2.4375 v -3.5 h 2.4375 v -1.0625 c 0,-1.6641 0.46094,-2.8984 1.3906,-3.7031 0.92578,-0.80078 2.3672,-1.2031 4.3281,-1.2031 z"
         id="path60" />
    </symbol>
    <symbol
       id="q"
       overflow="visible">
      <path
         d="m 16.547,-12.766 c 0.61328,-0.94531 1.3477,-1.6719 2.2031,-2.1719 0.85156,-0.5 1.7891,-0.75 2.8125,-0.75 1.7578,0 3.0977,0.54688 4.0156,1.6406 0.92578,1.0859 1.3906,2.6562 1.3906,4.7188 V -4e-4 h -4.9219 v -7.9844 -0.35938 c 0.0078,-0.13281 0.01563,-0.32031 0.01563,-0.5625 0,-1.082 -0.16406,-1.8633 -0.48438,-2.3438 -0.3125,-0.48828 -0.82422,-0.73438 -1.5312,-0.73438 -0.92969,0 -1.6484,0.38672 -2.1562,1.1562 -0.51172,0.76172 -0.77344,1.8672 -0.78125,3.3125 v 7.5156 h -4.9219 v -7.9844 c 0,-1.6953 -0.14844,-2.7852 -0.4375,-3.2656 -0.29297,-0.48828 -0.8125,-0.73438 -1.5625,-0.73438 -0.9375,0 -1.6641,0.38672 -2.1719,1.1562 -0.51172,0.76172 -0.76562,1.8594 -0.76562,3.2969 v 7.5312 h -4.9219 v -15.312 h 4.9219 v 2.2344 c 0.60156,-0.86328 1.2891,-1.5156 2.0625,-1.9531 0.78125,-0.4375 1.6406,-0.65625 2.5781,-0.65625 1.0625,0 2,0.25781 2.8125,0.76562 0.8125,0.51172 1.4258,1.2305 1.8438,2.1562 z"
         id="path63" />
    </symbol>
    <symbol
       id="p"
       overflow="visible">
      <path
         d="M 17.75,-9.3281 V 0 h -4.9219 v -7.1094 c 0,-1.3438 -0.03125,-2.2656 -0.09375,-2.7656 -0.0625,-0.5 -0.16797,-0.86719 -0.3125,-1.1094 -0.1875,-0.3125 -0.44922,-0.55469 -0.78125,-0.73438 -0.32422,-0.17578 -0.69531,-0.26562 -1.1094,-0.26562 -1.0234,0 -1.8242,0.39844 -2.4062,1.1875 -0.58594,0.78125 -0.875,1.8711 -0.875,3.2656 V -1e-4 H 2.3594 v -21.281 H 7.25 v 8.2031 c 0.73828,-0.88281 1.5195,-1.5391 2.3438,-1.9688 0.83203,-0.42578 1.75,-0.64062 2.75,-0.64062 1.7695,0 3.1133,0.54688 4.0312,1.6406 0.91406,1.0859 1.375,2.6562 1.375,4.7188 z"
         id="path66" />
    </symbol>
    <symbol
       id="o"
       overflow="visible">
      <path
         d="m 2.5781,-20.406 h 5.875 l 7.4219,14 v -14 h 4.9844 V 0 h -5.875 L 7.5625,-14 V 0 H 2.5781 Z"
         id="path69" />
    </symbol>
    <symbol
       id="n"
       overflow="visible">
      <path
         d="m 2.1875,-5.9688 v -9.3438 h 4.9219 v 1.5312 c 0,0.83594 -0.00781,1.875 -0.015625,3.125 -0.011719,1.25 -0.015625,2.0859 -0.015625,2.5 0,1.2422 0.03125,2.1328 0.09375,2.6719 0.070313,0.54297 0.17969,0.93359 0.32812,1.1719 0.20703,0.32422 0.47266,0.57422 0.79688,0.75 0.32031,0.16797 0.69141,0.25 1.1094,0.25 1.0195,0 1.8203,-0.39062 2.4062,-1.1719 0.58203,-0.78125 0.875,-1.8672 0.875,-3.2656 v -7.5625 h 4.8906 V -6e-4 H 12.6875 V -2.2194 C 11.94531,-1.32096 11.1641,-0.6608 10.3437,-0.235 9.51948,0.17906 8.6093,0.39 7.6093,0.39 5.8476,0.39 4.5038,-0.14906 3.5781,-1.235 2.64841,-2.317 2.1875,-3.8952 2.1875,-5.9694 Z"
         id="path72" />
    </symbol>
    <symbol
       id="m"
       overflow="visible">
      <path
         d="m 2.5781,-20.406 h 8.7344 c 2.5938,0 4.582,0.57812 5.9688,1.7344 1.3945,1.1484 2.0938,2.7891 2.0938,4.9219 0,2.1367 -0.69922,3.7812 -2.0938,4.9375 -1.3867,1.1562 -3.375,1.7344 -5.9688,1.7344 H 7.8281 V 3e-4 h -5.25 z m 5.25,3.8125 v 5.7031 H 10.75 c 1.0195,0 1.8047,-0.25 2.3594,-0.75 0.5625,-0.5 0.84375,-1.2031 0.84375,-2.1094 0,-0.91406 -0.28125,-1.6172 -0.84375,-2.1094 -0.55469,-0.48828 -1.3398,-0.73438 -2.3594,-0.73438 z"
         id="path75" />
    </symbol>
    <symbol
       id="l"
       overflow="visible">
      <path
         d="M 2.3594,-15.312 H 7.25 v 15.031 c 0,2.0508 -0.49609,3.6172 -1.4844,4.7031 -0.98047,1.082 -2.4062,1.625 -4.2812,1.625 H -0.9375 V 2.8283 h 0.85938 c 0.92578,0 1.5625,-0.21094 1.9062,-0.625 0.35156,-0.41797 0.53125,-1.2461 0.53125,-2.4844 z m 0,-5.9688 H 7.25 v 4 H 2.3594 Z"
         id="path78" />
    </symbol>
    <symbol
       id="k"
       overflow="visible">
      <path
         d="m 14.719,-14.828 v 3.9844 c -0.65625,-0.45703 -1.3242,-0.79688 -2,-1.0156 -0.66797,-0.21875 -1.3594,-0.32812 -2.0781,-0.32812 -1.3672,0 -2.4336,0.40234 -3.2031,1.2031 -0.76172,0.79297 -1.1406,1.9062 -1.1406,3.3438 0,1.4297 0.37891,2.543 1.1406,3.3438 0.76953,0.79297 1.8359,1.1875 3.2031,1.1875 0.75781,0 1.4844,-0.10938 2.1719,-0.32812 0.6875,-0.22656 1.3203,-0.56641 1.9062,-1.0156 v 4 c -0.76172,0.28125 -1.5391,0.48828 -2.3281,0.625 -0.78125,0.14453 -1.5742,0.21875 -2.375,0.21875 -2.7617,0 -4.9219,-0.70703 -6.4844,-2.125 -1.5547,-1.4141 -2.3281,-3.3828 -2.3281,-5.9062 0,-2.5312 0.77344,-4.5039 2.3281,-5.9219 1.5625,-1.4141 3.7227,-2.125 6.4844,-2.125 0.80078,0 1.5938,0.07422 2.375,0.21875 0.78125,0.13672 1.5547,0.35156 2.3281,0.64062 z"
         id="path81" />
    </symbol>
    <symbol
       id="t-9"
       overflow="visible">
      <path
         d="M 0.015625,0 H 0 V -0.015625 H 0.015625 0 V 0 Z"
         id="path252" />
    </symbol>
    <symbol
       id="a-9"
       overflow="visible">
      <path
         d="M 0.015625,0 H 0 V -0.015625 0 -0.015625 h 0.015625 z"
         id="path255" />
    </symbol>
    <symbol
       id="d-1"
       overflow="visible">
      <path
         d="M 0.015625,0 H 0 0.015625 0 v -0.015625 c 0.0078125,0 0.015625,0.0078125 0.015625,0.015625 z"
         id="path258" />
    </symbol>
    <symbol
       id="f-7"
       overflow="visible">
      <path
         d="M 0,0 M 0.015625,0 H 0 v -0.015625 c 0.0078125,0 0.015625,0.0078125 0.015625,0.015625 z"
         id="path261" />
    </symbol>
    <symbol
       id="c-2"
       overflow="visible">
      <path
         d="M 0,-0.015625 V 0 Z"
         id="path264" />
    </symbol>
    <symbol
       id="k-3"
       overflow="visible">
      <path
         d="M 0,-0.015625 H 0.015625 V 0 H 0 Z"
         id="path267" />
    </symbol>
    <symbol
       id="j-6"
       overflow="visible">
      <path
         d="m 0,0 h 0.015625 z m 0,-0.015625 c 0.0078125,0 0.015625,0.0078125 0.015625,0.015625 H 0 Z"
         id="path270" />
    </symbol>
    <symbol
       id="i-5"
       overflow="visible">
      <path
         d="M 0,-0.015625 V 0 -0.015625 H 0.015625 L 0,0 Z"
         id="path273" />
    </symbol>
    <symbol
       id="e-5"
       overflow="visible">
      <path
         d="m 0,0 v -0.015625 c 0.0078125,0 0.015625,0.0078125 0.015625,0.015625 z m 0,0 h 0.015625 z"
         id="path276" />
    </symbol>
    <symbol
       id="b-8"
       overflow="visible">
      <path
         d="m 0,0 h 0.015625 z m 0,-0.015625 c 0.0078125,0 0.015625,0.0078125 0.015625,0.015625 H 0 Z"
         id="path279" />
    </symbol>
    <symbol
       id="h-1"
       overflow="visible">
      <path
         d="M 0.015625,-0.015625 V 0 H 0 0.015625 0 v -0.015625 z"
         id="path282" />
    </symbol>
    <symbol
       id="g-4"
       overflow="visible">
      <path
         d="M 0.015625,0 H 0 v -0.015625 c 0.0078125,0 0.015625,0.0078125 0.015625,0.015625 z"
         id="path285" />
    </symbol>
    <symbol
       id="s-7"
       overflow="visible">
      <path
         d="M 0.015625,-0.015625 V 0 H 0 0.015625 0 v -0.015625 z"
         id="path288" />
    </symbol>
    <symbol
       id="r-1"
       overflow="visible">
      <path
         d="M 0,-0.015625 V 0 Z"
         id="path291" />
    </symbol>
    <symbol
       id="q-3"
       overflow="visible">
      <path
         d="M 0.015625,0 V -0.015625 0 H 0 v -0.015625 h 0.015625 z"
         id="path294" />
    </symbol>
    <symbol
       id="p-8"
       overflow="visible">
      <path
         d="M 0.015625,0 H 0 v -0.015625 c 0.0078125,0 0.015625,0.0078125 0.015625,0.015625 z"
         id="path297" />
    </symbol>
    <symbol
       id="o-4"
       overflow="visible">
      <path
         d="M 0,-0.015625 0.015625,0 V -0.015625 0 L 0,-0.015625 V 0 Z"
         id="path300" />
    </symbol>
    <symbol
       id="n-8"
       overflow="visible">
      <path
         d="M 0,0 V -0.015625 0 -0.015625 H 0.015625 V 0 Z"
         id="path303" />
    </symbol>
    <symbol
       id="m-0"
       overflow="visible">
      <path
         d="M 0,-0.015625 H 0.015625 V 0 H 0 Z m 0,0 V 0 c 0.0078125,0 0.015625,-0.0039062 0.015625,-0.015625 z"
         id="path306" />
    </symbol>
    <symbol
       id="l-4"
       overflow="visible">
      <path
         d="M 0,-0.015625 V 0 Z"
         id="path309" />
    </symbol>
    <symbol
       id="l-5"
       overflow="visible">
      <path
         d="m 37.516,-2.25 c -1.9297,1.0117 -3.9453,1.7734 -6.0469,2.2812 -2.0938,0.50781 -4.2812,0.76562 -6.5625,0.76562 -6.793,0 -12.18,-1.8984 -16.156,-5.7031 -3.9688,-3.8008 -5.9531,-8.957 -5.9531,-15.469 0,-6.5195 1.9844,-11.68 5.9531,-15.484 3.9766,-3.8008 9.3633,-5.7031 16.156,-5.7031 2.2812,0 4.4688,0.25781 6.5625,0.76562 2.1016,0.51172 4.1172,1.2656 6.0469,2.2656 v 8.4531 c -1.9492,-1.332 -3.8711,-2.3047 -5.7656,-2.9219 -1.8984,-0.625 -3.8906,-0.9375 -5.9844,-0.9375 -3.7617,0 -6.7188,1.2031 -8.875,3.6094 -2.1484,2.4062 -3.2188,5.7266 -3.2188,9.9531 0,4.2109 1.0703,7.5156 3.2188,9.9219 2.1562,2.4062 5.1133,3.6094 8.875,3.6094 2.0938,0 4.0859,-0.30469 5.9844,-0.92188 1.8945,-0.625 3.8164,-1.5977 5.7656,-2.9219 z"
         id="path1323" />
    </symbol>
    <symbol
       id="h-4"
       overflow="visible">
      <path
         d="m 27.453,-22.281 c -0.85547,-0.40625 -1.7109,-0.70312 -2.5625,-0.89062 -0.84375,-0.19531 -1.6953,-0.29688 -2.5469,-0.29688 -2.5234,0 -4.4609,0.80859 -5.8125,2.4219 -1.3555,1.6172 -2.0312,3.9297 -2.0312,6.9375 V -10e-5 H 4.703 v -30.625 h 9.7969 v 5.0312 c 1.25,-2.0078 2.6914,-3.4727 4.3281,-4.3906 1.6328,-0.91406 3.5859,-1.375 5.8594,-1.375 0.33203,0 0.6875,0.01563 1.0625,0.04687 0.38281,0.02344 0.94141,0.07813 1.6719,0.17188 z"
         id="path1326" />
    </symbol>
    <symbol
       id="a-1"
       overflow="visible">
      <path
         d="m 35.281,-15.391 v 2.7812 H 12.39 c 0.23828,2.3047 1.0664,4.0273 2.4844,5.1719 1.4258,1.1484 3.4141,1.7188 5.9688,1.7188 2.0508,0 4.1562,-0.30078 6.3125,-0.90625 2.1641,-0.61328 4.3906,-1.5391 6.6719,-2.7812 v 7.5469 c -2.3125,0.875 -4.6328,1.5391 -6.9531,1.9844 -2.3125,0.44531 -4.625,0.67188 -6.9375,0.67188 -5.543,0 -9.8516,-1.4062 -12.922,-4.2188 -3.0742,-2.8203 -4.6094,-6.7734 -4.6094,-11.859 0,-5 1.5039,-8.9258 4.5156,-11.781 3.0195,-2.8633 7.1758,-4.2969 12.469,-4.2969 4.8125,0 8.6602,1.4492 11.547,4.3438 2.8945,2.8984 4.3438,6.7734 4.3438,11.625 z m -10.062,-3.2656 c 0,-1.8516 -0.54688,-3.3477 -1.6406,-4.4844 -1.0859,-1.1445 -2.5,-1.7188 -4.25,-1.7188 -1.8984,0 -3.4375,0.53906 -4.625,1.6094 -1.1797,1.0625 -1.9141,2.5938 -2.2031,4.5938 z"
         id="path1329" />
    </symbol>
    <symbol
       id="g-8"
       overflow="visible">
      <path
         d="m 18.438,-13.781 c -2.043,0 -3.5781,0.35156 -4.6094,1.0469 -1.0312,0.6875 -1.5469,1.7031 -1.5469,3.0469 0,1.2422 0.41016,2.2148 1.2344,2.9219 0.83203,0.69922 1.9883,1.0469 3.4688,1.0469 1.8438,0 3.3906,-0.66016 4.6406,-1.9844 1.2578,-1.3203 1.8906,-2.9727 1.8906,-4.9531 v -1.125 z m 14.953,-3.6875 V 5e-4 h -9.875 v -4.5469 c -1.3125,1.8672 -2.793,3.2266 -4.4375,4.0781 -1.6367,0.84375 -3.6328,1.2656 -5.9844,1.2656 -3.168,0 -5.7422,-0.92578 -7.7188,-2.7812 -1.9805,-1.8516 -2.9688,-4.2539 -2.9688,-7.2031 0,-3.5938 1.2344,-6.2266 3.7031,-7.9062 2.4688,-1.6758 6.3477,-2.5156 11.641,-2.5156 h 5.7656 v -0.76562 c 0,-1.5508 -0.60938,-2.6875 -1.8281,-3.4062 -1.21872,-0.7187 -3.125,-1.0781 -5.7188,-1.0781 -2.0938,0 -4.0469,0.21484 -5.8594,0.64062 -1.8047,0.41797 -3.4766,1.043 -5.0156,1.875 v -7.4688 c 2.0938,-0.50781 4.1953,-0.89453 6.3125,-1.1562 2.1133,-0.25781 4.2266,-0.39062 6.3438,-0.39062 5.5195,0 9.5039,1.0898 11.953,3.2656 2.457,2.1797 3.6875,5.7188 3.6875,10.625 z"
         id="path1332" />
    </symbol>
    <symbol
       id="f-8"
       overflow="visible">
      <path
         d="m 15.391,-39.328 v 8.7031 h 10.094 v 7 H 15.391 v 12.984 c 0,1.4297 0.28125,2.3906 0.84375,2.8906 0.57031,0.5 1.6953,0.75 3.375,0.75 h 5.0312 v 7 h -8.3906 c -3.8672,0 -6.6055,-0.80469 -8.2188,-2.4219 -1.6172,-1.6133 -2.4219,-4.3516 -2.4219,-8.2188 v -12.984 h -4.875 v -7 h 4.875 v -8.7031 z"
         id="path1335" />
    </symbol>
    <symbol
       id="e-3"
       overflow="visible">
      <path
         d="m 25.547,-26.141 v -16.406 h 9.8438 V 0 H 25.547 v -4.4375 c -1.3555,1.8125 -2.8438,3.1406 -4.4688,3.9844 -1.6172,0.83203 -3.4922,1.25 -5.625,1.25 -3.7734,0 -6.8711,-1.5 -9.2969,-4.5 -2.4297,-3 -3.6406,-6.8594 -3.6406,-11.578 0,-4.7266 1.2109,-8.5859 3.6406,-11.578 2.4258,-3 5.5234,-4.5 9.2969,-4.5 2.1133,0 3.9844,0.42188 5.6094,1.2656 1.6328,0.84375 3.1289,2.1641 4.4844,3.9531 z m -6.4531,19.828 c 2.0938,0 3.6914,-0.76562 4.7969,-2.2969 1.1016,-1.5312 1.6562,-3.7539 1.6562,-6.6719 0,-2.9141 -0.55469,-5.1406 -1.6562,-6.6719 -1.1055,-1.5312 -2.7031,-2.2969 -4.7969,-2.2969 -2.0859,0 -3.6797,0.76562 -4.7812,2.2969 -1.1055,1.5312 -1.6562,3.7578 -1.6562,6.6719 0,2.918 0.55078,5.1406 1.6562,6.6719 1.1016,1.5312 2.6953,2.2969 4.7812,2.2969 z"
         id="path1338" />
    </symbol>
    <symbol
       id="d-5"
       overflow="visible">
      <path
         d="m 21,-6.3125 c 2.0938,0 3.6914,-0.76562 4.7969,-2.2969 1.1016,-1.5312 1.6562,-3.7539 1.6562,-6.6719 0,-2.9141 -0.55469,-5.1406 -1.6562,-6.6719 -1.1055,-1.5312 -2.7031,-2.2969 -4.7969,-2.2969 -2.0938,0 -3.7031,0.77344 -4.8281,2.3125 -1.1172,1.5312 -1.6719,3.75 -1.6719,6.6562 0,2.8984 0.55469,5.1172 1.6719,6.6562 1.125,1.543 2.7344,2.3125 4.8281,2.3125 z m -6.5,-19.828 c 1.3438,-1.7891 2.832,-3.1094 4.4688,-3.9531 1.6445,-0.84375 3.5352,-1.2656 5.6719,-1.2656 3.7695,0 6.8672,1.5 9.2969,4.5 2.4258,2.9922 3.6406,6.8516 3.6406,11.578 0,4.7188 -1.2148,8.5781 -3.6406,11.578 -2.4297,3 -5.5273,4.5 -9.2969,4.5 -2.1367,0 -4.0273,-0.42188 -5.6719,-1.2656 C 17.3321,-1.32036 15.8438,-2.6446 14.5,-4.4376 V -10e-5 H 4.7031 v -42.547 H 14.5 Z"
         id="path1341" />
    </symbol>
    <symbol
       id="c-22"
       overflow="visible">
      <path
         d="m 0.6875,-30.625 h 9.7812 l 8.2344,20.781 7,-20.781 H 35.5 L 22.609,2.906 c -1.293,3.4062 -2.8047,5.7852 -4.5312,7.1406 -1.7188,1.3633 -3.9922,2.0469 -6.8125,2.0469 H 5.6091 V 5.656 h 3.0625 c 1.6562,0 2.8594,-0.26562 3.6094,-0.79688 0.75781,-0.52344 1.3516,-1.4648 1.7812,-2.8281 l 0.26562,-0.85938 z"
         id="path1344" />
    </symbol>
    <symbol
       id="b-6"
       overflow="visible">
      <path
         d="M 29.922,-7.4375 H 13.453 L 10.8592,0 H 0.2812 l 15.109,-40.828 h 12.562 L 43.0612,0 h -10.578 z m -13.844,-7.5781 h 11.188 l -5.5781,-16.234 z"
         id="path1347" />
    </symbol>
    <symbol
       id="k-6"
       overflow="visible">
      <path
         d="m 0.28125,-40.828 h 37.625 v 7.9531 h -13.547 V 10e-5 h -10.516 v -32.875 h -13.562 z"
         id="path1350" />
    </symbol>
    <symbol
       id="j-7"
       overflow="visible">
      <path
         d="m 23.797,-33.938 c -3.2109,0 -5.6992,1.1875 -7.4688,3.5625 -1.7734,2.3672 -2.6562,5.6992 -2.6562,10 0,4.2812 0.88281,7.6094 2.6562,9.9844 1.7695,2.3672 4.2578,3.5469 7.4688,3.5469 3.2188,0 5.7109,-1.1797 7.4844,-3.5469 1.7695,-2.375 2.6562,-5.7031 2.6562,-9.9844 0,-4.3008 -0.88672,-7.6328 -2.6562,-10 -1.7734,-2.375 -4.2656,-3.5625 -7.4844,-3.5625 z m 0,-7.625 c 6.5625,0 11.703,1.8828 15.422,5.6406 3.7188,3.75 5.5781,8.9336 5.5781,15.547 0,6.6055 -1.8594,11.789 -5.5781,15.547 -3.7188,3.75 -8.8594,5.625 -15.422,5.625 -6.5547,0 -11.695,-1.875 -15.422,-5.625 -3.7188,-3.7578 -5.5781,-8.9414 -5.5781,-15.547 0,-6.6133 1.8594,-11.797 5.5781,-15.547 3.7266,-3.7578 8.8672,-5.6406 15.422,-5.6406 z"
         id="path1353" />
    </symbol>
    <symbol
       id="i-8"
       overflow="visible">
      <path
         d="m 5.1406,-40.828 h 13.406 l 9.2969,21.844 9.3438,-21.844 h 13.375 V 0 H 40.6092 V -29.859 L 31.203,-7.843 H 24.5311 L 15.1249,-29.859 V 0 H 5.1405 Z"
         id="path1356" />
    </symbol>
  </defs>
  <sodipodi:namedview
     id="base"
     pagecolor="#ffffff"
     bordercolor="#666666"
     borderopacity="1.0"
     inkscape:pageopacity="0.0"
     inkscape:pageshadow="2"
     inkscape:zoom="3.3479805"
     inkscape:cx="100.74034"
     inkscape:cy="40.394485"
     inkscape:document-units="mm"
     inkscape:current-layer="g1439"
     inkscape:document-rotation="0"
     showgrid="false"
     inkscape:window-width="1252"
     inkscape:window-height="772"
     inkscape:window-x="0"
     inkscape:window-y="0"
     inkscape:window-maximized="0" />
  <metadata
     id="metadata5">
    <rdf:RDF>
      <cc:Work
         rdf:about="">
        <dc:format>image/svg+xml</dc:format>
        <dc:type
           rdf:resource="http://purl.org/dc/dcmitype/StillImage" />
        <dc:title></dc:title>
      </cc:Work>
    </rdf:RDF>
  </metadata>
  <g
     inkscape:label="Layer 1"
     inkscape:groupmode="layer"
     id="layer1"
     transform="translate(-30.78325,-34.640092)">
    <g
       aria-label="
nomad
"
       id="text12"
       style="font-size:25.4px;line-height:1.25;font-family:Teko;-inkscape-font-specification:Teko;letter-spacing:-0.85725px;fill:#ffffff;stroke-width:0.264583">
      <path
         d="m 54.227955,38.215855 h 0.691446 q 1.79776,0 1.79776,1.758248 v 7.882485 h -1.778004 v -7.625662 q 0,-0.355601 -0.118534,-0.454379 -0.118533,-0.118533 -0.474134,-0.118533 h -0.691446 q -0.355601,0 -0.513646,0.158045 -0.138289,0.158044 -0.138289,0.533401 v 7.507128 h -1.778004 v -9.640733 h 1.778004 v 0.770468 q 0.256823,-0.770468 1.224847,-0.770468 z"
         style="font-style:normal;font-variant:normal;font-weight:normal;font-stretch:normal;font-size:19.7556px;font-family:teko;-inkscape-font-specification:teko;fill:#ffffff;stroke-width:0.264583"
         id="path1461" />
      <path
         d="m 59.302016,38.215855 h 2.113849 q 1.837271,0 1.837271,1.758248 v 6.143992 q 0,1.738493 -1.837271,1.738493 h -2.113849 q -1.817515,0 -1.817515,-1.738493 v -6.143992 q 0,-1.758248 1.817515,-1.758248 z m 2.192871,7.645417 v -5.650101 q 0,-0.355601 -0.118533,-0.474135 -0.118534,-0.118533 -0.474135,-0.118533 h -1.086558 q -0.3556,0 -0.474134,0.118533 -0.09878,0.118534 -0.09878,0.474135 v 5.650101 q 0,0.355601 0.09878,0.474135 0.118534,0.118533 0.474134,0.118533 h 1.086558 q 0.355601,0 0.474135,-0.118533 0.118533,-0.118534 0.118533,-0.474135 z"
         style="font-style:normal;font-variant:normal;font-weight:normal;font-stretch:normal;font-size:19.7556px;font-family:teko;-inkscape-font-specification:teko;fill:#ffffff;stroke-width:0.264583"
         id="path1463" />
      <path
         d="m 70.735526,38.215855 h 0.691446 q 1.778004,0 1.778004,1.758248 v 7.882485 h -1.778004 v -7.625662 q 0,-0.355601 -0.118533,-0.454379 -0.09878,-0.118533 -0.454379,-0.118533 h -0.711202 q -0.632179,0 -0.632179,0.691446 v 7.507128 h -1.778004 v -7.625662 q 0,-0.355601 -0.118533,-0.454379 -0.118534,-0.118533 -0.474135,-0.118533 h -0.691446 q -0.355601,0 -0.513645,0.158045 -0.13829,0.158044 -0.13829,0.533401 v 7.507128 h -1.778004 v -9.640733 h 1.778004 v 0.770468 q 0.256823,-0.770468 1.224848,-0.770468 h 0.691446 q 1.264358,0 1.639714,0.889002 0.237068,-0.889002 1.382892,-0.889002 z"
         style="font-style:normal;font-variant:normal;font-weight:normal;font-stretch:normal;font-size:19.7556px;font-family:teko;-inkscape-font-specification:teko;fill:#ffffff;stroke-width:0.264583"
         id="path1465" />
      <path
         d="m 77.599321,38.215855 h 1.778004 v 9.640733 h -1.778004 v -0.770469 q -0.256822,0.770469 -1.224847,0.770469 h -0.711201 q -1.778004,0 -1.778004,-1.738493 v -6.143992 q 0,-1.758248 1.778004,-1.758248 h 0.711201 q 0.968025,0 1.224847,0.770468 z m -1.34338,8.198574 h 0.691446 q 0.3556,0 0.49389,-0.158045 0.158044,-0.158045 0.158044,-0.533401 V 40.34946 q 0,-0.375357 -0.158044,-0.533401 -0.13829,-0.158045 -0.49389,-0.158045 h -0.691446 q -0.355601,0 -0.474135,0.118533 -0.118533,0.09878 -0.118533,0.454379 v 5.610591 q 0,0.3556 0.118533,0.474134 0.118534,0.09878 0.474135,0.09878 z"
         style="font-style:normal;font-variant:normal;font-weight:normal;font-stretch:normal;font-size:19.7556px;font-family:teko;-inkscape-font-specification:teko;fill:#ffffff;stroke-width:0.264583"
         id="path1467" />
      <path
         d="m 83.84174,34.640092 h 1.778004 V 47.856588 H 83.84174 v -0.770469 q -0.256823,0.770469 -1.224847,0.770469 h -0.711202 q -1.778004,0 -1.778004,-1.738493 v -6.163747 q 0,-1.758249 1.778004,-1.758249 h 0.711202 q 0.968024,0 1.224847,0.770469 z m -1.343381,11.774337 h 0.691446 q 0.355601,0 0.49389,-0.158045 0.158045,-0.158045 0.158045,-0.533401 v -5.393279 q 0,-0.375356 -0.158045,-0.533401 -0.138289,-0.158045 -0.49389,-0.158045 h -0.691446 q -0.355601,0 -0.474134,0.118534 -0.118534,0.118533 -0.118534,0.454379 v 5.630346 q 0,0.3556 0.118534,0.474134 0.118533,0.09878 0.474134,0.09878 z"
         style="font-style:normal;font-variant:normal;font-weight:normal;font-stretch:normal;font-size:19.7556px;font-family:teko;-inkscape-font-specification:teko;fill:#ffffff;stroke-width:0.264583"
         id="path1469" />
    </g>
    <g
       aria-label="groups"
       id="text22"
       style="font-size:10.5833px;line-height:1.25;font-family:Teko;-inkscape-font-specification:Teko;fill:#ffffff;stroke-width:0.264583">
      <path
         d="m 53.082854,48.705784 h 0.952497 v 5.693815 q 0,0.93133 -0.99483,0.93133 H 51.27311 v -0.751414 h 1.492245 q 0.1905,0 0.254,-0.0635 0.0635,-0.0635 0.0635,-0.243416 v -0.878414 q -0.137583,0.412749 -0.656164,0.412749 h -0.380999 q -0.952497,0 -0.952497,-0.941914 v -3.217323 q 0,-0.941913 0.952497,-0.941913 h 0.380999 q 0.518581,0 0.656164,0.412748 z m -0.719664,4.328569 h 0.370415 q 0.1905,0 0.264583,-0.08467 0.08467,-0.08467 0.08467,-0.285749 V 49.84878 q 0,-0.201083 -0.08467,-0.285749 -0.07408,-0.08467 -0.264583,-0.08467 H 52.36319 q -0.190499,0 -0.253999,0.0635 -0.0635,0.05292 -0.0635,0.243416 v 2.942157 q 0,0.179917 0.0635,0.243416 0.0635,0.0635 0.253999,0.0635 z"
         style="fill:#ffffff;stroke-width:0.264583"
         id="path1472" />
      <path
         d="m 56.748645,48.6952 h 0.211666 v 0.825498 h -0.380999 q -0.666748,0 -0.666748,0.783164 v 3.566572 h -0.952497 v -5.16465 h 0.952497 v 0.634998 q 0.08467,-0.275166 0.296332,-0.455082 0.22225,-0.1905 0.539749,-0.1905 z"
         style="fill:#ffffff;stroke-width:0.264583"
         id="path1474" />
      <path
         d="m 58.402616,48.705784 h 1.132413 q 0.984247,0 0.984247,0.941913 v 3.291406 q 0,0.931331 -0.984247,0.931331 h -1.132413 q -0.973663,0 -0.973663,-0.931331 v -3.291406 q 0,-0.941913 0.973663,-0.941913 z m 1.174746,4.095737 v -3.026824 q 0,-0.1905 -0.0635,-0.253999 -0.0635,-0.0635 -0.254,-0.0635 h -0.582081 q -0.190499,0 -0.253999,0.0635 -0.05292,0.0635 -0.05292,0.253999 v 3.026824 q 0,0.190499 0.05292,0.253999 0.0635,0.0635 0.253999,0.0635 h 0.582081 q 0.1905,0 0.254,-0.0635 0.0635,-0.0635 0.0635,-0.253999 z"
         style="fill:#ffffff;stroke-width:0.264583"
         id="path1476" />
      <path
         d="m 63.367672,48.705784 h 0.952497 v 5.16465 h -0.952497 v -0.412749 q -0.137583,0.412749 -0.656165,0.412749 h -0.380998 q -0.952497,0 -0.952497,-0.931331 v -4.233319 h 0.952497 v 4.085153 q 0,0.1905 0.0635,0.253999 0.0635,0.05292 0.254,0.05292 h 0.370415 q 0.190499,0 0.264583,-0.08467 0.08467,-0.08467 0.08467,-0.28575 z"
         style="fill:#ffffff;stroke-width:0.264583"
         id="path1478" />
      <path
         d="m 66.862642,48.705784 h 0.370415 q 0.96308,0 0.96308,0.941913 v 3.291406 q 0,0.931331 -0.96308,0.931331 h -0.370415 q -0.518582,0 -0.656165,-0.412749 v 1.873244 H 65.25398 v -6.625145 h 0.952497 v 0.412748 q 0.137583,-0.412748 0.656165,-0.412748 z m 0.380998,4.085153 V 49.78528 q 0,-0.190499 -0.0635,-0.243416 -0.0635,-0.0635 -0.254,-0.0635 h -0.370415 q -0.1905,0 -0.275166,0.08467 -0.07408,0.08467 -0.07408,0.285749 v 2.878657 q 0,0.201083 0.07408,0.28575 0.08467,0.08467 0.275166,0.08467 h 0.370415 q 0.1905,0 0.254,-0.05292 0.0635,-0.0635 0.0635,-0.253999 z"
         style="fill:#ffffff;stroke-width:0.264583"
         id="path1480" />
      <path
         d="m 70.782431,52.83327 v -0.857247 q 0,-0.190499 -0.0635,-0.243416 -0.0635,-0.0635 -0.253999,-0.0635 h -0.539748 q -0.984247,0 -0.984247,-0.93133 v -1.09008 q 0,-0.941913 0.984247,-0.941913 h 0.772581 q 0.99483,0 0.99483,0.941913 v 0.497415 h -0.93133 v -0.402165 q 0,-0.190499 -0.0635,-0.243416 -0.0635,-0.0635 -0.253999,-0.0635 h -0.254 q -0.190499,0 -0.253999,0.0635 -0.0635,0.05292 -0.0635,0.243416 v 0.888997 q 0,0.1905 0.0635,0.253999 0.0635,0.05292 0.253999,0.05292 h 0.550332 q 0.973664,0 0.973664,0.941913 v 1.05833 q 0,0.931331 -0.984247,0.931331 h -0.783164 q -0.984247,0 -0.984247,-0.931331 v -0.507998 h 0.93133 v 0.402165 q 0,0.1905 0.0635,0.254 0.0635,0.05292 0.253999,0.05292 h 0.253999 q 0.1905,0 0.253999,-0.05292 0.0635,-0.0635 0.0635,-0.254 z"
         style="fill:#ffffff;stroke-width:0.264583"
         id="path1482" />
    </g>
    <g
       id="g164"
       transform="matrix(0.02803935,0.03240764,-0.03240764,0.02803935,41.03598,27.039223)">
      <g
         id="g1439"
         transform="matrix(0.89731987,0,0,0.89731987,35.688674,9.1414382)">
        <path
           d="m 219.36,38.062 c -36.832,0 -66.852,30.145 -66.852,67.023 0,11.781 3.0859,23.035 8.5742,32.727 -36.523,39.832 -58.625,93.09 -58.625,151.38 0,46.062 13.93,89.031 37.625,124.77 -8.9062,11.391 -14.352,25.676 -14.352,41.301 0,36.758 30.195,66.676 66.852,66.676 20.496,0 38.816,-9.3477 51.102,-23.977 25.59,10.188 53.426,15.75 82.426,15.75 78.305,0 147.2,-40.34 187.25,-101.5 5.5703,1.5156 11.391,2.4492 17.5,2.4492 36.656,0 66.676,-30.145 66.676,-67.023 0,-30.125 -20.129,-55.543 -47.602,-63.875 -2.8867,-121.28 -102.14,-218.75 -223.82,-218.75 -17.039,0 -33.68,1.9336 -49.699,5.6016 -11.688,-19.379 -32.832,-32.551 -57.051,-32.551 z m 0,22.398 c 27.199,1.6172 44.266,20.297 44.449,44.625 0,24.562 -19.945,44.273 -44.449,44.273 -25.469,-0.10547 -44.137,-19.164 -44.449,-44.273 0,-24.879 19.68,-44.625 44.449,-44.625 z m 311.5,242.73 c 26.359,-0.37109 43.766,21.172 44.273,44.449 0,24.879 -19.773,44.625 -44.273,44.625 -24.281,-0.77344 -43.961,-22.82 -44.449,-44.625 0,-24.613 19.734,-44.449 44.449,-44.449 z M 192.59,410.64 c 24.504,0 44.273,19.797 44.273,44.625 -1.3047,24.504 -19.648,43.785 -44.273,44.273 -24.504,0 -44.449,-19.715 -44.449,-44.273 0.44922,-25.672 17.648,-44.27 44.449,-44.625 z"
           fill-rule="evenodd"
           id="path86"
           style="fill:#ffffff" />
        <g
           id="g1389"
           transform="matrix(0.4111484,-0.47520184,0.47520184,0.4111484,1777.8669,1057.1191)"
           style="fill:#000000">
          <path
             d="m -589.96174,-2783.9326 c -130.91,0 -237.4,106.5 -237.4,237.4 0,130.9 106.5,237.4 237.4,237.4 130.9,0 237.4,-106.5 237.4,-237.4 0,-130.9 -106.5,-237.4 -237.4,-237.4 z m 11.199,149.33 c 31.539,-0.3008 62.395,-4.1367 90.812,-11.211 7.8516,26.691 12.582,56.621 13.52,88.082 h -104.33 z m 0,-22.398 v -101.77 c 34.199,6.3711 64.531,41.523 83.629,91.668 -26.129,6.3438 -54.512,9.8125 -83.629,10.105 z m -22.398,-101.77 v 101.31 c -29.125,-1.3438 -56.934,-5.8125 -82.211,-13.109 19.164,-48.262 48.82,-81.984 82.211,-88.203 z m 0,123.7 v 77.344 h -104.33 c 0.9844,-32.922 6.1445,-64.141 14.648,-91.754 27.645,8.1016 58,13.016 89.684,14.41 z m -126.73,77.344 h -76.508 c 2.3789,-45.824 19.031,-87.859 45.781,-121.73 13.77,8.7578 29.156,16.41 46.004,22.738 -9.0039,29.637 -14.332,63.16 -15.277,98.988 z m 0,22.398 c 0.9219,34.867 6.0234,67.516 14.602,96.559 -17.398,6.0586 -33.312,13.531 -47.637,22.082 -25.375,-33.328 -41.164,-74.18 -43.473,-118.64 z m 22.398,0 h 104.33 v 77.102 c -31.633,0.8515 -62.281,5.1562 -90.32,12.746 -8.1562,-27.129 -13.051,-57.699 -14.012,-89.848 z m 104.33,99.496 v 101.55 c -33.82,-6.3008 -63.832,-40.785 -82.965,-90.047 25.695,-6.8125 53.844,-10.676 82.965,-11.5 z m 22.398,101.55 v -101.55 c 29.121,0.8242 57.27,4.6875 82.965,11.504 -19.133,49.258 -49.145,83.746 -82.965,90.043 z m 0,-123.94 v -77.102 h 104.33 c -0.9609,32.145 -5.8555,62.719 -14.012,89.848 -28.039,-7.5898 -58.688,-11.891 -90.32,-12.746 z m 126.73,-77.102 h 76.508 c -2.3086,44.461 -18.098,85.312 -43.469,118.64 -14.324,-8.5547 -30.238,-16.023 -47.637,-22.082 8.5703,-29.043 13.676,-61.688 14.598,-96.559 z m 0,-22.398 c -0.8984,-33.988 -5.7891,-65.84 -13.98,-94.328 17.918,-5.7812 34.371,-13.023 49.227,-21.359 24.086,32.781 39.02,72.531 41.262,115.69 z m 20.844,-133.26 c -12.707,6.8242 -26.637,12.82 -41.742,17.695 -11.453,-31.109 -27.059,-57.012 -45.617,-75.785 33.805,11.957 63.684,32.09 87.359,58.09 z m -230.19,-58.094 c -17.652,17.859 -32.711,42.066 -43.992,71.18 -13.945,-5.2852 -26.781,-11.512 -38.359,-18.602 22.82,-23.387 50.934,-41.461 82.352,-52.578 z m -84.906,349.71 c 12.148,-6.9609 25.543,-13.074 40.078,-18.16 11.375,30.137 26.711,55.223 44.828,73.551 -32.637,-11.543 -61.633,-30.68 -84.906,-55.391 z m 227.73,55.395 c 18.121,-18.328 33.453,-43.414 44.828,-73.551 14.535,5.0859 27.926,11.199 40.078,18.16 -23.273,24.707 -52.27,43.844 -84.906,55.391 z"
             id="path1361"
             style="fill:#000000" />
        </g>
      </g>
    </g>
  </g>
</svg>
