<?xml version="1.0" encoding="iso-8859-1"?>
<!-- Generator: Adobe Illustrator 19.0.0, SVG Export Plug-In . SVG Version: 6.00 Build 0)  -->
<svg version="1.1" id="Layer_1" xmlns="http://www.w3.org/2000/svg" xmlns:xlink="http://www.w3.org/1999/xlink" x="0px" y="0px"
	 viewBox="0 0 362.885 362.885" style="enable-background:new 0 0 362.885 362.885;" xml:space="preserve">
<g>
	<g>
		<path style="fill:#1E252B;" d="M340.244,304.651c0,13.167-10.773,23.94-23.94,23.94H77.041c-13.167,0-23.941-10.773-23.941-23.94
			V31.44C53.1,18.273,63.874,7.5,77.041,7.5h239.262c13.167,0,23.94,10.773,23.94,23.94v273.211H340.244z"/>
		<path style="fill:#333E48;" d="M147.422,52.165c0-5.267-4.309-9.577-9.576-9.577H86.364c-5.267,0-9.576,4.31-9.576,9.577v231.761
			c0,5.267,4.309,9.576,9.576,9.576h51.482c5.267,0,9.576-4.309,9.576-9.576V52.165z"/>
		<g>
			<path style="fill:#333E48;" d="M215.237,135.512c0,4.225-3.458,7.681-7.683,7.681h-23.045c-4.224,0-7.681-3.456-7.681-7.681
				V119.38c0-4.225,3.457-7.682,7.681-7.682h23.045c4.225,0,7.683,3.457,7.683,7.682V135.512z"/>
			<path style="fill:#333E48;" d="M265.937,135.512c0,4.225-3.457,7.681-7.682,7.681H235.21c-4.225,0-7.681-3.456-7.681-7.681
				V119.38c0-4.225,3.456-7.682,7.681-7.682h23.045c4.225,0,7.682,3.457,7.682,7.682V135.512z"/>
			<path style="fill:#333E48;" d="M316.637,135.512c0,4.225-3.458,7.681-7.682,7.681h-23.046c-4.225,0-7.682-3.456-7.682-7.681
				V119.38c0-4.225,3.457-7.682,7.682-7.682h23.046c4.225,0,7.682,3.457,7.682,7.682V135.512z"/>
			<path style="fill:#333E48;" d="M215.237,181.392c0,4.225-3.458,7.681-7.683,7.681h-23.045c-4.224,0-7.681-3.456-7.681-7.681
				V165.26c0-4.225,3.457-7.682,7.681-7.682h23.045c4.225,0,7.683,3.458,7.683,7.682V181.392z"/>
			<path style="fill:#333E48;" d="M265.937,181.392c0,4.225-3.457,7.681-7.682,7.681H235.21c-4.225,0-7.681-3.456-7.681-7.681
				V165.26c0-4.225,3.456-7.682,7.681-7.682h23.045c4.225,0,7.682,3.458,7.682,7.682V181.392z"/>
			<path style="fill:#333E48;" d="M316.637,181.392c0,4.225-3.458,7.681-7.682,7.681h-23.046c-4.225,0-7.682-3.456-7.682-7.681
				V165.26c0-4.225,3.457-7.682,7.682-7.682h23.046c4.225,0,7.682,3.458,7.682,7.682V181.392z"/>
			<path style="fill:#333E48;" d="M215.237,227.272c0,4.225-3.458,7.681-7.683,7.681h-23.045c-4.224,0-7.681-3.457-7.681-7.681
				V211.14c0-4.225,3.457-7.682,7.681-7.682h23.045c4.225,0,7.683,3.457,7.683,7.682V227.272z"/>
			<path style="fill:#333E48;" d="M265.937,227.272c0,4.225-3.457,7.681-7.682,7.681H235.21c-4.225,0-7.681-3.457-7.681-7.681
				V211.14c0-4.225,3.456-7.682,7.681-7.682h23.045c4.225,0,7.682,3.457,7.682,7.682V227.272z"/>
			<path style="fill:#333E48;" d="M316.637,227.272c0,4.225-3.458,7.681-7.682,7.681h-23.046c-4.225,0-7.682-3.457-7.682-7.681
				V211.14c0-4.225,3.457-7.682,7.682-7.682h23.046c4.225,0,7.682,3.457,7.682,7.682V227.272z"/>
			<path style="fill:#333E48;" d="M215.237,273.152c0,4.225-3.458,7.682-7.683,7.682h-23.045c-4.224,0-7.681-3.457-7.681-7.682
				v-16.131c0-4.225,3.457-7.682,7.681-7.682h23.045c4.225,0,7.683,3.457,7.683,7.682V273.152z"/>
			<path style="fill:#333E48;" d="M265.937,273.152c0,4.225-3.457,7.682-7.682,7.682H235.21c-4.225,0-7.681-3.457-7.681-7.682
				v-16.131c0-4.225,3.456-7.682,7.681-7.682h23.045c4.225,0,7.682,3.457,7.682,7.682V273.152z"/>
			<path style="fill:#333E48;" d="M316.637,273.152c0,4.225-3.458,7.682-7.682,7.682h-23.046c-4.225,0-7.682-3.457-7.682-7.682
				v-16.131c0-4.225,3.457-7.682,7.682-7.682h23.046c4.225,0,7.682,3.457,7.682,7.682V273.152z"/>
		</g>
		<rect x="176.828" y="42.588" style="fill:#61B4E4;" width="139.809" height="48.847"/>
	</g>
	<path style="fill:#071C2C;" d="M316.303,0H77.041C59.705,0,45.6,14.104,45.6,31.44v88.505h-2.957c-15.164,0-27.5,12.336-27.5,27.5
		v187.94c0,15.164,12.336,27.5,27.5,27.5h49.461c14.927,0,27.105-11.956,27.482-26.793h196.716c17.336,0,31.44-14.104,31.44-31.44
		V31.44C347.744,14.104,333.64,0,316.303,0z M92.105,347.885H42.644c-6.893,0-12.5-5.607-12.5-12.5v-187.94
		c0-6.893,5.607-12.5,12.5-12.5h2.957v169.706c0,17.336,14.104,31.44,31.441,31.44h27.528
		C104.2,342.655,98.759,347.885,92.105,347.885z M86.364,286.002c-1.125,0-2.076-0.951-2.076-2.076V52.165
		c0-1.125,0.951-2.077,2.076-2.077h51.482c1.125,0,2.076,0.951,2.076,2.077v231.761c0,1.125-0.951,2.076-2.076,2.076L86.364,286.002
		L86.364,286.002z M332.744,304.651c0,9.065-7.375,16.44-16.44,16.44H119.605v-20.089h18.241c9.416,0,17.076-7.66,17.076-17.076
		V52.165c0-9.416-7.66-17.077-17.076-17.077H86.364c-9.416,0-17.076,7.661-17.076,17.077v231.761c0,9.416,7.66,17.076,17.076,17.076
		h18.241v20.089H77.041c-9.065,0-16.441-7.375-16.441-16.44V31.44C60.6,22.375,67.975,15,77.041,15h239.262
		c9.065,0,16.44,7.375,16.44,16.44v273.211H332.744z M316.637,35.088H176.828c-4.142,0-7.5,3.358-7.5,7.5v48.847
		c0,4.142,3.358,7.5,7.5,7.5h139.809c4.142,0,7.5-3.358,7.5-7.5V42.588C324.137,38.446,320.779,35.088,316.637,35.088z
		 M309.137,83.935H184.328V50.088h124.809V83.935z M308.955,104.197h-23.046c-6.148,0-11.442,3.68-13.827,8.947
		c-2.385-5.268-7.68-8.947-13.828-8.947h-23.045c-6.148,0-11.442,3.68-13.827,8.947c-2.385-5.267-7.68-8.947-13.828-8.947h-23.045
		c-8.371,0-15.181,6.811-15.181,15.182v16.132c0,7.328,5.219,13.459,12.134,14.874c-6.916,1.415-12.134,7.546-12.134,14.875v16.132
		c0,7.328,5.219,13.459,12.134,14.874c-6.916,1.415-12.134,7.546-12.134,14.875v16.132c0,7.328,5.219,13.459,12.134,14.874
		c-6.916,1.415-12.134,7.546-12.134,14.875v16.131c0,8.372,6.81,15.182,15.181,15.182h23.045c6.148,0,11.443-3.68,13.828-8.947
		c2.385,5.267,7.679,8.947,13.827,8.947h23.045c6.148,0,11.442-3.68,13.828-8.947c2.385,5.268,7.679,8.947,13.827,8.947h23.046
		c8.372,0,15.182-6.811,15.182-15.182v-16.131c0-7.328-5.219-13.46-12.135-14.875c6.917-1.415,12.135-7.545,12.135-14.874V211.14
		c0-7.328-5.219-13.46-12.135-14.875c6.917-1.415,12.135-7.546,12.135-14.874V165.26c0-7.328-5.219-13.46-12.135-14.875
		c6.917-1.415,12.135-7.545,12.135-14.874v-16.132C324.137,111.008,317.327,104.197,308.955,104.197z M207.737,273.152
		c0,0.083-0.099,0.182-0.183,0.182h-23.045c-0.083,0-0.181-0.099-0.181-0.182v-16.131c0-0.083,0.098-0.182,0.181-0.182h23.045
		c0.083,0,0.183,0.099,0.183,0.182V273.152z M207.737,227.272c0,0.083-0.099,0.181-0.183,0.181h-23.045
		c-0.083,0-0.181-0.098-0.181-0.181V211.14c0-0.083,0.098-0.182,0.181-0.182h23.045c0.083,0,0.183,0.099,0.183,0.182V227.272z
		 M207.737,181.392c0,0.083-0.099,0.181-0.183,0.181h-23.045c-0.083,0-0.181-0.098-0.181-0.181V165.26
		c0-0.082,0.1-0.182,0.181-0.182h23.045c0.083,0,0.183,0.099,0.183,0.182V181.392z M207.737,135.512
		c0,0.083-0.099,0.181-0.183,0.181h-23.045c-0.083,0-0.181-0.098-0.181-0.181V119.38c0-0.083,0.098-0.182,0.181-0.182h23.045
		c0.083,0,0.183,0.099,0.183,0.182V135.512z M221.383,250.786c-1.98-4.374-5.963-7.655-10.781-8.64
		c4.818-0.985,8.801-4.266,10.781-8.639c1.98,4.373,5.962,7.654,10.78,8.639C227.345,243.131,223.363,246.412,221.383,250.786z
		 M221.383,204.905c-1.98-4.373-5.963-7.654-10.781-8.64c4.818-0.985,8.801-4.266,10.781-8.639c1.98,4.373,5.962,7.654,10.78,8.639
		C227.345,197.251,223.363,200.532,221.383,204.905z M221.383,159.025c-1.98-4.374-5.963-7.655-10.781-8.64
		c4.818-0.985,8.801-4.266,10.781-8.639c1.98,4.373,5.962,7.654,10.78,8.639C227.345,151.371,223.363,154.651,221.383,159.025z
		 M258.437,273.152c0,0.083-0.099,0.182-0.182,0.182H235.21c-0.083,0-0.181-0.099-0.181-0.182v-16.131
		c0-0.083,0.098-0.182,0.181-0.182h23.045c0.083,0,0.182,0.099,0.182,0.182V273.152z M258.437,227.272
		c0,0.083-0.099,0.181-0.182,0.181H235.21c-0.083,0-0.181-0.098-0.181-0.181V211.14c0-0.083,0.098-0.182,0.181-0.182h23.045
		c0.083,0,0.182,0.099,0.182,0.182V227.272z M258.437,181.392c0,0.083-0.099,0.181-0.182,0.181H235.21
		c-0.083,0-0.181-0.098-0.181-0.181V165.26c0-0.083,0.098-0.182,0.181-0.182h23.045c0.083,0,0.182,0.099,0.182,0.182V181.392z
		 M258.437,135.512c0,0.083-0.099,0.181-0.182,0.181H235.21c-0.083,0-0.181-0.098-0.181-0.181V119.38
		c0-0.083,0.098-0.182,0.181-0.182h23.045c0.083,0,0.182,0.099,0.182,0.182V135.512z M272.083,250.785
		c-1.98-4.373-5.963-7.654-10.781-8.639c4.818-0.985,8.8-4.266,10.781-8.639c1.98,4.373,5.962,7.653,10.78,8.639
		C278.045,243.131,274.063,246.412,272.083,250.785z M272.083,204.905c-1.98-4.374-5.963-7.654-10.781-8.64
		c4.818-0.985,8.8-4.266,10.781-8.639c1.98,4.373,5.962,7.653,10.78,8.639C278.045,197.251,274.063,200.532,272.083,204.905z
		 M272.083,159.024c-1.98-4.373-5.963-7.654-10.781-8.639c4.818-0.985,8.8-4.266,10.781-8.639c1.98,4.373,5.962,7.653,10.78,8.639
		C278.045,151.371,274.063,154.651,272.083,159.024z M309.137,273.152c0,0.083-0.099,0.182-0.182,0.182h-23.046
		c-0.083,0-0.182-0.099-0.182-0.182v-16.131c0-0.083,0.099-0.182,0.182-0.182h23.046c0.083,0,0.182,0.099,0.182,0.182V273.152z
		 M309.137,227.272c0,0.083-0.099,0.181-0.182,0.181h-23.046c-0.083,0-0.182-0.098-0.182-0.181V211.14
		c0-0.083,0.099-0.182,0.182-0.182h23.046c0.083,0,0.182,0.099,0.182,0.182V227.272z M309.137,181.392
		c0,0.083-0.099,0.181-0.182,0.181h-23.046c-0.083,0-0.182-0.098-0.182-0.181V165.26c0-0.083,0.099-0.182,0.182-0.182h23.046
		c0.082,0,0.182,0.101,0.182,0.182V181.392z M309.137,135.512c0,0.083-0.099,0.181-0.182,0.181h-23.046
		c-0.083,0-0.182-0.098-0.182-0.181V119.38c0-0.083,0.099-0.182,0.182-0.182h23.046c0.083,0,0.182,0.099,0.182,0.182V135.512z"/>
</g>
<g>
</g>
<g>
</g>
<g>
</g>
<g>
</g>
<g>
</g>
<g>
</g>
<g>
</g>
<g>
</g>
<g>
</g>
<g>
</g>
<g>
</g>
<g>
</g>
<g>
</g>
<g>
</g>
<g>
</g>
</svg>
