<?xml version="1.0" encoding="utf-8"?>
<!-- Generator: Adobe Illustrator 26.0.3, SVG Export Plug-In . SVG Version: 6.00 Build 0)  -->
<svg version="1.0" id="katman_1" xmlns="http://www.w3.org/2000/svg" xmlns:xlink="http://www.w3.org/1999/xlink" x="0px" y="0px"
	 viewBox="30 90 550 270" style="enable-background:new 0 0 600 450;" xml:space="preserve">
<style type="text/css">
	.st0{fill:#12161C;}
	.st1{fill:#F0B90C;}
	.st2{opacity:0.8;fill:#12161C;enable-background:new    ;}
</style>
<g id="bscscan-logo" transform="translate(-219.378 -213.334)">
	<g id="bscscan-logo-circle">
		<path id="Path_1" class="st0" d="M288.9,435.5c0-2.8,2.3-5.1,5.1-5.1c0,0,0,0,0,0l8.6,0c2.8,0,5.2,2.3,5.2,5.2l0,0v32.4
			c1-0.3,2.2-0.6,3.6-0.9c1.9-0.5,3.3-2.2,3.3-4.2v-40.2c0-2.8,2.3-5.2,5.2-5.2h8.6c2.8,0,5.2,2.3,5.2,5.2v37.3c0,0,2.1-0.9,4.2-1.8
			c1.6-0.7,2.6-2.2,2.6-4v-44.5c0-2.8,2.3-5.2,5.1-5.2h8.6c2.8,0,5.1,2.3,5.1,5.2v36.6c7.4-5.4,15-11.9,21-19.7
			c1.8-2.3,2.3-5.3,1.3-8.1c-11-31.6-45.6-48.4-77.2-37.4S256,426.8,267,458.4c1.2,3.6,2.8,7,4.7,10.3c1.5,2.6,4.3,4.1,7.3,3.8
			c1.6-0.1,3.6-0.3,6-0.6c2.2-0.2,3.8-2.1,3.8-4.3L288.9,435.5"/>
		<path id="Path_2" class="st1" d="M288.7,487.4c27.1,19.7,65,13.7,84.7-13.4c7.5-10.4,11.6-22.9,11.6-35.7c0-1.4-0.1-2.8-0.2-4.2
			C362.7,467.3,321.8,482.7,288.7,487.4"/>
	</g>
	<g id="words">
		<path id="Path_124" class="st2" d="M418.7,479.1h-8.5l-1.5,4.3h-4.5l7.8-20.9h4.8l7.8,20.9h-4.5L418.7,479.1z M417.6,475.9
			l-3.1-8.9l-3.1,8.9H417.6z M446.4,466.5c1.3,0,2.6,0.3,3.8,1c1.1,0.7,2.1,1.7,2.6,3c0.7,1.4,1,3,0.9,4.5c0,1.6-0.3,3.1-0.9,4.5
			c-0.6,1.2-1.5,2.2-2.6,3c-1.1,0.7-2.4,1-3.8,1c-1.3,0-2.5-0.3-3.6-1c-1-0.6-1.7-1.6-2.1-2.7v11.4h-4.2v-24.5h4.2v3.5
			c0.4-1.1,1.1-2,2.1-2.7C443.9,466.9,445.1,466.5,446.4,466.5z M445.1,470.2c-1.2,0-2.3,0.4-3.2,1.3c-0.9,1-1.3,2.2-1.2,3.5
			c-0.1,1.3,0.4,2.5,1.2,3.5c0.8,0.9,2,1.3,3.2,1.3c1.2,0.1,2.4-0.4,3.2-1.3c0.8-1,1.3-2.2,1.2-3.5c0.1-1.3-0.4-2.6-1.2-3.5
			C447.4,470.7,446.3,470.2,445.1,470.2z M462.5,469.9c0.6-1,1.4-1.9,2.5-2.5c1-0.6,2.2-0.9,3.4-0.9v4.5h-1.2
			c-3.1,0-4.7,1.4-4.7,4.3v8h-4.2v-16.6h4.2L462.5,469.9z M479.9,466.5c1.5,0,3,0.3,4.4,1c1.3,0.7,2.3,1.7,3,3
			c0.8,1.4,1.1,3,1.1,4.5c0,1.6-0.3,3.1-1.1,4.5c-0.7,1.3-1.8,2.3-3,3c-1.3,0.7-2.8,1.1-4.4,1c-1.5,0-3-0.3-4.4-1
			c-1.3-0.7-2.3-1.7-3-3c-0.8-1.4-1.1-2.9-1.1-4.5c0-1.6,0.3-3.2,1.1-4.5c0.7-1.3,1.8-2.3,3-3C476.9,466.9,478.4,466.5,479.9,466.5z
			 M479.9,470.2c-1.1,0-2.2,0.4-3,1.2c-0.9,1-1.3,2.3-1.2,3.6c-0.1,1.3,0.4,2.6,1.2,3.6c0.8,0.8,1.9,1.3,3,1.2c1.1,0,2.2-0.4,3-1.2
			c0.9-1,1.3-2.3,1.2-3.6c0.1-1.3-0.4-2.6-1.2-3.6C482.1,470.6,481,470.2,479.9,470.2z M499.4,466.5c1.3,0,2.5,0.3,3.6,1
			c1,0.6,1.7,1.6,2.1,2.7v-9h4.2v22.2h-4.2v-3.5c-0.4,1.1-1.2,2-2.1,2.7c-1.1,0.7-2.3,1-3.6,1c-1.3,0-2.6-0.3-3.8-1
			c-1.1-0.7-2.1-1.7-2.6-3c-0.7-1.4-1-3-0.9-4.5c0-1.6,0.3-3.1,0.9-4.5c0.6-1.2,1.5-2.2,2.6-3C496.8,466.9,498.1,466.5,499.4,466.5z
			 M500.7,470.2c-1.2-0.1-2.4,0.4-3.2,1.3c-0.8,1-1.3,2.2-1.2,3.5c-0.1,1.3,0.4,2.6,1.2,3.5c0.8,0.9,2,1.3,3.2,1.3
			c1.2,0,2.3-0.4,3.2-1.3c0.9-1,1.3-2.2,1.2-3.5c0.1-1.3-0.4-2.6-1.2-3.5C503.1,470.7,501.9,470.2,500.7,470.2z M530.6,466.8v16.6
			h-4.2V480c-0.4,1.1-1.2,2-2.2,2.6c-1.1,0.6-2.3,1-3.5,0.9c-1.7,0.1-3.4-0.6-4.6-1.9c-1.2-1.5-1.8-3.4-1.7-5.3v-9.7h4.2v9.2
			c-0.1,1.1,0.3,2.2,1,3.1c0.7,0.7,1.7,1.1,2.8,1.1c1.1,0.1,2.2-0.4,2.9-1.2c0.8-0.9,1.2-2.1,1.1-3.4v-8.8L530.6,466.8z
			 M543.4,466.5c1.9-0.1,3.8,0.5,5.4,1.7c1.5,1.2,2.4,2.9,2.7,4.7H547c-0.1-0.8-0.6-1.6-1.2-2.1c-0.7-0.5-1.6-0.8-2.4-0.8
			c-1.1,0-2.1,0.4-2.8,1.2c-0.8,1-1.2,2.3-1.1,3.6c-0.1,1.3,0.3,2.6,1.1,3.6c0.7,0.8,1.7,1.3,2.8,1.2c0.9,0,1.7-0.2,2.4-0.8
			c0.6-0.5,1.1-1.3,1.2-2.1h4.5c-0.3,1.9-1.2,3.5-2.7,4.7c-1.5,1.2-3.4,1.8-5.4,1.7c-1.5,0-3-0.3-4.3-1c-1.2-0.7-2.3-1.7-2.9-3
			c-0.7-1.4-1.1-3-1-4.5c0-1.6,0.3-3.1,1-4.5c0.7-1.3,1.7-2.3,2.9-3C540.4,466.9,541.9,466.5,543.4,466.5z M564.8,479.7v3.6h-2.2
			c-1.5,0.1-3.1-0.4-4.3-1.3c-1-0.9-1.5-2.4-1.5-4.5v-7.2h-2.3v-3.6h2.3v-4.1h4.2v4.1h3.7v3.6h-3.7v7.3c-0.1,0.6,0.1,1.2,0.5,1.7
			c0.5,0.4,1,0.5,1.6,0.5H564.8z M585.1,466.5c1.5,0,3,0.3,4.4,1c1.3,0.7,2.3,1.7,3,3c0.8,1.4,1.1,3,1.1,4.5c0,1.6-0.3,3.1-1.1,4.5
			c-0.7,1.3-1.8,2.3-3,3c-1.3,0.7-2.8,1.1-4.4,1c-1.5,0-3-0.3-4.4-1c-1.3-0.7-2.3-1.7-3-3c-0.8-1.4-1.1-2.9-1.1-4.5
			c0-1.6,0.3-3.2,1.1-4.5c0.7-1.3,1.8-2.3,3-3C582,466.9,583.5,466.5,585.1,466.5z M585.1,470.2c-1.1,0-2.2,0.4-3,1.2
			c-0.9,1-1.3,2.3-1.2,3.6c-0.1,1.3,0.4,2.6,1.2,3.6c0.8,0.8,1.9,1.3,3,1.2c1.1,0,2.2-0.4,3-1.2c0.9-1,1.3-2.3,1.2-3.6
			c0.1-1.3-0.4-2.6-1.2-3.6C587.3,470.6,586.2,470.2,585.1,470.2z M606.3,463.9c-0.9-0.2-1.8,0-2.6,0.5c-0.6,0.6-0.8,1.5-0.8,2.3v0
			h3.4v3.6h-3.4v13h-4.2v-13h-2.1v-3.6h2.1v-0.4c-0.1-1.7,0.5-3.4,1.7-4.6c1.4-1.2,3.2-1.7,5-1.6c0.4,0,0.7,0,0.9,0V463.9z
			 M623.3,466.2v4.4h7.2v3.9h-7.2v4.7h8.1v4.1h-13.2v-21.2h13.2v4.1H623.3z M645.3,479v4.4H643c-1.7,0.1-3.3-0.4-4.6-1.5
			c-1.1-1-1.6-2.6-1.6-4.8V471h-2.2v-4.3h2.2v-4.1h5.1v4.1h3.4v4.3h-3.4v6.2c-0.1,0.5,0.1,1,0.4,1.4c0.4,0.3,0.9,0.4,1.4,0.4H645.3z
			 M660.3,466.5c1.7-0.1,3.4,0.6,4.6,1.9c1.2,1.5,1.8,3.4,1.7,5.3v9.7h-5.1v-9.1c0.1-1-0.3-1.9-0.9-2.6c-0.6-0.6-1.5-1-2.4-0.9
			c-0.9,0-1.8,0.3-2.5,1c-0.7,0.8-1,1.8-0.9,2.8v8.9h-5.1v-22.2h5.1v8.5c0.5-1,1.2-1.8,2.1-2.4C658,466.7,659.1,466.4,660.3,466.5z
			 M687.4,474.6c0,0.5-0.1,0.9-0.2,1.4h-11.6c0,1,0.3,2,1,2.7c0.6,0.6,1.4,0.9,2.2,0.8c0.7,0,1.3-0.2,1.9-0.6c0.5-0.4,0.8-0.9,1-1.5
			h5.4c-0.2,1.2-0.7,2.2-1.4,3.2c-0.8,0.9-1.7,1.7-2.8,2.2c-1.2,0.5-2.5,0.8-3.8,0.8c-1.5,0-3-0.3-4.4-1c-1.3-0.7-2.3-1.7-3-3
			c-0.7-1.4-1.1-3-1.1-4.6c0-1.6,0.3-3.2,1.1-4.6c0.7-1.3,1.7-2.3,3-3c1.4-0.7,2.9-1.1,4.4-1c1.5,0,3,0.3,4.4,1
			c1.2,0.7,2.2,1.6,2.9,2.9C687,471.6,687.4,473.1,687.4,474.6z M682.2,473.8c0.1-0.9-0.2-1.8-0.9-2.5c-0.6-0.6-1.4-0.8-2.3-0.8
			c-0.9,0-1.7,0.3-2.3,0.8c-0.7,0.6-1,1.5-1,2.5H682.2z M696.7,469.8c0.6-1,1.5-1.8,2.5-2.4c1-0.6,2.1-0.9,3.3-0.9v5.5h-1.5
			c-1.1-0.1-2.2,0.2-3.2,0.9c-0.8,0.7-1.2,1.8-1.1,2.9v7.6h-5.1v-16.7h5.1V469.8z M712.2,466.4c1.8-0.1,3.6,0.5,5.1,1.6
			c1.3,1.1,2.1,2.6,2.4,4.2h-4.8c-0.1-0.6-0.4-1.2-1-1.6c-0.5-0.4-1.2-0.6-1.8-0.6c-0.5,0-0.9,0.1-1.3,0.4c-0.3,0.3-0.5,0.7-0.5,1.1
			c0,0.5,0.3,1,0.8,1.2c0.8,0.3,1.7,0.6,2.6,0.8c1.1,0.2,2.1,0.5,3.2,0.9c0.8,0.3,1.6,0.8,2.1,1.5c0.6,0.8,1,1.8,0.9,2.8
			c0,0.9-0.3,1.8-0.8,2.5c-0.6,0.8-1.4,1.4-2.2,1.7c-1.1,0.4-2.3,0.7-3.5,0.6c-1.9,0.1-3.8-0.4-5.4-1.5c-1.4-1-2.3-2.6-2.5-4.3h5
			c0,0.7,0.4,1.3,0.9,1.6c0.6,0.4,1.3,0.6,2.1,0.6c0.5,0,0.9-0.1,1.3-0.4c0.3-0.3,0.5-0.7,0.5-1.1c0-0.5-0.3-1.1-0.8-1.2
			c-0.9-0.3-1.8-0.6-2.7-0.8c-1-0.2-2.1-0.5-3.1-0.8c-0.8-0.3-1.5-0.8-2.1-1.5c-0.6-0.8-0.9-1.8-0.9-2.7c0-1.4,0.6-2.8,1.7-3.6
			C708.7,466.8,710.4,466.3,712.2,466.4z M731.8,466.4c2-0.1,3.9,0.6,5.4,1.8c1.5,1.2,2.5,3,2.8,4.9h-5.4c-0.1-0.7-0.5-1.3-1-1.7
			c-0.5-0.4-1.2-0.6-1.9-0.6c-0.9,0-1.7,0.4-2.2,1.1c-0.6,0.9-0.9,2-0.9,3.1c-0.1,1.1,0.2,2.2,0.9,3.1c0.5,0.7,1.4,1.1,2.2,1.1
			c0.7,0,1.3-0.2,1.9-0.6c0.5-0.4,0.9-1,1-1.7h5.4c-0.3,1.9-1.3,3.7-2.8,4.9c-1.5,1.2-3.5,1.9-5.4,1.8c-1.5,0-3-0.3-4.4-1
			c-1.3-0.7-2.3-1.7-3-3c-0.7-1.4-1.1-3-1.1-4.6c0-1.6,0.3-3.2,1.1-4.6c0.7-1.3,1.7-2.3,3-3C728.8,466.8,730.3,466.4,731.8,466.4z
			 M750.5,466.4c1.2,0,2.3,0.3,3.3,0.9c0.9,0.6,1.6,1.4,2,2.4v-3h5.1v16.7h-5.1v-3c-0.4,1-1.1,1.8-2,2.4c-1,0.6-2.1,0.9-3.3,0.9
			c-1.3,0-2.6-0.3-3.7-1c-1.1-0.7-2-1.8-2.6-3c-0.7-1.4-1-3-0.9-4.6c0-1.6,0.3-3.1,0.9-4.6c0.6-1.2,1.5-2.2,2.6-3
			C747.9,466.8,749.2,466.4,750.5,466.4z M752.2,470.9c-1,0-2,0.4-2.7,1.1c-0.7,0.8-1.1,1.9-1,3c-0.1,1.1,0.3,2.2,1,3
			c0.7,0.7,1.7,1.1,2.7,1.1c1,0,2-0.4,2.7-1.1c0.7-0.8,1.1-1.9,1-3c0.1-1.1-0.3-2.2-1-3C754.1,471.3,753.2,470.9,752.2,470.9z
			 M776.6,466.5c1.7-0.1,3.4,0.6,4.6,1.9c1.2,1.5,1.8,3.4,1.7,5.3v9.7h-5.1v-9.1c0.1-1-0.3-1.9-0.9-2.6c-0.6-0.6-1.5-1-2.4-0.9
			c-0.9,0-1.8,0.3-2.5,1c-0.7,0.8-1,1.8-0.9,2.8v8.9H766v-16.7h5.1v3.1c0.5-1,1.2-1.8,2.1-2.4C774.3,466.7,775.4,466.4,776.6,466.5z
			"/>
		<path id="Path_123" class="st0" d="M435.2,417.2c2.9,0.5,5.5,2.1,7.4,4.4c1.8,2.3,2.8,5.1,2.8,8c0.2,3.8-1.4,7.6-4.3,10.1
			c-2.9,2.5-7,3.7-12.4,3.7h-21.8v-50.8h21.4c5.1,0,9.1,1.1,11.8,3.4c2.8,2.3,4.1,5.4,4.1,9.5c0.1,2.8-0.8,5.6-2.5,7.8
			C440.1,415.2,437.8,416.6,435.2,417.2z M417,413.9h9.1c2.1,0.1,4.1-0.5,5.8-1.7c1.4-1.2,2.1-3,2-4.9c0.1-1.8-0.6-3.6-1.9-4.9
			c-1.3-1.2-3.3-1.7-6-1.7h-9V413.9z M426.7,435.1c2.2,0.1,4.4-0.5,6.2-1.8c1.5-1.3,2.3-3.2,2.2-5.1c0.1-2-0.7-3.9-2.2-5.2
			c-1.8-1.3-4-2-6.2-1.8H417v14H426.7z M466.3,403c4.8,0,8.7,1.2,11.7,3.7c3,2.5,4.9,6,5.5,9.8h-9.5c-0.3-1.8-1.2-3.4-2.6-4.6
			c-1.5-1.2-3.4-1.8-5.3-1.7c-1.4-0.1-2.9,0.3-4,1.2c-1,0.8-1.5,2-1.4,3.3c0,1,0.4,2,1.2,2.7c0.8,0.7,1.8,1.3,2.9,1.6
			c1.2,0.4,2.8,0.8,5,1.4c2.5,0.5,5,1.2,7.4,2.1c1.9,0.7,3.6,2,4.9,3.5c1.4,1.9,2.2,4.2,2.1,6.5c0.1,3.2-1.4,6.3-4,8.3
			c-2.7,2.1-6.3,3.2-10.8,3.2c-5.2,0-9.3-1.2-12.5-3.5c-3.2-2.4-5.2-6-5.7-10h9.7c0.2,1.8,1.1,3.5,2.6,4.6c1.7,1.2,3.8,1.8,5.8,1.7
			c1.4,0.1,2.8-0.4,4-1.3c0.9-0.8,1.4-2,1.4-3.3c0-1.1-0.4-2.1-1.2-2.8c-0.9-0.8-1.9-1.3-3-1.7c-1.2-0.4-2.8-0.8-5-1.4
			c-2.5-0.5-4.9-1.2-7.2-2.1c-1.8-0.7-3.5-1.8-4.8-3.3c-1.4-1.8-2.1-4.1-2-6.3c-0.1-3.3,1.4-6.4,4-8.4
			C458,404.1,461.6,403,466.3,403z M509.4,403c4.6-0.2,9.2,1.3,12.9,4.2c3.5,2.9,5.8,6.9,6.4,11.4H518c-0.3-2-1.4-3.7-3-5
			c-1.7-1.3-3.7-1.9-5.8-1.8c-2.6,0-5,1-6.7,3c-1.8,2-2.7,4.9-2.7,8.7c0,3.8,0.9,6.8,2.7,8.7c1.7,1.9,4.2,3,6.7,3
			c2.1,0.1,4.2-0.6,5.8-1.8c1.6-1.3,2.6-3,3-5h10.7c-0.7,4.5-3,8.5-6.4,11.4c-3.7,2.9-8.2,4.3-12.8,4.2c-3.6,0.1-7.2-0.8-10.4-2.5
			c-3-1.6-5.4-4.1-7.1-7.1c-1.7-3.4-2.6-7.1-2.5-10.9c-0.1-3.8,0.8-7.5,2.5-10.9c1.6-3,4.1-5.5,7.1-7.1
			C502.2,403.8,505.8,402.9,509.4,403z M570.8,429.5c0,2.5-0.7,5-1.9,7.2c-1.4,2.3-3.4,4.1-5.8,5.3c-2.9,1.4-6.1,2.1-9.3,2
			c-3.3,0.1-6.6-0.6-9.6-1.8c-2.7-1.1-5-3-6.8-5.3c-1.7-2.4-2.7-5.2-2.9-8.1h10.8c0.2,2,1.1,3.8,2.5,5.1c1.5,1.4,3.6,2.2,5.7,2.1
			c1.8,0.1,3.5-0.5,4.9-1.7c1.1-1.2,1.8-2.7,1.7-4.4c0.1-1.4-0.4-2.8-1.4-3.9c-1-1.1-2.1-1.9-3.5-2.5c-1.4-0.6-3.3-1.3-5.8-2.2
			c-2.7-0.9-5.3-1.9-7.8-3.1c-2.1-1.1-3.8-2.6-5.1-4.5c-1.5-2.3-2.2-5-2.1-7.7c-0.2-4,1.6-7.8,4.7-10.3c3.1-2.5,7.3-3.8,12.5-3.8
			c5.4,0,9.7,1.3,12.9,3.9c3.2,2.6,5.1,6.3,5.4,10.4h-10.9c-0.2-1.7-1-3.3-2.3-4.5c-1.4-1.2-3.2-1.9-5.1-1.8
			c-1.6-0.1-3.3,0.4-4.5,1.5c-1.2,1.1-1.8,2.7-1.7,4.3c0,1.4,0.4,2.7,1.3,3.7c0.9,1,2.1,1.8,3.4,2.4c1.8,0.8,3.7,1.5,5.6,2.1
			c2.7,0.9,5.4,2,8,3.2c2.1,1.1,3.9,2.6,5.2,4.5C570.2,423.9,570.9,426.7,570.8,429.5L570.8,429.5z M596.2,403
			c4.6-0.2,9.2,1.3,12.9,4.2c3.5,2.9,5.8,6.9,6.4,11.4h-10.7c-0.3-2-1.4-3.7-3-5c-1.7-1.3-3.7-1.9-5.8-1.8c-2.6,0-5,1-6.7,3
			c-1.8,2-2.7,4.9-2.7,8.7c0,3.8,0.9,6.8,2.7,8.7c1.7,1.9,4.2,3,6.7,3c2.1,0.1,4.2-0.6,5.8-1.8c1.6-1.3,2.6-3,3-5h10.7
			c-0.7,4.5-3,8.5-6.4,11.4c-3.7,2.9-8.2,4.3-12.9,4.2c-3.6,0.1-7.2-0.8-10.4-2.5c-3-1.6-5.4-4.1-7.1-7.1c-1.7-3.4-2.6-7.1-2.5-10.9
			c-0.1-3.8,0.8-7.5,2.5-10.9c1.6-3,4.1-5.5,7.1-7.1C589.1,403.8,592.6,402.9,596.2,403z M638.4,403c3.1-0.1,6.1,0.7,8.6,2.4
			c2.4,1.5,4.1,3.8,5.1,6.4v-8.3h10.1v39.9h-10.1V435c-1,2.6-2.8,4.9-5.1,6.4c-2.6,1.7-5.6,2.5-8.6,2.4c-3.2,0-6.3-0.8-9.1-2.4
			c-2.7-1.7-4.9-4.2-6.3-7.1c-1.6-3.4-2.4-7.1-2.3-10.9c-0.1-3.8,0.7-7.5,2.3-10.9c1.4-2.9,3.6-5.4,6.3-7.1
			C632,403.8,635.2,402.9,638.4,403z M641.5,411.8c-2.9-0.1-5.7,1-7.6,3.1c-1.9,2.1-2.9,4.9-2.9,8.5c0,3.6,1,6.4,2.9,8.5
			c2,2.1,4.8,3.2,7.6,3.1c2.9,0.1,5.6-1.1,7.6-3.1c2.1-2.3,3.1-5.3,3-8.4c0.2-3.1-0.9-6.1-3-8.5
			C647.2,412.9,644.4,411.8,641.5,411.8z M695.2,402.9c4.2-0.2,8.2,1.5,11,4.5c2.7,3,4.1,7.3,4.1,12.7v23.2h-10.1v-22
			c0-3.2-0.8-5.6-2.4-7.4c-1.7-1.8-4.2-2.8-6.7-2.6c-2.6-0.1-5.1,0.9-6.9,2.8c-1.7,1.9-2.6,4.6-2.6,8.1v21.2h-10.1v-39.9h10.2v8
			c1-2.6,2.8-4.8,5.2-6.3C689.3,403.6,692.2,402.9,695.2,402.9L695.2,402.9z"/>
	</g>
</g>
</svg>
