<svg width="163" height="28" viewBox="0 0 163 28" fill="none" xmlns="http://www.w3.org/2000/svg">
<g clip-path="url(#clip0)">
<path d="M47.1332 11.3258C46.8697 10.8365 46.4884 10.4661 45.9891 10.2144C45.5038 9.94883 44.9283 9.81602 44.2627 9.81602C43.1117 9.81602 42.1896 10.2005 41.4962 10.9693C40.8029 11.7242 40.4562 12.7377 40.4562 14.0099C40.4562 15.3659 40.8167 16.4283 41.5378 17.1972C42.2728 17.9521 43.2781 18.3296 44.5539 18.3296C45.4275 18.3296 46.1625 18.1059 46.7588 17.6585C47.3689 17.2112 47.8127 16.5681 48.09 15.7294H43.5763V13.0872H51.3141V16.4214C51.0506 17.316 50.5999 18.1478 49.9621 18.9167C49.338 19.6856 48.5407 20.3077 47.57 20.783C46.5993 21.2583 45.5038 21.4959 44.2835 21.4959C42.8413 21.4959 41.5517 21.1814 40.4146 20.5523C39.2914 19.9092 38.4108 19.0215 37.7729 17.8892C37.1489 16.7569 36.8369 15.4638 36.8369 14.0099C36.8369 12.556 37.1489 11.2629 37.7729 10.1306C38.4108 8.98424 39.2914 8.09654 40.4146 7.46746C41.5378 6.8244 42.8205 6.50288 44.2627 6.50288C46.0099 6.50288 47.4799 6.92925 48.6724 7.782C49.8788 8.63475 50.6762 9.81603 51.0645 11.3258H47.1332Z" fill="#5F5FFF"/>
<path d="M59.3174 9.54342V12.5211H64.0808V15.289H59.3174V18.5183H64.7048V21.3911H55.7605V6.67063H64.7048V9.54342H59.3174Z" fill="#5F5FFF"/>
<path d="M79.9945 6.67063V9.54342H76.1256V21.3911H72.5687V9.54342H68.6998V6.67063H79.9945Z" fill="#5F5FFF"/>
<path d="M93.0961 13.8421C93.942 14.0239 94.6214 14.4502 95.1345 15.1213C95.6476 15.7783 95.9041 16.5332 95.9041 17.3859C95.9041 18.6161 95.4743 19.5947 94.6145 20.3216C93.7686 21.0346 92.583 21.3911 91.0576 21.3911H84.2558V6.67063H90.8288C92.3126 6.67063 93.4705 7.01313 94.3025 7.69812C95.1484 8.38312 95.5713 9.31276 95.5713 10.487C95.5713 11.3538 95.3425 12.0737 94.8849 12.6469C94.4412 13.22 93.8449 13.6185 93.0961 13.8421ZM87.8127 12.6259H90.1424C90.7248 12.6259 91.1685 12.5001 91.4736 12.2485C91.7926 11.9829 91.952 11.5984 91.952 11.0952C91.952 10.5919 91.7926 10.2075 91.4736 9.94184C91.1685 9.67623 90.7248 9.54342 90.1424 9.54342H87.8127V12.6259ZM90.4336 18.4973C91.0299 18.4973 91.4875 18.3645 91.8064 18.0989C92.1392 17.8193 92.3056 17.4209 92.3056 16.9036C92.3056 16.3864 92.1323 15.981 91.7856 15.6874C91.4528 15.3939 90.9883 15.2471 90.392 15.2471H87.8127V18.4973H90.4336Z" fill="#5F5FFF"/>
<path d="M104 18.6231H108.66V21.3911H100.443V6.67063H104V18.6231Z" fill="#5F5FFF"/>
<path d="M119.738 21.5379C118.365 21.5379 117.103 21.2163 115.952 20.5733C114.815 19.9302 113.907 19.0355 113.228 17.8892C112.562 16.7289 112.229 15.4288 112.229 13.9889C112.229 12.549 112.562 11.2559 113.228 10.1096C113.907 8.96327 114.815 8.06858 115.952 7.42553C117.103 6.78247 118.365 6.46094 119.738 6.46094C121.111 6.46094 122.366 6.78247 123.503 7.42553C124.654 8.06858 125.555 8.96327 126.207 10.1096C126.873 11.2559 127.206 12.549 127.206 13.9889C127.206 15.4288 126.873 16.7289 126.207 17.8892C125.542 19.0355 124.64 19.9302 123.503 20.5733C122.366 21.2163 121.111 21.5379 119.738 21.5379ZM119.738 18.2667C120.903 18.2667 121.832 17.8752 122.525 17.0924C123.233 16.3095 123.586 15.275 123.586 13.9889C123.586 12.6888 123.233 11.6543 122.525 10.8855C121.832 10.1026 120.903 9.71118 119.738 9.71118C118.559 9.71118 117.617 10.0956 116.909 10.8645C116.216 11.6334 115.869 12.6748 115.869 13.9889C115.869 15.289 116.216 16.3305 116.909 17.1133C117.617 17.8822 118.559 18.2667 119.738 18.2667Z" fill="#5F5FFF"/>
<path d="M131.057 14.0099C131.057 12.556 131.369 11.2629 131.993 10.1306C132.617 8.98424 133.484 8.09654 134.593 7.46746C135.717 6.8244 136.986 6.50288 138.4 6.50288C140.133 6.50288 141.617 6.9642 142.851 7.88685C144.085 8.8095 144.911 10.0677 145.327 11.6613H141.416C141.125 11.0462 140.709 10.5779 140.168 10.2564C139.641 9.93485 139.038 9.77409 138.358 9.77409C137.263 9.77409 136.375 10.1585 135.696 10.9274C135.016 11.6963 134.677 12.7238 134.677 14.0099C134.677 15.296 135.016 16.3235 135.696 17.0924C136.375 17.8612 137.263 18.2457 138.358 18.2457C139.038 18.2457 139.641 18.0849 140.168 17.7634C140.709 17.4419 141.125 16.9735 141.416 16.3584H145.327C144.911 17.9521 144.085 19.2103 142.851 20.1329C141.617 21.0416 140.133 21.4959 138.4 21.4959C136.986 21.4959 135.717 21.1814 134.593 20.5523C133.484 19.9092 132.617 19.0215 131.993 17.8892C131.369 16.7569 131.057 15.4638 131.057 14.0099Z" fill="#5F5FFF"/>
<path d="M158.447 21.3911L153.538 14.8906V21.3911H149.981V6.67063H153.538V13.1292L158.405 6.67063H162.586L156.928 13.8841L162.794 21.3911H158.447Z" fill="#5F5FFF"/>
<path d="M0 6.46154L12.9187 0L25.8374 6.46154L12.9187 12.9231L0 6.46154Z" fill="#5F5FFF" fill-opacity="0.1"/>
<path d="M25.8369 6.46094L12.9182 12.9225V27.9994L25.8369 21.2686V6.46094Z" fill="#5F5FFF"/>
<path d="M0 6.46094L12.9187 12.9225V27.9994L0 21.2686V6.46094Z" fill="#5F5FFF" fill-opacity="0.5"/>
</g>
<defs>
<clipPath id="clip0">
<rect width="163" height="28" fill="white"/>
</clipPath>
</defs>
</svg>
