<?xml version="1.0" encoding="UTF-8" standalone="no"?>
<svg
   xmlns:dc="http://purl.org/dc/elements/1.1/"
   xmlns:cc="http://creativecommons.org/ns#"
   xmlns:rdf="http://www.w3.org/1999/02/22-rdf-syntax-ns#"
   xmlns:svg="http://www.w3.org/2000/svg"
   xmlns="http://www.w3.org/2000/svg"
   xmlns:sodipodi="http://sodipodi.sourceforge.net/DTD/sodipodi-0.dtd"
   xmlns:inkscape="http://www.inkscape.org/namespaces/inkscape"
   version="1.0"
   id="katman_1"
   x="0px"
   y="0px"
   viewBox="0 0 800 600"
   style="enable-background:new 0 0 800 600;"
   xml:space="preserve"
   sodipodi:docname="Venly.svg"
   inkscape:version="1.0.2 (e86c8708, 2021-01-15)"><metadata
   id="metadata19"><rdf:RDF><cc:Work
       rdf:about=""><dc:format>image/svg+xml</dc:format><dc:type
         rdf:resource="http://purl.org/dc/dcmitype/StillImage" /></cc:Work></rdf:RDF></metadata><defs
   id="defs17" /><sodipodi:namedview
   pagecolor="#ffffff"
   bordercolor="#666666"
   borderopacity="1"
   objecttolerance="10"
   gridtolerance="10"
   guidetolerance="10"
   inkscape:pageopacity="0"
   inkscape:pageshadow="2"
   inkscape:window-width="1280"
   inkscape:window-height="772"
   id="namedview15"
   showgrid="false"
   inkscape:zoom="0.98"
   inkscape:cx="400"
   inkscape:cy="300"
   inkscape:window-x="0"
   inkscape:window-y="0"
   inkscape:window-maximized="1"
   inkscape:current-layer="katman_1" />
<style
   type="text/css"
   id="style10">
	.st0{fill-rule:evenodd;clip-rule:evenodd;fill:#1D1D1B;}
</style>
<path
   class="st0"
   d="M595,213.5h-24.4v134.8H595V213.5z M200.8,285.2l15-5.6c0.7-0.3,1.5,0.5,1,1.2l-44.4,72.8  c-0.4,0.7-1.2,1.1-2.1,1.1h-29c-0.8,0-1.6-0.5-2.1-1.2l-44.3-72.7c-0.4-0.7,0.3-1.5,1-1.2l14.9,5.7c0.6,0.2,1.2-0.4,1-1L95.1,244  c-0.2-0.6,0.3-1.2,1-1l31.7,11c0.6,0.2,1.1,0.7,1.4,1.3l21.6,53.8c0.3,0.7-0.4,1.3-1.1,1.1l-13.4-4.9c-0.8-0.3-1.4,0.5-1,1.2  l19.7,33.2c0.4,0.7,1.5,0.7,1.9,0l19.7-33.2c0.4-0.7-0.3-1.5-1-1.2l-13.4,4.9c-0.7,0.3-1.4-0.4-1.1-1.1l21.5-53.8  c0.2-0.6,0.7-1.1,1.4-1.3l31.7-11c0.6-0.2,1.2,0.4,1,1l-16.7,40.2C199.5,284.8,200.2,285.4,200.8,285.2z M419,256.4  c5.5,2.3,10.4,5.6,14.6,9.9c4.2,4.3,7.5,9.4,10,15.4c2.4,6,3.6,12.6,3.6,19.8c0,1.1,0,2.2-0.2,3.2c-0.1,0.4-0.1,0.8-0.2,1.1l0,0v0  c-0.1,0.6-0.2,1.3-0.3,1.9c0,0.4-0.1,0.7-0.1,1.1c-0.1,0.7-0.2,1.4-0.3,2h-66.7c1.1,4.7,3.5,8.6,7.1,11.8c3.6,3.2,8.6,4.8,14.8,4.8  c3.2,0,5.9-0.3,8-1c2.1-0.7,4-1.5,5.5-2.5c1.7-1.1,3.1-2.3,4.2-3.7h25c-1.3,3.6-3.2,7.2-5.7,10.8c-2.6,3.6-5.7,6.8-9.4,9.6  c-3.7,2.8-7.9,5.1-12.5,6.9c-4.7,1.8-9.7,2.7-15.1,2.7c-6.5,0-12.7-1.3-18.5-3.8c-5.8-2.5-10.8-6-15.2-10.4  c-4.4-4.4-7.9-9.5-10.4-15.4c-2.6-5.8-3.9-12.2-3.9-18.9s1.3-13.1,3.9-18.9c2.6-5.8,6-11,10.4-15.4c4.4-4.4,9.5-7.9,15.2-10.4  c5.8-2.6,11.9-3.8,18.5-3.8C407.5,252.9,413.4,254.1,419,256.4z M385.9,281c-4,3.6-6.5,8-7.6,13.3h45.9c-1.1-5.3-3.6-9.7-7.6-13.3  c-4-3.6-9.1-5.4-15.3-5.4C395,275.6,389.9,277.4,385.9,281z M303,330.6h-3.5l-22.3-77.8h-26l30.7,95.5h38.8l30.7-95.5h-26L303,330.6  z M489.4,265.3c3.1-6.6,10.9-14.1,28.1-14.1c22.5,0,37.5,16.4,37.4,40v57h-24.5v-55.1c0-14.5-7.4-21.6-20.6-21.6  c-15,0-23.7,10.4-23.7,28.1v48.5h-24.4v-95.5h24.1v12.5H489.4z M681.6,301.3v-48.5H706v112.5c0,13.1-8.5,21.6-21.3,21.6h-60.6v-21.2  h52.4c3.5,0,5.4-1.9,5.4-5.8v-24.1h-3.5c-3.1,6.6-10.9,14.1-28.1,14.1c-22.5,0-37.5-16.4-37.5-40v-57h24.4v55.1  c0,14.5,7.4,21.6,20.6,21.6C672.8,329.4,681.6,319.1,681.6,301.3z"
   id="path12"
   style="fill:#ffffff;fill-opacity:1" />
</svg>
